solid
facet normal 0.9975702058 -0.06966839 -2.278818199e-18
outer loop
vertex 0.3961170523 -0.05559928812 0.9
vertex 0.4 0 0.9
vertex 0.4 0 0.9506432022
endloop
endfacet
facet normal 0.9742038165 -0.2256678298 0.000976945038
outer loop
vertex 0.3803535452 -0.1238191448 1
vertex 0.3807054577 -0.1227328583 0.9
vertex 0.3960562158 -0.05603100856 1
endloop
endfacet
facet normal 0.912542471 -0.4089785761 -0.001662193726
outer loop
vertex 0.3449594615 -0.2024919009 0.9
vertex 0.3807054577 -0.1227328583 0.9
vertex 0.3457408669 -0.2011547986 1
endloop
endfacet
facet normal 0.7820428362 -0.6232118972 -0.003991695834
outer loop
vertex 0.2743789663 -0.2910604453 0.9
vertex 0.3449594615 -0.2024919009 0.9
vertex 0.2764767887 -0.2890684786 1
endloop
endfacet
facet normal 0.5597085346 -0.8286858547 -0.002471923271
outer loop
vertex 0.1675359243 -0.3632240549 0.9
vertex 0.2743789663 -0.2910604453 0.9
vertex 0.168944202 -0.3625711745 1
endloop
endfacet
facet normal 0.2665856962 -0.9638060438 -0.003158573681
outer loop
vertex 0.04293036841 -0.3976895566 0.9
vertex 0.1675359243 -0.3632240549 0.9
vertex 0.0449029493 -0.3974716658 1
endloop
endfacet
facet normal -0.05475606894 -0.9984961501 -0.002685360134
outer loop
vertex -0.0861595883 -0.3906104522 0.9
vertex 0.04293036841 -0.3976895566 0.9
vertex -0.08451502158 -0.3909695783 1
endloop
endfacet
facet normal -0.3703784396 -0.9288781152 -0.002293139716
outer loop
vertex -0.206249175 -0.3427262432 0.9
vertex -0.0861595883 -0.3906104522 0.9
vertex -0.2050185823 -0.3434637985 1
endloop
endfacet
facet normal -0.6473076428 -0.7622220268 -0.00322451501
outer loop
vertex -0.3047927823 -0.2590393018 0.9
vertex -0.206249175 -0.3427262432 0.9
vertex -0.3034764021 -0.2605802629 1
endloop
endfacet
facet normal -0.85661901 -0.5159443655 -0.002298550316
outer loop
vertex -0.3714963535 -0.1482918046 0.9
vertex -0.3047927823 -0.2590393018 0.9
vertex -0.3709608005 -0.1496264833 1
endloop
endfacet
facet normal -0.9764406859 -0.2157662435 -0.002918051932
outer loop
vertex -0.3993916186 -0.02205300412 0.9
vertex -0.3714963535 -0.1482918046 0.9
vertex -0.3992864703 -0.02388126191 1
endloop
endfacet
facet normal -0.9942590469 0.1069507777 -0.003237093857
outer loop
vertex -0.3855645257 0.1064894197 0.9
vertex -0.3993916186 -0.02205300412 0.9
vertex -0.3861012233 0.1045267685 1
endloop
endfacet
facet normal -0.9082158833 0.4184963287 -0.002175347023
outer loop
vertex -0.331459427 0.2239076779 0.9
vertex -0.3855645257 0.1064894197 0.9
vertex -0.3322189158 0.222779245 1
endloop
endfacet
facet normal -0.7328012614 0.6802602388 -0.01575813153
outer loop
vertex -0.2479042994 0.3139163238 0.9
vertex -0.331459427 0.2239076779 0.9
vertex -0.2566675573 0.3067927069 1
endloop
endfacet
facet normal -0.5287413627 0.8487810625 -0.001810889991
outer loop
vertex -0.1724713006 0.3609067061 0.9
vertex -0.2479042994 0.3139163238 0.9
vertex -0.173968446 0.3601874232 1
endloop
endfacet
facet normal -0.3494619472 0.9369501715 -0.0008506048939
outer loop
vertex -0.1059967846 0.3857002485 0.9
vertex -0.1724713006 0.3609067061 0.9
vertex -0.1069341181 0.385441428 1
endloop
endfacet
facet normal -0.06083023337 0.9981481266 0
outer loop
vertex 0 0.4 0.9
vertex -0.04857406679 0.3970397462 0.9
vertex 0 0.4 0.948497642
endloop
endfacet
facet normal -0.07781292274 0.9968431616 -0.01577530376
outer loop
vertex -0.06211869158 0.3951471475 0.9482506796
vertex -0.04893983411 0.396994827 1
vertex 0 0.4 0.948497642
endloop
endfacet
facet normal -0.06129001789 0.9981199997 0
outer loop
vertex 0 0.4 1
vertex 0 0.4 0.948497642
vertex -0.04893983411 0.396994827 1
endloop
endfacet
facet normal -0.07794144807 0.9968092122 0.01721990549
outer loop
vertex 0 0.4 0.948497642
vertex -0.04857406679 0.3970397462 0.9
vertex -0.06211869158 0.3951471475 0.9482506796
endloop
endfacet
facet normal 0.9975320896 -0.07021203772 0
outer loop
vertex 0.4 0 1
vertex 0.3960562158 -0.05603100856 1
vertex 0.4 0 0.9506432022
endloop
endfacet
facet normal 0.7854952884 -0.6188639474 0.002136941892
outer loop
vertex 0.3457408669 -0.2011547986 1
vertex 0.2764767887 -0.2890684786 1
vertex 0.3449594615 -0.2024919009 0.9
endloop
endfacet
facet normal 0.5643001474 -0.8255568551 0.004606803344
outer loop
vertex 0.2764767887 -0.2890684786 1
vertex 0.168944202 -0.3625711745 1
vertex 0.2743789663 -0.2910604453 0.9
endloop
endfacet
facet normal 0.2708446334 -0.9626199048 0.002470511902
outer loop
vertex 0.168944202 -0.3625711745 1
vertex 0.0449029493 -0.3974716658 1
vertex 0.1675359243 -0.3632240549 0.9
endloop
endfacet
facet normal -0.05017745482 -0.9987353002 0.003165943326
outer loop
vertex 0.0449029493 -0.3974716658 1
vertex -0.08451502158 -0.3909695783 1
vertex 0.04293036841 -0.3976895566 0.9
endloop
endfacet
facet normal -0.3667549499 -0.9303136932 0.002690530623
outer loop
vertex -0.08451502158 -0.3909695783 1
vertex -0.2050185823 -0.3434637985 1
vertex -0.0861595883 -0.3906104522 0.9
endloop
endfacet
facet normal -0.6440053457 -0.7650175843 0.002282655074
outer loop
vertex -0.2050185823 -0.3434637985 1
vertex -0.3034764021 -0.2605802629 1
vertex -0.206249175 -0.3427262432 0.9
endloop
endfacet
facet normal -0.8543742039 -0.5196481762 0.003239236953
outer loop
vertex -0.3034764021 -0.2605802629 1
vertex -0.3709608005 -0.1496264833 1
vertex -0.3047927823 -0.2590393018 0.9
endloop
endfacet
facet normal -0.9755523437 -0.2197552578 0.002291573712
outer loop
vertex -0.3709608005 -0.1496264833 1
vertex -0.3992864703 -0.02388126191 1
vertex -0.3714963535 -0.1482918046 0.9
endloop
endfacet
facet normal -0.9947652642 0.1021449016 0.002913451343
outer loop
vertex -0.3992864703 -0.02388126191 1
vertex -0.3861012233 0.1045267685 1
vertex -0.3993916186 -0.02205300412 0.9
endloop
endfacet
facet normal -0.9099809912 0.4146371992 0.003254035479
outer loop
vertex -0.3861012233 0.1045267685 1
vertex -0.3322189158 0.222779245 1
vertex -0.3855645257 0.1064894197 0.9
endloop
endfacet
facet normal -0.7435601281 0.6686663838 0.001898196138
outer loop
vertex -0.3322189158 0.222779245 1
vertex -0.2566675573 0.3067927069 1
vertex -0.331459427 0.2239076779 0.9
endloop
endfacet
facet normal -0.5423758794 0.8400457273 0.01231184193
outer loop
vertex -0.2566675573 0.3067927069 1
vertex -0.173968446 0.3601874232 1
vertex -0.2479042994 0.3139163238 0.9
endloop
endfacet
facet normal -0.3525439852 0.935794116 0.001452910954
outer loop
vertex -0.173968446 0.3601874232 1
vertex -0.1069341181 0.385441428 1
vertex -0.1724713006 0.3609067061 0.9
endloop
endfacet
facet normal -0.195355699 0.9806217095 0.01473817019
outer loop
vertex -0.1069341181 0.385441428 1
vertex -0.04893983411 0.396994827 1
vertex -0.06211869158 0.3951471475 0.9482506796
endloop
endfacet
facet normal 0.9975508191 -0.06994476618 0.0003049095578
outer loop
vertex 0.3961170523 -0.05559928812 0.9
vertex 0.4 0 0.9506432022
vertex 0.3960562158 -0.05603100856 1
endloop
endfacet
facet normal -0.2110555021 0.9774739233 0.0005516089193
outer loop
vertex -0.1059967846 0.3857002485 0.9
vertex -0.1069341181 0.385441428 1
vertex -0.06211869158 0.3951471475 0.9482506796
endloop
endfacet
facet normal -0.1937082996 0.9809303115 -0.01590026955
outer loop
vertex -0.04857406679 0.3970397462 0.9
vertex -0.1059967846 0.3857002485 0.9
vertex -0.06211869158 0.3951471475 0.9482506796
endloop
endfacet
facet normal 0.9746474072 -0.2237460448 -0.0003730156555
outer loop
vertex 0.3961170523 -0.05559928812 0.9
vertex 0.3960562158 -0.05603100856 1
vertex 0.3807054577 -0.1227328583 0.9
endloop
endfacet
facet normal 0.9127509054 -0.4085147277 -0.001225556598
outer loop
vertex 0.3803535452 -0.1238191448 1
vertex 0.3457408669 -0.2011547986 1
vertex 0.3807054577 -0.1227328583 0.9
endloop
endfacet
facet normal 0 0 -1
outer loop
vertex 0.3961170523 -0.05559928812 0.9
vertex 0.4 0 0.9
vertex 0.452417928 0 0.9
endloop
endfacet
facet normal 0 0 -1
outer loop
vertex 0.3807054577 -0.1227328583 0.9
vertex 0.3961170523 -0.05559928812 0.9
vertex 0.4843579168 -0.1240862944 0.9
endloop
endfacet
facet normal 0 0 -1
outer loop
vertex 0.3449594615 -0.2024919009 0.9
vertex 0.3807054577 -0.1227328583 0.9
vertex 0.4566650451 -0.203610011 0.9
endloop
endfacet
facet normal 0 0 -1
outer loop
vertex 0.2743789663 -0.2910604453 0.9
vertex 0.3449594615 -0.2024919009 0.9
vertex 0.3954952232 -0.3059142501 0.9
endloop
endfacet
facet normal 0 0 -1
outer loop
vertex 0.1675359243 -0.3632240549 0.9
vertex 0.2743789663 -0.2910604453 0.9
vertex 0.3055542263 -0.3957734387 0.9
endloop
endfacet
facet normal 0 0 -1
outer loop
vertex 0.04293036841 -0.3976895566 0.9
vertex 0.1675359243 -0.3632240549 0.9
vertex 0.173623694 -0.4688867805 0.9
endloop
endfacet
facet normal -0 0 -1
outer loop
vertex -0.2479042994 0.3139163238 0.9
vertex -0.331459427 0.2239076779 0.9
vertex -0.3348597755 0.3713070572 0.9
endloop
endfacet
facet normal -0 0 -1
outer loop
vertex -0.1724713006 0.3609067061 0.9
vertex -0.2479042994 0.3139163238 0.9
vertex -0.2494507978 0.4333293199 0.9
endloop
endfacet
facet normal -0 0 -1
outer loop
vertex -0.1059967846 0.3857002485 0.9
vertex -0.1724713006 0.3609067061 0.9
vertex -0.1666261548 0.4714188419 0.9
endloop
endfacet
facet normal -0 0 -1
outer loop
vertex -0.04857406679 0.3970397462 0.9
vertex -0.1059967846 0.3857002485 0.9
vertex -0.09893512109 0.490114111 0.9
endloop
endfacet
facet normal -0 0 -1
outer loop
vertex 0 0.4 0.9
vertex -0.04857406679 0.3970397462 0.9
vertex 0 0.4485862693 0.9
endloop
endfacet
facet normal 0 -0 -1
outer loop
vertex 0 0.5 0.9
vertex 0 0.4485862693 0.9
vertex -0.04513917239 0.4979582865 0.9
endloop
endfacet
facet normal -0 0 -1
outer loop
vertex 0.5 0 0.9
vertex 0.4968640417 -0.05591175236 0.9
vertex 0.452417928 0 0.9
endloop
endfacet
facet normal -0 0 -1
outer loop
vertex 0.4843579168 -0.1240862944 0.9
vertex 0.4566650451 -0.203610011 0.9
vertex 0.3807054577 -0.1227328583 0.9
endloop
endfacet
facet normal -0 0 -1
outer loop
vertex 0.4566650451 -0.203610011 0.9
vertex 0.3954952232 -0.3059142501 0.9
vertex 0.3449594615 -0.2024919009 0.9
endloop
endfacet
facet normal -0 0 -1
outer loop
vertex 0.3954952232 -0.3059142501 0.9
vertex 0.3055542263 -0.3957734387 0.9
vertex 0.2743789663 -0.2910604453 0.9
endloop
endfacet
facet normal -0 0 -1
outer loop
vertex 0.3055542263 -0.3957734387 0.9
vertex 0.173623694 -0.4688867805 0.9
vertex 0.1675359243 -0.3632240549 0.9
endloop
endfacet
facet normal -0 0 -1
outer loop
vertex 0.173623694 -0.4688867805 0.9
vertex 0.02047133761 -0.4995807486 0.9
vertex 0.04293036841 -0.3976895566 0.9
endloop
endfacet
facet normal 0 0 -1
outer loop
vertex 0.02047133761 -0.4995807486 0.9
vertex -0.1352179331 -0.4813689963 0.9
vertex -0.0861595883 -0.3906104522 0.9
endloop
endfacet
facet normal 0 0 -1
outer loop
vertex -0.1352179331 -0.4813689963 0.9
vertex -0.2822731517 -0.4127007001 0.9
vertex -0.206249175 -0.3427262432 0.9
endloop
endfacet
facet normal 0 0 -1
outer loop
vertex -0.2822731517 -0.4127007001 0.9
vertex -0.3995872892 -0.3005494939 0.9
vertex -0.3047927823 -0.2590393018 0.9
endloop
endfacet
facet normal 0 0 -1
outer loop
vertex -0.3995872892 -0.3005494939 0.9
vertex -0.4721354994 -0.1645845381 0.9
vertex -0.3714963535 -0.1482918046 0.9
endloop
endfacet
facet normal 0 0 -1
outer loop
vertex -0.4721354994 -0.1645845381 0.9
vertex -0.4998818041 -0.0108711512 0.9
vertex -0.3993916186 -0.02205300412 0.9
endloop
endfacet
facet normal 0 0 -1
outer loop
vertex -0.4998818041 -0.0108711512 0.9
vertex -0.4788443148 0.1439031694 0.9
vertex -0.3855645257 0.1064894197 0.9
endloop
endfacet
facet normal 0 -0 -1
outer loop
vertex -0.412244868 0.282938454 0.9
vertex -0.331459427 0.2239076779 0.9
vertex -0.4788443148 0.1439031694 0.9
endloop
endfacet
facet normal 0 0 -1
outer loop
vertex -0.412244868 0.282938454 0.9
vertex -0.3348597755 0.3713070572 0.9
vertex -0.331459427 0.2239076779 0.9
endloop
endfacet
facet normal 0 0 -1
outer loop
vertex -0.3348597755 0.3713070572 0.9
vertex -0.2494507978 0.4333293199 0.9
vertex -0.2479042994 0.3139163238 0.9
endloop
endfacet
facet normal 0 0 -1
outer loop
vertex -0.2494507978 0.4333293199 0.9
vertex -0.1666261548 0.4714188419 0.9
vertex -0.1724713006 0.3609067061 0.9
endloop
endfacet
facet normal 0 0 -1
outer loop
vertex -0.1666261548 0.4714188419 0.9
vertex -0.09893512109 0.490114111 0.9
vertex -0.1059967846 0.3857002485 0.9
endloop
endfacet
facet normal 0 -0 -1
outer loop
vertex 0.452417928 0 0.9
vertex 0.4968640417 -0.05591175236 0.9
vertex 0.3961170523 -0.05559928812 0.9
endloop
endfacet
facet normal 0 0 -1
outer loop
vertex -0.3993916186 -0.02205300412 0.9
vertex -0.4998818041 -0.0108711512 0.9
vertex -0.3855645257 0.1064894197 0.9
endloop
endfacet
facet normal -0 0 -1
outer loop
vertex -0.206249175 -0.3427262432 0.9
vertex -0.2822731517 -0.4127007001 0.9
vertex -0.3047927823 -0.2590393018 0.9
endloop
endfacet
facet normal 0 0 -1
outer loop
vertex 0.4843579168 -0.1240862944 0.9
vertex 0.3961170523 -0.05559928812 0.9
vertex 0.4968640417 -0.05591175236 0.9
endloop
endfacet
facet normal -0 0 -1
outer loop
vertex -0.3714963535 -0.1482918046 0.9
vertex -0.4721354994 -0.1645845381 0.9
vertex -0.3993916186 -0.02205300412 0.9
endloop
endfacet
facet normal -0 0 -1
outer loop
vertex 0.04293036841 -0.3976895566 0.9
vertex 0.02047133761 -0.4995807486 0.9
vertex -0.0861595883 -0.3906104522 0.9
endloop
endfacet
facet normal 0 -0 -1
outer loop
vertex -0.04513917239 0.4979582865 0.9
vertex 0 0.4485862693 0.9
vertex -0.04857406679 0.3970397462 0.9
endloop
endfacet
facet normal -0 0 -1
outer loop
vertex -0.3047927823 -0.2590393018 0.9
vertex -0.3995872892 -0.3005494939 0.9
vertex -0.3714963535 -0.1482918046 0.9
endloop
endfacet
facet normal -0 0 -1
outer loop
vertex -0.0861595883 -0.3906104522 0.9
vertex -0.1352179331 -0.4813689963 0.9
vertex -0.206249175 -0.3427262432 0.9
endloop
endfacet
facet normal 0 0 -1
outer loop
vertex -0.04513917239 0.4979582865 0.9
vertex -0.04857406679 0.3970397462 0.9
vertex -0.09893512109 0.490114111 0.9
endloop
endfacet
facet normal 0 0 -1
outer loop
vertex -0.3855645257 0.1064894197 0.9
vertex -0.4788443148 0.1439031694 0.9
vertex -0.331459427 0.2239076779 0.9
endloop
endfacet
facet normal -0.06198534898 0.9980770594 2.016613186e-19
outer loop
vertex -0.06186615483 0.4961578165 1
vertex 0 0.5 1
vertex 0 0.5 0.9470606407
endloop
endfacet
facet normal -0.1912849028 0.9814661218 0.01159041412
outer loop
vertex -0.1289838295 0.4830767762 1
vertex -0.06186615483 0.4961578165 1
vertex -0.09893512109 0.490114111 0.9
endloop
endfacet
facet normal -0.3370386332 0.9413349873 0.01712896452
outer loop
vertex -0.2069465013 0.4551627682 1
vertex -0.1289838295 0.4830767762 1
vertex -0.1666261548 0.4714188419 0.9
endloop
endfacet
facet normal -0.5097990359 0.8598059031 0.0289612159
outer loop
vertex -0.3000688768 0.3999483331 1
vertex -0.2069465013 0.4551627682 1
vertex -0.2494507978 0.4333293199 0.9
endloop
endfacet
facet normal -0.6838114896 0.7290787407 0.02908670905
outer loop
vertex -0.3799201426 0.3250548958 1
vertex -0.3000688768 0.3999483331 1
vertex -0.3348597755 0.3713070572 0.9
endloop
endfacet
facet normal -0.8479037651 0.5276062314 0.05187359321
outer loop
vertex -0.4594513431 0.1972421438 1
vertex -0.3799201426 0.3250548958 1
vertex -0.412244868 0.282938454 0.9
endloop
endfacet
facet normal -0.9677290514 0.2455292524 0.05670863583
outer loop
vertex -0.4979110821 0.04565691995 1
vertex -0.4594513431 0.1972421438 1
vertex -0.4788443148 0.1439031694 0.9
endloop
endfacet
facet normal -0.9952646356 -0.07490031054 0.06195360016
outer loop
vertex -0.4854696624 -0.1196628883 1
vertex -0.4979110821 0.04565691995 1
vertex -0.4998818041 -0.0108711512 0.9
endloop
endfacet
facet normal -0.916219679 -0.3967365083 0.05605035915
outer loop
vertex -0.4194308736 -0.2721722657 1
vertex -0.4854696624 -0.1196628883 1
vertex -0.4721354994 -0.1645845381 0.9
endloop
endfacet
facet normal -0.7359617502 -0.6754828636 0.04564212226
outer loop
vertex -0.3070531157 -0.3946116878 1
vertex -0.4194308736 -0.2721722657 1
vertex -0.3995872892 -0.3005494939 0.9
endloop
endfacet
facet normal -0.4739909461 -0.8795443059 0.04164609165
outer loop
vertex -0.160752003 -0.4734541092 1
vertex -0.3070531157 -0.3946116878 1
vertex -0.2822731517 -0.4127007001 0.9
endloop
endfacet
facet normal -0.1595516757 -0.986483179 0.03733899291
outer loop
vertex 0.003309392482 -0.4999890478 1
vertex -0.160752003 -0.4734541092 1
vertex -0.1352179331 -0.4813689963 0.9
endloop
endfacet
facet normal 0.1624698294 -0.9864250978 0.02385541682
outer loop
vertex 0.1572174796 -0.4746395096 1
vertex 0.003309392482 -0.4999890478 1
vertex 0.02047133761 -0.4995807486 0.9
endloop
endfacet
facet normal 0.4676688576 -0.88352421 0.02590000041
outer loop
vertex 0.3041023697 -0.3968900966 1
vertex 0.1572174796 -0.4746395096 1
vertex 0.173623694 -0.4688867805 0.9
endloop
endfacet
facet normal 0.706783006 -0.7074264652 0.002361942705
outer loop
vertex 0.3055542263 -0.3957734387 0.9
vertex 0.3954952232 -0.3059142501 0.9
vertex 0.3041023697 -0.3968900966 1
endloop
endfacet
facet normal 0.8577389913 -0.5140350884 -0.007193789864
outer loop
vertex 0.453583541 -0.2103852926 1
vertex 0.3993991903 -0.3007994129 1
vertex 0.3954952232 -0.3059142501 0.9
endloop
endfacet
facet normal 0.9413053603 -0.3375004029 0.006139760682
outer loop
vertex 0.4839274398 -0.1257546542 1
vertex 0.453583541 -0.2103852926 1
vertex 0.4566650451 -0.203610011 0.9
endloop
endfacet
facet normal 0.9831434498 -0.1828320548 0.001181910139
outer loop
vertex 0.4967832631 -0.0566249904 1
vertex 0.4839274398 -0.1257546542 1
vertex 0.4843579168 -0.1240862944 0.9
endloop
endfacet
facet normal 0.998390336 -0.05671628456 0
outer loop
vertex 0.5 0 1
vertex 0.4967832631 -0.0566249904 1
vertex 0.5 0 0.9478400778
endloop
endfacet
facet normal 0.9984307896 -0.05599962756 0
outer loop
vertex 0.5 0 0.9
vertex 0.5 0 0.9478400778
vertex 0.4968640417 -0.05591175236 0.9
endloop
endfacet
facet normal 0.9443762146 -0.3288640224 -0.001421312578
outer loop
vertex 0.4566650451 -0.203610011 0.9
vertex 0.4843579168 -0.1240862944 0.9
vertex 0.4839274398 -0.1257546542 1
endloop
endfacet
facet normal 0.8582495388 -0.5131651621 -0.008321389915
outer loop
vertex 0.3954952232 -0.3059142501 0.9
vertex 0.4566650451 -0.203610011 0.9
vertex 0.453583541 -0.2103852926 1
endloop
endfacet
facet normal 0.1964496439 -0.9802162357 -0.02415923572
outer loop
vertex 0.02047133761 -0.4995807486 0.9
vertex 0.173623694 -0.4688867805 0.9
vertex 0.1572174796 -0.4746395096 1
endloop
endfacet
facet normal -0.1161493951 -0.9929420475 -0.02398767025
outer loop
vertex -0.1352179331 -0.4813689963 0.9
vertex 0.02047133761 -0.4995807486 0.9
vertex 0.003309392482 -0.4999890478 1
endloop
endfacet
facet normal -0.4228218474 -0.9054856847 -0.03629545674
outer loop
vertex -0.2822731517 -0.4127007001 0.9
vertex -0.1352179331 -0.4813689963 0.9
vertex -0.160752003 -0.4734541092 1
endloop
endfacet
facet normal -0.6904565943 -0.7222420752 -0.04044843796
outer loop
vertex -0.3995872892 -0.3005494939 0.9
vertex -0.2822731517 -0.4127007001 0.9
vertex -0.3070531157 -0.3946116878 1
endloop
endfacet
facet normal -0.8815042915 -0.4703532484 -0.04144883368
outer loop
vertex -0.4721354994 -0.1645845381 0.9
vertex -0.3995872892 -0.3005494939 0.9
vertex -0.4194308736 -0.2721722657 1
endloop
endfacet
facet normal -0.9827976482 -0.1774016143 -0.05135610868
outer loop
vertex -0.4998818041 -0.0108711512 0.9
vertex -0.4721354994 -0.1645845381 0.9
vertex -0.4854696624 -0.1196628883 1
endloop
endfacet
facet normal -0.9893046551 0.1344698914 -0.0565167912
outer loop
vertex -0.4788443148 0.1439031694 0.9
vertex -0.4998818041 -0.0108711512 0.9
vertex -0.4979110821 0.04565691995 1
endloop
endfacet
facet normal -0.9004834976 0.4313416047 -0.05544267833
outer loop
vertex -0.412244868 0.282938454 0.9
vertex -0.4788443148 0.1439031694 0.9
vertex -0.4594513431 0.1972421438 1
endloop
endfacet
facet normal -0.7518709639 0.6584194161 -0.03426260478
outer loop
vertex -0.3348597755 0.3713070572 0.9
vertex -0.412244868 0.282938454 0.9
vertex -0.3799201426 0.3250548958 1
endloop
endfacet
facet normal -0.5873738387 0.8088547069 -0.02731367108
outer loop
vertex -0.2494507978 0.4333293199 0.9
vertex -0.3348597755 0.3713070572 0.9
vertex -0.3000688768 0.3999483331 1
endloop
endfacet
facet normal -0.4177266327 0.9083353468 -0.02076916237
outer loop
vertex -0.1666261548 0.4714188419 0.9
vertex -0.2494507978 0.4333293199 0.9
vertex -0.2069465013 0.4551627682 1
endloop
endfacet
facet normal -0.2661988426 0.9638414272 -0.01216056592
outer loop
vertex -0.09893512109 0.490114111 0.9
vertex -0.1666261548 0.4714188419 0.9
vertex -0.1289838295 0.4830767762 1
endloop
endfacet
facet normal -0.0451853237 0.9989786217 0
outer loop
vertex 0 0.5 0.9
vertex -0.04513917239 0.4979582865 0.9
vertex 0 0.5 0.9470606407
endloop
endfacet
facet normal 0.9984112907 -0.05634475049 0.0004046309463
outer loop
vertex 0.5 0 0.9478400778
vertex 0.4967832631 -0.0566249904 1
vertex 0.4968640417 -0.05591175236 0.9
endloop
endfacet
facet normal 0.9835873451 -0.1804319597 -0.0004923808123
outer loop
vertex 0.4968640417 -0.05591175236 0.9
vertex 0.4967832631 -0.0566249904 1
vertex 0.4843579168 -0.1240862944 0.9
endloop
endfacet
facet normal -0.05441572326 0.9984789231 0.008875205087
outer loop
vertex 0 0.5 0.9470606407
vertex -0.04513917239 0.4979582865 0.9
vertex -0.06186615483 0.4961578165 1
endloop
endfacet
facet normal 0.4847218682 -0.8746640841 -0.002729538746
outer loop
vertex 0.3041023697 -0.3968900966 1
vertex 0.173623694 -0.4688867805 0.9
vertex 0.3055542263 -0.3957734387 0.9
endloop
endfacet
facet normal 0.7100092651 -0.7041434506 0.008297263287
outer loop
vertex 0.3993991903 -0.3007994129 1
vertex 0.3041023697 -0.3968900966 1
vertex 0.3954952232 -0.3059142501 0.9
endloop
endfacet
facet normal -0.1442847946 0.9895160302 -0.006318552896
outer loop
vertex -0.09893512109 0.490114111 0.9
vertex -0.06186615483 0.4961578165 1
vertex -0.04513917239 0.4979582865 0.9
endloop
endfacet
facet normal 0 0 1
outer loop
vertex 0 0.5 1
vertex -0.06186615483 0.4961578165 1
vertex 0 0.4479321063 1
endloop
endfacet
facet normal 0 0 1
outer loop
vertex -0.06186615483 0.4961578165 1
vertex -0.1289838295 0.4830767762 1
vertex -0.04893983411 0.396994827 1
endloop
endfacet
facet normal 0 -0 1
outer loop
vertex -0.173968446 0.3601874232 1
vertex -0.1069341181 0.385441428 1
vertex -0.2069465013 0.4551627682 1
endloop
endfacet
facet normal 0 0 1
outer loop
vertex -0.2069465013 0.4551627682 1
vertex -0.3000688768 0.3999483331 1
vertex -0.173968446 0.3601874232 1
endloop
endfacet
facet normal 0 0 1
outer loop
vertex -0.3000688768 0.3999483331 1
vertex -0.3799201426 0.3250548958 1
vertex -0.2566675573 0.3067927069 1
endloop
endfacet
facet normal 0 0 1
outer loop
vertex -0.4594513431 0.1972421438 1
vertex -0.4979110821 0.04565691995 1
vertex -0.3861012233 0.1045267685 1
endloop
endfacet
facet normal 0 0 1
outer loop
vertex -0.4854696624 -0.1196628883 1
vertex -0.4194308736 -0.2721722657 1
vertex -0.3709608005 -0.1496264833 1
endloop
endfacet
facet normal -0 0 1
outer loop
vertex -0.3070531157 -0.3946116878 1
vertex -0.160752003 -0.4734541092 1
vertex -0.2050185823 -0.3434637985 1
endloop
endfacet
facet normal 0 0 1
outer loop
vertex 0.003309392482 -0.4999890478 1
vertex 0.1572174796 -0.4746395096 1
vertex 0.0449029493 -0.3974716658 1
endloop
endfacet
facet normal 0 -0 1
outer loop
vertex 0.3041023697 -0.3968900966 1
vertex 0.3993991903 -0.3007994129 1
vertex 0.2764767887 -0.2890684786 1
endloop
endfacet
facet normal 0 -0 1
outer loop
vertex 0.3993991903 -0.3007994129 1
vertex 0.453583541 -0.2103852926 1
vertex 0.3457408669 -0.2011547986 1
endloop
endfacet
facet normal 0 -0 1
outer loop
vertex 0.453583541 -0.2103852926 1
vertex 0.4839274398 -0.1257546542 1
vertex 0.3803535452 -0.1238191448 1
endloop
endfacet
facet normal 0 -0 1
outer loop
vertex 0.4839274398 -0.1257546542 1
vertex 0.4967832631 -0.0566249904 1
vertex 0.3960562158 -0.05603100856 1
endloop
endfacet
facet normal 0 -0 1
outer loop
vertex 0.4967832631 -0.0566249904 1
vertex 0.5 0 1
vertex 0.452417928 0 1
endloop
endfacet
facet normal -0 0 1
outer loop
vertex 0.4 0 1
vertex 0.3960562158 -0.05603100856 1
vertex 0.452417928 0 1
endloop
endfacet
facet normal 0 0 1
outer loop
vertex 0.3960562158 -0.05603100856 1
vertex 0.3803535452 -0.1238191448 1
vertex 0.4839274398 -0.1257546542 1
endloop
endfacet
facet normal 0 0 1
outer loop
vertex 0.3803535452 -0.1238191448 1
vertex 0.3457408669 -0.2011547986 1
vertex 0.453583541 -0.2103852926 1
endloop
endfacet
facet normal 0 0 1
outer loop
vertex 0.3457408669 -0.2011547986 1
vertex 0.2764767887 -0.2890684786 1
vertex 0.3993991903 -0.3007994129 1
endloop
endfacet
facet normal 0 0 1
outer loop
vertex 0.2764767887 -0.2890684786 1
vertex 0.168944202 -0.3625711745 1
vertex 0.3041023697 -0.3968900966 1
endloop
endfacet
facet normal 0 0 1
outer loop
vertex 0.168944202 -0.3625711745 1
vertex 0.0449029493 -0.3974716658 1
vertex 0.1572174796 -0.4746395096 1
endloop
endfacet
facet normal 0 0 1
outer loop
vertex 0.0449029493 -0.3974716658 1
vertex -0.08451502158 -0.3909695783 1
vertex 0.003309392482 -0.4999890478 1
endloop
endfacet
facet normal 0 0 1
outer loop
vertex -0.08451502158 -0.3909695783 1
vertex -0.2050185823 -0.3434637985 1
vertex -0.160752003 -0.4734541092 1
endloop
endfacet
facet normal 0 0 1
outer loop
vertex -0.2050185823 -0.3434637985 1
vertex -0.3034764021 -0.2605802629 1
vertex -0.3070531157 -0.3946116878 1
endloop
endfacet
facet normal 0 0 1
outer loop
vertex -0.3034764021 -0.2605802629 1
vertex -0.3709608005 -0.1496264833 1
vertex -0.4194308736 -0.2721722657 1
endloop
endfacet
facet normal 0 0 1
outer loop
vertex -0.3709608005 -0.1496264833 1
vertex -0.3992864703 -0.02388126191 1
vertex -0.4854696624 -0.1196628883 1
endloop
endfacet
facet normal 0 -0 1
outer loop
vertex -0.3992864703 -0.02388126191 1
vertex -0.3861012233 0.1045267685 1
vertex -0.4979110821 0.04565691995 1
endloop
endfacet
facet normal 0 -0 1
outer loop
vertex -0.3861012233 0.1045267685 1
vertex -0.3322189158 0.222779245 1
vertex -0.4594513431 0.1972421438 1
endloop
endfacet
facet normal 0 -0 1
outer loop
vertex -0.3322189158 0.222779245 1
vertex -0.2566675573 0.3067927069 1
vertex -0.3799201426 0.3250548958 1
endloop
endfacet
facet normal 0 -0 1
outer loop
vertex -0.2566675573 0.3067927069 1
vertex -0.173968446 0.3601874232 1
vertex -0.3000688768 0.3999483331 1
endloop
endfacet
facet normal 0 0 1
outer loop
vertex -0.04893983411 0.396994827 1
vertex 0 0.4 1
vertex 0 0.4479321063 1
endloop
endfacet
facet normal 0 0 1
outer loop
vertex 0.452417928 0 1
vertex 0.3960562158 -0.05603100856 1
vertex 0.4967832631 -0.0566249904 1
endloop
endfacet
facet normal 0 0 1
outer loop
vertex -0.06186615483 0.4961578165 1
vertex -0.04893983411 0.396994827 1
vertex 0 0.4479321063 1
endloop
endfacet
facet normal 0 0 1
outer loop
vertex -0.4594513431 0.1972421438 1
vertex -0.3322189158 0.222779245 1
vertex -0.3799201426 0.3250548958 1
endloop
endfacet
facet normal 0 -0 1
outer loop
vertex -0.4854696624 -0.1196628883 1
vertex -0.3992864703 -0.02388126191 1
vertex -0.4979110821 0.04565691995 1
endloop
endfacet
facet normal 0 -0 1
outer loop
vertex -0.3070531157 -0.3946116878 1
vertex -0.3034764021 -0.2605802629 1
vertex -0.4194308736 -0.2721722657 1
endloop
endfacet
facet normal 0 0 1
outer loop
vertex 0.003309392482 -0.4999890478 1
vertex -0.08451502158 -0.3909695783 1
vertex -0.160752003 -0.4734541092 1
endloop
endfacet
facet normal 0 0 1
outer loop
vertex 0.168944202 -0.3625711745 1
vertex 0.1572174796 -0.4746395096 1
vertex 0.3041023697 -0.3968900966 1
endloop
endfacet
facet normal 0 0 1
outer loop
vertex -0.04893983411 0.396994827 1
vertex -0.1289838295 0.4830767762 1
vertex -0.1069341181 0.385441428 1
endloop
endfacet
facet normal -1 0 0
outer loop
vertex 0 0.4485862693 0.9
vertex 0 0.4479321063 1
vertex 0 0.5 0.9470606407
endloop
endfacet
facet normal 0 0 1
outer loop
vertex -0.1289838295 0.4830767762 1
vertex -0.2069465013 0.4551627682 1
vertex -0.1069341181 0.385441428 1
endloop
endfacet
facet normal -1 -0 -0
outer loop
vertex 0 0.5 1
vertex 0 0.5 0.9470606407
vertex 0 0.4479321063 1
endloop
endfacet
facet normal 0 -1 0
outer loop
vertex 0.5 0 0.9478400778
vertex 0.5 0 1
vertex 0.452417928 0 1
endloop
endfacet
facet normal 0 -1 0
outer loop
vertex 0.5 0 0.9
vertex 0.5 0 0.9478400778
vertex 0.452417928 0 0.9
endloop
endfacet
facet normal 0 -1 -0
outer loop
vertex 0.452417928 0 1
vertex 0.4 0 0.9506432022
vertex 0.5 0 0.9478400778
endloop
endfacet
facet normal -0 -1 0
outer loop
vertex 0.452417928 0 1
vertex 0.4 0 1
vertex 0.4 0 0.9506432022
endloop
endfacet
facet normal 0 -1 0
outer loop
vertex 0.4 0 0.9506432022
vertex 0.4 0 0.9
vertex 0.452417928 0 0.9
endloop
endfacet
facet normal 0 -1 0
outer loop
vertex 0.452417928 0 0.9
vertex 0.5 0 0.9478400778
vertex 0.4 0 0.9506432022
endloop
endfacet
facet normal -1 0 0
outer loop
vertex 0 0.4 0.9
vertex 0 0.4 0.948497642
vertex 0 0.4485862693 0.9
endloop
endfacet
facet normal -1 0 0
outer loop
vertex 0 0.4 0.948497642
vertex 0 0.4 1
vertex 0 0.4479321063 1
endloop
endfacet
facet normal -1 0 0
outer loop
vertex 0 0.4 0.948497642
vertex 0 0.4479321063 1
vertex 0 0.4485862693 0.9
endloop
endfacet
facet normal -1 0 0
outer loop
vertex 0 0.5 0.9
vertex 0 0.4485862693 0.9
vertex 0 0.5 0.9470606407
endloop
endfacet
endsolid
