solid
facet normal 0.1675324801 -0.9835486529 -0.06756415785
outer loop
vertex 0 -0.5 0.9
vertex 0.1655319847 -0.4718041565 0.9
vertex 0.06606678402 -0.4956159602 1
endloop
endfacet
facet normal 0.4783837717 -0.8758713779 -0.06323208353
outer loop
vertex 0.1655319847 -0.4718041565 0.9
vertex 0.3074980478 -0.3942650766 0.9
vertex 0.2257010929 -0.4461603038 1
endloop
endfacet
facet normal 0.7321851326 -0.6781228201 -0.06367395491
outer loop
vertex 0.3074980478 -0.3942650766 0.9
vertex 0.4166485334 -0.2764127341 0.9
vertex 0.3595454738 -0.3474579863 1
endloop
endfacet
facet normal 0.9120155226 -0.4041267868 -0.07006587419
outer loop
vertex 0.4166485334 -0.2764127341 0.9
vertex 0.4846443759 -0.1229627133 0.9
vertex 0.4537019021 -0.2101299218 1
endloop
endfacet
facet normal 0.9943928734 -0.07936830367 -0.06988194055
outer loop
vertex 0.4846443759 -0.1229627133 0.9
vertex 0.4980130344 0.04453108554 0.9
vertex 0.4975026711 -0.04991084258 1
endloop
endfacet
facet normal 0.9668903093 0.2470388407 -0.06399172574
outer loop
vertex 0.4980130344 0.04453108554 0.9
vertex 0.4583382437 0.1998150505 0.9
vertex 0.486160709 0.1168236494 1
endloop
endfacet
facet normal 0.8368607462 0.5432539913 -0.06737352978
outer loop
vertex 0.4583382437 0.1998150505 0.9
vertex 0.3690820466 0.337310603 0.9
vertex 0.4211778792 0.2694609324 1
endloop
endfacet
facet normal 0.6121527349 0.7875095657 -0.07139827106
outer loop
vertex 0.3690820466 0.337310603 0.9
vertex 0.2358333691 0.4408884462 0.9
vertex 0.3098302957 0.3924349473 1
endloop
endfacet
facet normal 0.3160101608 0.9461299801 -0.07053821002
outer loop
vertex 0.2358333691 0.4408884462 0.9
vertex 0.0764618338 0.4941190018 0.9
vertex 0.1641799889 0.4722763293 1
endloop
endfacet
facet normal -0.01495688301 0.9974281814 -0.0700950401
outer loop
vertex 0.0764618338 0.4941190018 0.9
vertex -0.09124319523 0.4916041897 0.9
vertex 0 0.5 1
endloop
endfacet
facet normal -0.3399378025 0.9381140127 -0.06621472278
outer loop
vertex -0.09124319523 0.4916041897 0.9
vertex -0.2448636989 0.435937804 0.9
vertex -0.1617172818 0.4731252696 1
endloop
endfacet
facet normal -0.6283787481 0.7749036377 -0.06829715383
outer loop
vertex -0.2448636989 0.435937804 0.9
vertex -0.3759507643 0.3296377145 0.9
vertex -0.3006838687 0.3994861839 1
endloop
endfacet
facet normal -0.846749239 0.5284064643 -0.06166307365
outer loop
vertex -0.3759507643 0.3296377145 0.9
vertex -0.4613124983 0.1928491092 0.9
vertex -0.4137717306 0.2807008282 1
endloop
endfacet
facet normal -0.9708555629 0.2311105085 -0.06346186996
outer loop
vertex -0.4613124983 0.1928491092 0.9
vertex -0.4987248729 0.03568614728 0.9
vertex -0.4828564609 0.1298061561 1
endloop
endfacet
facet normal -0.9942441726 -0.08834733215 -0.06060754213
outer loop
vertex -0.4987248729 0.03568614728 0.9
vertex -0.4846184523 -0.1230648433 0.9
vertex -0.4993006986 -0.02643505988 1
endloop
endfacet
facet normal -0.9120407393 -0.4043676866 -0.06832615868
outer loop
vertex -0.4846184523 -0.1230648433 0.9
vertex -0.4165903929 -0.2765003517 0.9
vertex -0.4631990441 -0.1882727954 1
endloop
endfacet
facet normal -0.7332809378 -0.6771060242 -0.06185869541
outer loop
vertex -0.4165903929 -0.2765003517 0.9
vertex -0.3087570276 -0.3932799231 0.9
vertex -0.3757820281 -0.3298300583 1
endloop
endfacet
facet normal -0.4797821348 -0.8748725976 -0.06638554907
outer loop
vertex -0.3087570276 -0.3932799231 0.9
vertex -0.1656368731 -0.4717673434 0.9
vertex -0.2467581202 -0.4348682906 1
endloop
endfacet
facet normal -0.1676087149 -0.9833358512 -0.07041251582
outer loop
vertex -0.1656368731 -0.4717673434 0.9
vertex 0 -0.5 0.9
vertex -0.09096969344 -0.4916548737 1
endloop
endfacet
facet normal 0.1661056175 0.9836799303 0.06915720249
outer loop
vertex 0 0.5 1
vertex 0.1641799889 0.4722763293 1
vertex 0.0764618338 0.4941190018 0.9
endloop
endfacet
facet normal 0.4795409171 0.8748005098 0.06902591514
outer loop
vertex 0.1641799889 0.4722763293 1
vertex 0.3098302957 0.3924349473 1
vertex 0.2358333691 0.4408884462 0.9
endloop
endfacet
facet normal 0.7395097066 0.6695936443 0.06906334319
outer loop
vertex 0.3098302957 0.3924349473 1
vertex 0.4211778792 0.2694609324 1
vertex 0.3690820466 0.337310603 0.9
endloop
endfacet
facet normal 0.9178991793 0.390780581 0.06893209855
outer loop
vertex 0.4211778792 0.2694609324 1
vertex 0.486160709 0.1168236494 1
vertex 0.4583382437 0.1998150505 0.9
endloop
endfacet
facet normal 0.9953149964 0.06770539747 0.06902200474
outer loop
vertex 0.486160709 0.1168236494 1
vertex 0.4975026711 -0.04991084258 1
vertex 0.4980130344 0.04453108554 0.9
endloop
endfacet
facet normal 0.9623413935 -0.2630853536 0.06844807529
outer loop
vertex 0.4975026711 -0.04991084258 1
vertex 0.4537019021 -0.2101299218 1
vertex 0.4846443759 -0.1229627133 0.9
endloop
endfacet
facet normal 0.8227921856 -0.564132129 0.06905041852
outer loop
vertex 0.4537019021 -0.2101299218 1
vertex 0.3595454738 -0.3474579863 1
vertex 0.4166485334 -0.2764127341 0.9
endloop
endfacet
facet normal 0.5921515469 -0.8029817257 0.06765274276
outer loop
vertex 0.3595454738 -0.3474579863 1
vertex 0.2257010929 -0.4461603038 1
vertex 0.3074980478 -0.3942650766 0.9
endloop
endfacet
facet normal 0.29526974 -0.9530796724 0.06674517779
outer loop
vertex 0.2257010929 -0.4461603038 1
vertex 0.06606678402 -0.4956159602 1
vertex 0.1655319847 -0.4718041565 0.9
endloop
endfacet
facet normal -0.02516996863 -0.9978583428 0.06037549527
outer loop
vertex 0.06606678402 -0.4956159602 1
vertex -0.09096969344 -0.4916548737 1
vertex 0 -0.5 0.9
endloop
endfacet
facet normal -0.3416595482 -0.9373094928 0.06869983857
outer loop
vertex -0.09096969344 -0.4916548737 1
vertex -0.2467581202 -0.4348682906 1
vertex -0.1656368731 -0.4717673434 0.9
endloop
endfacet
facet normal -0.6298459057 -0.7736723895 0.06873986372
outer loop
vertex -0.2467581202 -0.4348682906 1
vertex -0.3757820281 -0.3298300583 1
vertex -0.3087570276 -0.3932799231 0.9
endloop
endfacet
facet normal -0.8489357876 -0.5242502706 0.06685568243
outer loop
vertex -0.3757820281 -0.3298300583 1
vertex -0.4631990441 -0.1882727954 1
vertex -0.4165903929 -0.2765003517 0.9
endloop
endfacet
facet normal -0.9738221088 -0.2172335713 0.06693336934
outer loop
vertex -0.4631990441 -0.1882727954 1
vertex -0.4993006986 -0.02643505988 1
vertex -0.4846184523 -0.1230648433 0.9
endloop
endfacet
facet normal -0.9927631492 0.1044873665 0.05919222858
outer loop
vertex -0.4993006986 -0.02643505988 1
vertex -0.4828564609 0.1298061561 1
vertex -0.4987248729 0.03568614728 0.9
endloop
endfacet
facet normal -0.9072299101 0.4153608129 0.06640244978
outer loop
vertex -0.4828564609 0.1298061561 1
vertex -0.4137717306 0.2807008282 1
vertex -0.4613124983 0.1928491092 0.9
endloop
endfacet
facet normal -0.7228067278 0.6881375819 0.06338061704
outer loop
vertex -0.4137717306 0.2807008282 1
vertex -0.3006838687 0.3994861839 1
vertex -0.3759507643 0.3296377145 0.9
endloop
endfacet
facet normal -0.467367203 0.881983044 0.06061194261
outer loop
vertex -0.3006838687 0.3994861839 1
vertex -0.1617172818 0.4731252696 1
vertex -0.2448636989 0.435937804 0.9
endloop
endfacet
facet normal -0.1635710644 0.9842803091 0.06660915799
outer loop
vertex -0.1617172818 0.4731252696 1
vertex 0 0.5 1
vertex -0.09124319523 0.4916041897 0.9
endloop
endfacet
facet normal -0 0 -1
outer loop
vertex 0.1655319847 -0.4718041565 0.9
vertex 0 -0.5 0.9
vertex 0.06614750617 -0.3944927216 0.9
endloop
endfacet
facet normal -0 0 -1
outer loop
vertex 0.4166485334 -0.2764127341 0.9
vertex 0.3074980478 -0.3942650766 0.9
vertex 0.2943223462 -0.2708770136 0.9
endloop
endfacet
facet normal 0 0 -1
outer loop
vertex 0.4980130344 0.04453108554 0.9
vertex 0.4846443759 -0.1229627133 0.9
vertex 0.3986158124 -0.03324806878 0.9
endloop
endfacet
facet normal 0 -0 -1
outer loop
vertex 0.4583382437 0.1998150505 0.9
vertex 0.4980130344 0.04453108554 0.9
vertex 0.3877579899 0.09820255206 0.9
endloop
endfacet
facet normal 0 0 -1
outer loop
vertex 0.2358333691 0.4408884462 0.9
vertex 0.3690820466 0.337310603 0.9
vertex 0.2461389409 0.3153024291 0.9
endloop
endfacet
facet normal 0 0 -1
outer loop
vertex -0.09124319523 0.4916041897 0.9
vertex 0.0764618338 0.4941190018 0.9
vertex 0 0.4 0.9
endloop
endfacet
facet normal 0 0 -1
outer loop
vertex -0.3759507643 0.3296377145 0.9
vertex -0.2448636989 0.435937804 0.9
vertex -0.2462547038 0.3152120253 0.9
endloop
endfacet
facet normal 0 0 -1
outer loop
vertex -0.4987248729 0.03568614728 0.9
vertex -0.4613124983 0.1928491092 0.9
vertex -0.3877981952 0.0980436628 0.9
endloop
endfacet
facet normal 0 0 -1
outer loop
vertex -0.4846184523 -0.1230648433 0.9
vertex -0.4987248729 0.03568614728 0.9
vertex -0.3986137522 -0.03327276036 0.9
endloop
endfacet
facet normal 0 0 -1
outer loop
vertex -0.3087570276 -0.3932799231 0.9
vertex -0.4165903929 -0.2765003517 0.9
vertex -0.2943057769 -0.270895016 0.9
endloop
endfacet
facet normal -0 0 -1
outer loop
vertex 0 0.4 0.9
vertex -0.1296827565 0.3783944802 0.9
vertex -0.09124319523 0.4916041897 0.9
endloop
endfacet
facet normal -0 0 -1
outer loop
vertex -0.1296827565 0.3783944802 0.9
vertex -0.2462547038 0.3152120253 0.9
vertex -0.2448636989 0.435937804 0.9
endloop
endfacet
facet normal -0 0 -1
outer loop
vertex -0.2462547038 0.3152120253 0.9
vertex -0.3350546189 0.2184911951 0.9
vertex -0.3759507643 0.3296377145 0.9
endloop
endfacet
facet normal 0 0 -1
outer loop
vertex -0.3350546189 0.2184911951 0.9
vertex -0.3877981952 0.0980436628 0.9
vertex -0.4613124983 0.1928491092 0.9
endloop
endfacet
facet normal 0 0 -1
outer loop
vertex -0.3877981952 0.0980436628 0.9
vertex -0.3986137522 -0.03327276036 0.9
vertex -0.4987248729 0.03568614728 0.9
endloop
endfacet
facet normal 0 -0 -1
outer loop
vertex -0.3986137522 -0.03327276036 0.9
vertex -0.3660349376 -0.1613022766 0.9
vertex -0.4846184523 -0.1230648433 0.9
endloop
endfacet
facet normal 0 -0 -1
outer loop
vertex -0.3660349376 -0.1613022766 0.9
vertex -0.2943057769 -0.270895016 0.9
vertex -0.4165903929 -0.2765003517 0.9
endloop
endfacet
facet normal 0 -0 -1
outer loop
vertex -0.2943057769 -0.270895016 0.9
vertex -0.1903955411 -0.3517805252 0.9
vertex -0.3087570276 -0.3932799231 0.9
endloop
endfacet
facet normal 0 0 -1
outer loop
vertex -0.1903955411 -0.3517805252 0.9
vertex -0.06596213337 -0.3945237597 0.9
vertex -0.1656368731 -0.4717673434 0.9
endloop
endfacet
facet normal 0 0 -1
outer loop
vertex -0.06596213337 -0.3945237597 0.9
vertex 0.06614750617 -0.3944927216 0.9
vertex 0 -0.5 0.9
endloop
endfacet
facet normal 0 0 -1
outer loop
vertex 0.06614750617 -0.3944927216 0.9
vertex 0.1906848667 -0.3516237785 0.9
vertex 0.1655319847 -0.4718041565 0.9
endloop
endfacet
facet normal 0 0 -1
outer loop
vertex 0.1906848667 -0.3516237785 0.9
vertex 0.2943223462 -0.2708770136 0.9
vertex 0.3074980478 -0.3942650766 0.9
endloop
endfacet
facet normal 0 0 -1
outer loop
vertex 0.2943223462 -0.2708770136 0.9
vertex 0.3660448825 -0.1612797074 0.9
vertex 0.4166485334 -0.2764127341 0.9
endloop
endfacet
facet normal 0 0 -1
outer loop
vertex 0.3660448825 -0.1612797074 0.9
vertex 0.3986158124 -0.03324806878 0.9
vertex 0.4846443759 -0.1229627133 0.9
endloop
endfacet
facet normal 0 0 -1
outer loop
vertex 0.3986158124 -0.03324806878 0.9
vertex 0.3877579899 0.09820255206 0.9
vertex 0.4980130344 0.04453108554 0.9
endloop
endfacet
facet normal 0 0 -1
outer loop
vertex 0.3877579899 0.09820255206 0.9
vertex 0.3350667701 0.2184725603 0.9
vertex 0.4583382437 0.1998150505 0.9
endloop
endfacet
facet normal 0 0 -1
outer loop
vertex 0.3350667701 0.2184725603 0.9
vertex 0.2461389409 0.3153024291 0.9
vertex 0.3690820466 0.337310603 0.9
endloop
endfacet
facet normal 0 0 -1
outer loop
vertex 0.2461389409 0.3153024291 0.9
vertex 0.1307783202 0.3780172363 0.9
vertex 0.2358333691 0.4408884462 0.9
endloop
endfacet
facet normal 0 0 -1
outer loop
vertex 0.1307783202 0.3780172363 0.9
vertex 0 0.4 0.9
vertex 0.0764618338 0.4941190018 0.9
endloop
endfacet
facet normal 0 -0 -1
outer loop
vertex 0.1906848667 -0.3516237785 0.9
vertex 0.3074980478 -0.3942650766 0.9
vertex 0.1655319847 -0.4718041565 0.9
endloop
endfacet
facet normal 0 0 -1
outer loop
vertex 0.4166485334 -0.2764127341 0.9
vertex 0.3660448825 -0.1612797074 0.9
vertex 0.4846443759 -0.1229627133 0.9
endloop
endfacet
facet normal -0 0 -1
outer loop
vertex 0.2358333691 0.4408884462 0.9
vertex 0.1307783202 0.3780172363 0.9
vertex 0.0764618338 0.4941190018 0.9
endloop
endfacet
facet normal 0 -0 -1
outer loop
vertex -0.3759507643 0.3296377145 0.9
vertex -0.3350546189 0.2184911951 0.9
vertex -0.4613124983 0.1928491092 0.9
endloop
endfacet
facet normal 0 0 -1
outer loop
vertex -0.3087570276 -0.3932799231 0.9
vertex -0.1903955411 -0.3517805252 0.9
vertex -0.1656368731 -0.4717673434 0.9
endloop
endfacet
facet normal 0 0 -1
outer loop
vertex 0.4583382437 0.1998150505 0.9
vertex 0.3350667701 0.2184725603 0.9
vertex 0.3690820466 0.337310603 0.9
endloop
endfacet
facet normal 0 0 -1
outer loop
vertex -0.1296827565 0.3783944802 0.9
vertex -0.2448636989 0.435937804 0.9
vertex -0.09124319523 0.4916041897 0.9
endloop
endfacet
facet normal 0 0 -1
outer loop
vertex -0.4846184523 -0.1230648433 0.9
vertex -0.3660349376 -0.1613022766 0.9
vertex -0.4165903929 -0.2765003517 0.9
endloop
endfacet
facet normal 0 0 -1
outer loop
vertex -0.1656368731 -0.4717673434 0.9
vertex -0.06596213337 -0.3945237597 0.9
vertex 0 -0.5 0.9
endloop
endfacet
facet normal 0 0 1
outer loop
vertex 0.1641799889 0.4722763293 1
vertex 0 0.5 1
vertex 0.03184576748 0.3987302937 1
endloop
endfacet
facet normal 0 0 1
outer loop
vertex 0.4211778792 0.2694609324 1
vertex 0.3098302957 0.3924349473 1
vertex 0.2706098964 0.2945679616 1
endloop
endfacet
facet normal 0 0 1
outer loop
vertex 0.4975026711 -0.04991084258 1
vertex 0.486160709 0.1168236494 1
vertex 0.3946287265 0.06533121933 1
endloop
endfacet
facet normal 0 -0 1
outer loop
vertex 0.3595454738 -0.3474579863 1
vertex 0.4537019021 -0.2101299218 1
vertex 0.3517358426 -0.1904780749 1
endloop
endfacet
facet normal 0 0 1
outer loop
vertex 0.06606678402 -0.4956159602 1
vertex 0.2257010929 -0.4461603038 1
vertex 0.1598793449 -0.3666586902 1
endloop
endfacet
facet normal -0 0 1
outer loop
vertex -0.2467581202 -0.4348682906 1
vertex -0.09096969344 -0.4916548737 1
vertex -0.09881133788 -0.3876033017 1
endloop
endfacet
facet normal 0 0 1
outer loop
vertex -0.4631990441 -0.1882727954 1
vertex -0.3757820281 -0.3298300583 1
vertex -0.3158010028 -0.245498934 1
endloop
endfacet
facet normal 0 0 1
outer loop
vertex -0.4828564609 0.1298061561 1
vertex -0.4993006986 -0.02643505988 1
vertex -0.4 0 1
endloop
endfacet
facet normal 0 0 1
outer loop
vertex -0.3006838687 0.3994861839 1
vertex -0.4137717306 0.2807008282 1
vertex -0.3158018777 0.2454978086 1
endloop
endfacet
facet normal 0 0 1
outer loop
vertex 0 0.5 1
vertex -0.1617172818 0.4731252696 1
vertex -0.09881285778 0.3876029143 1
endloop
endfacet
facet normal 0 -0 1
outer loop
vertex -0.4 0 1
vertex -0.3785534247 0.1292180507 1
vertex -0.4828564609 0.1298061561 1
endloop
endfacet
facet normal 0 -0 1
outer loop
vertex -0.3785534247 0.1292180507 1
vertex -0.3158018777 0.2454978086 1
vertex -0.4137717306 0.2807008282 1
endloop
endfacet
facet normal 0 0 1
outer loop
vertex -0.3158018777 0.2454978086 1
vertex -0.2187453546 0.3348887425 1
vertex -0.3006838687 0.3994861839 1
endloop
endfacet
facet normal 0 0 1
outer loop
vertex -0.2187453546 0.3348887425 1
vertex -0.09881285778 0.3876029143 1
vertex -0.1617172818 0.4731252696 1
endloop
endfacet
facet normal 0 0 1
outer loop
vertex -0.09881285778 0.3876029143 1
vertex 0.03184576748 0.3987302937 1
vertex 0 0.5 1
endloop
endfacet
facet normal -0 0 1
outer loop
vertex 0.03184576748 0.3987302937 1
vertex 0.1598777264 0.3666593959 1
vertex 0.1641799889 0.4722763293 1
endloop
endfacet
facet normal -0 0 1
outer loop
vertex 0.1598777264 0.3666593959 1
vertex 0.2706098964 0.2945679616 1
vertex 0.3098302957 0.3924349473 1
endloop
endfacet
facet normal 0 0 1
outer loop
vertex 0.2706098964 0.2945679616 1
vertex 0.3518138323 0.1903339891 1
vertex 0.4211778792 0.2694609324 1
endloop
endfacet
facet normal 0 0 1
outer loop
vertex 0.3518138323 0.1903339891 1
vertex 0.3946287265 0.06533121933 1
vertex 0.486160709 0.1168236494 1
endloop
endfacet
facet normal 0 0 1
outer loop
vertex 0.3946287265 0.06533121933 1
vertex 0.3944244339 -0.06655348186 1
vertex 0.4975026711 -0.04991084258 1
endloop
endfacet
facet normal 0 0 1
outer loop
vertex 0.3944244339 -0.06655348186 1
vertex 0.3517358426 -0.1904780749 1
vertex 0.4537019021 -0.2101299218 1
endloop
endfacet
facet normal 0 0 1
outer loop
vertex 0.3517358426 -0.1904780749 1
vertex 0.2704891932 -0.294678802 1
vertex 0.3595454738 -0.3474579863 1
endloop
endfacet
facet normal 0 0 1
outer loop
vertex 0.2704891932 -0.294678802 1
vertex 0.1598793449 -0.3666586902 1
vertex 0.2257010929 -0.4461603038 1
endloop
endfacet
facet normal 0 0 1
outer loop
vertex 0.1598793449 -0.3666586902 1
vertex 0.03198801378 -0.3987189072 1
vertex 0.06606678402 -0.4956159602 1
endloop
endfacet
facet normal 0 0 1
outer loop
vertex 0.03198801378 -0.3987189072 1
vertex -0.09881133788 -0.3876033017 1
vertex -0.09096969344 -0.4916548737 1
endloop
endfacet
facet normal 0 0 1
outer loop
vertex -0.09881133788 -0.3876033017 1
vertex -0.2186259811 -0.3349666855 1
vertex -0.2467581202 -0.4348682906 1
endloop
endfacet
facet normal 0 0 1
outer loop
vertex -0.2186259811 -0.3349666855 1
vertex -0.3158010028 -0.245498934 1
vertex -0.3757820281 -0.3298300583 1
endloop
endfacet
facet normal 0 0 1
outer loop
vertex -0.3158010028 -0.245498934 1
vertex -0.378452247 -0.1295140794 1
vertex -0.4631990441 -0.1882727954 1
endloop
endfacet
facet normal 0 0 1
outer loop
vertex -0.378452247 -0.1295140794 1
vertex -0.4 0 1
vertex -0.4993006986 -0.02643505988 1
endloop
endfacet
facet normal 0 0 1
outer loop
vertex 0.1598777264 0.3666593959 1
vertex 0.3098302957 0.3924349473 1
vertex 0.1641799889 0.4722763293 1
endloop
endfacet
facet normal 0 0 1
outer loop
vertex 0.4211778792 0.2694609324 1
vertex 0.3518138323 0.1903339891 1
vertex 0.486160709 0.1168236494 1
endloop
endfacet
facet normal 0 0 1
outer loop
vertex 0.4975026711 -0.04991084258 1
vertex 0.3944244339 -0.06655348186 1
vertex 0.4537019021 -0.2101299218 1
endloop
endfacet
facet normal 0 0 1
outer loop
vertex 0.3595454738 -0.3474579863 1
vertex 0.2704891932 -0.294678802 1
vertex 0.2257010929 -0.4461603038 1
endloop
endfacet
facet normal 0 0 1
outer loop
vertex 0.06606678402 -0.4956159602 1
vertex 0.03198801378 -0.3987189072 1
vertex -0.09096969344 -0.4916548737 1
endloop
endfacet
facet normal 0 -0 1
outer loop
vertex -0.2467581202 -0.4348682906 1
vertex -0.2186259811 -0.3349666855 1
vertex -0.3757820281 -0.3298300583 1
endloop
endfacet
facet normal 0 -0 1
outer loop
vertex -0.4631990441 -0.1882727954 1
vertex -0.378452247 -0.1295140794 1
vertex -0.4993006986 -0.02643505988 1
endloop
endfacet
facet normal -0 0 1
outer loop
vertex -0.3006838687 0.3994861839 1
vertex -0.2187453546 0.3348887425 1
vertex -0.1617172818 0.4731252696 1
endloop
endfacet
facet normal 0 0 1
outer loop
vertex -0.3785534247 0.1292180507 1
vertex -0.4137717306 0.2807008282 1
vertex -0.4828564609 0.1298061561 1
endloop
endfacet
facet normal -0.1642057821 0.9856119495 -0.04006926743
outer loop
vertex 0 0.4 0.9
vertex -0.1296827565 0.3783944802 0.9
vertex -0.09881285778 0.3876029143 1
endloop
endfacet
facet normal -0.4760945369 0.8783968159 -0.04186914895
outer loop
vertex -0.1296827565 0.3783944802 0.9
vertex -0.2462547038 0.3152120253 0.9
vertex -0.2187453546 0.3348887425 1
endloop
endfacet
facet normal -0.7360129184 0.6757374249 -0.04079113221
outer loop
vertex -0.2462547038 0.3152120253 0.9
vertex -0.3350546189 0.2184911951 0.9
vertex -0.3158018777 0.2454978086 1
endloop
endfacet
facet normal -0.9152785542 0.4007974534 -0.04033075148
outer loop
vertex -0.3350546189 0.2184911951 0.9
vertex -0.3877981952 0.0980436628 0.9
vertex -0.3785534247 0.1292180507 1
endloop
endfacet
facet normal -0.9957835492 0.08201528389 -0.04109277672
outer loop
vertex -0.3877981952 0.0980436628 0.9
vertex -0.3986137522 -0.03327276036 0.9
vertex -0.4 0 1
endloop
endfacet
facet normal -0.9682647194 -0.246387846 -0.0419101712
outer loop
vertex -0.3986137522 -0.03327276036 0.9
vertex -0.3660349376 -0.1613022766 0.9
vertex -0.378452247 -0.1295140794 1
endloop
endfacet
facet normal -0.8360217228 -0.5471816552 -0.04074205655
outer loop
vertex -0.3660349376 -0.1613022766 0.9
vertex -0.2943057769 -0.270895016 0.9
vertex -0.3158010028 -0.245498934 1
endloop
endfacet
facet normal -0.6137461161 -0.7884540042 -0.04069383644
outer loop
vertex -0.2943057769 -0.270895016 0.9
vertex -0.1903955411 -0.3517805252 0.9
vertex -0.2186259811 -0.3349666855 1
endloop
endfacet
facet normal -0.3245944825 -0.9449541689 -0.04123154932
outer loop
vertex -0.1903955411 -0.3517805252 0.9
vertex -0.06596213337 -0.3945237597 0.9
vertex -0.09881133788 -0.3876033017 1
endloop
endfacet
facet normal 0.0002347328729 -0.9991115142 -0.04214412318
outer loop
vertex -0.06596213337 -0.3945237597 0.9
vertex 0.06614750617 -0.3944927216 0.9
vertex 0.03198801378 -0.3987189072 1
endloop
endfacet
facet normal 0.325196609 -0.9447195193 -0.04185923283
outer loop
vertex 0.06614750617 -0.3944927216 0.9
vertex 0.1906848667 -0.3516237785 0.9
vertex 0.1598793449 -0.3666586902 1
endloop
endfacet
facet normal 0.6140806498 -0.7881649608 -0.04124257526
outer loop
vertex 0.1906848667 -0.3516237785 0.9
vertex 0.2943223462 -0.2708770136 0.9
vertex 0.2704891932 -0.294678802 1
endloop
endfacet
facet normal 0.8360762983 -0.5471440372 -0.04012263607
outer loop
vertex 0.2943223462 -0.2708770136 0.9
vertex 0.3660448825 -0.1612797074 0.9
vertex 0.3517358426 -0.1904780749 1
endloop
endfacet
facet normal 0.9682982645 -0.2463326666 -0.04145706651
outer loop
vertex 0.3660448825 -0.1612797074 0.9
vertex 0.3986158124 -0.03324806878 0.9
vertex 0.3944244339 -0.06655348186 1
endloop
endfacet
facet normal 0.9957524008 0.08224915743 -0.04137912998
outer loop
vertex 0.3986158124 -0.03324806878 0.9
vertex 0.3877579899 0.09820255206 0.9
vertex 0.3946287265 0.06533121933 1
endloop
endfacet
facet normal 0.9152033095 0.4009576413 -0.04044591641
outer loop
vertex 0.3877579899 0.09820255206 0.9
vertex 0.3350667701 0.2184725603 0.9
vertex 0.3518138323 0.1903339891 1
endloop
endfacet
facet normal 0.7359326458 0.675875052 -0.0399506571
outer loop
vertex 0.3350667701 0.2184725603 0.9
vertex 0.2461389409 0.3153024291 0.9
vertex 0.2706098964 0.2945679616 1
endloop
endfacet
facet normal 0.4772574094 0.8778901406 -0.03916971079
outer loop
vertex 0.2461389409 0.3153024291 0.9
vertex 0.1307783202 0.3780172363 0.9
vertex 0.1598777264 0.3666593959 1
endloop
endfacet
facet normal 0.1656320312 0.9853664964 -0.0402355308
outer loop
vertex 0.1307783202 0.3780172363 0.9
vertex 0 0.4 0.9
vertex 0.03184576748 0.3987302937 1
endloop
endfacet
facet normal -0.985710356 0.163600296 0.04012526883
outer loop
vertex -0.4 0 1
vertex -0.3785534247 0.1292180507 1
vertex -0.3877981952 0.0980436628 0.9
endloop
endfacet
facet normal -0.8792855245 0.4745153233 0.04113604709
outer loop
vertex -0.3785534247 0.1292180507 1
vertex -0.3158018777 0.2454978086 1
vertex -0.3350546189 0.2184911951 0.9
endloop
endfacet
facet normal -0.6768761674 0.7349206964 0.0415959611
outer loop
vertex -0.3158018777 0.2454978086 1
vertex -0.2187453546 0.3348887425 1
vertex -0.2462547038 0.3152120253 0.9
endloop
endfacet
facet normal -0.4020595145 0.9147445521 0.03988171632
outer loop
vertex -0.2187453546 0.3348887425 1
vertex -0.09881285778 0.3876029143 1
vertex -0.1296827565 0.3783944802 0.9
endloop
endfacet
facet normal -0.08478988014 0.9956099056 0.03964331003
outer loop
vertex -0.09881285778 0.3876029143 1
vertex 0.03184576748 0.3987302937 1
vertex 0 0.4 0.9
endloop
endfacet
facet normal 0.2427951577 0.9692756305 0.03943683027
outer loop
vertex 0.03184576748 0.3987302937 1
vertex 0.1598777264 0.3666593959 1
vertex 0.1307783202 0.3780172363 0.9
endloop
endfacet
facet normal 0.5451614194 0.8373658746 0.04021714683
outer loop
vertex 0.1598777264 0.3666593959 1
vertex 0.2706098964 0.2945679616 1
vertex 0.2461389409 0.3153024291 0.9
endloop
endfacet
facet normal 0.7882075352 0.6140565562 0.04078513479
outer loop
vertex 0.2706098964 0.2945679616 1
vertex 0.3518138323 0.1903339891 1
vertex 0.3350667701 0.2184725603 0.9
endloop
endfacet
facet normal 0.9452320708 0.3237529151 0.04147749254
outer loop
vertex 0.3518138323 0.1903339891 1
vertex 0.3946287265 0.06533121933 1
vertex 0.3877579899 0.09820255206 0.9
endloop
endfacet
facet normal 0.9991430111 -0.001547696809 0.04136239893
outer loop
vertex 0.3946287265 0.06533121933 1
vertex 0.3944244339 -0.06655348186 1
vertex 0.3986158124 -0.03324806878 0.9
endloop
endfacet
facet normal 0.9447137057 -0.3254277159 0.04015988019
outer loop
vertex 0.3944244339 -0.06655348186 1
vertex 0.3517358426 -0.1904780749 1
vertex 0.3660448825 -0.1612797074 0.9
endloop
endfacet
facet normal 0.7879307411 -0.6143597502 0.04156013158
outer loop
vertex 0.3517358426 -0.1904780749 1
vertex 0.2704891932 -0.294678802 1
vertex 0.2943223462 -0.2708770136 0.9
endloop
endfacet
facet normal 0.5449523905 -0.8374158783 0.04197068997
outer loop
vertex 0.2704891932 -0.294678802 1
vertex 0.1598793449 -0.3666586902 1
vertex 0.1906848667 -0.3516237785 0.9
endloop
endfacet
facet normal 0.2429444688 -0.9691291691 0.04203140016
outer loop
vertex 0.1598793449 -0.3666586902 1
vertex 0.03198801378 -0.3987189072 1
vertex 0.06614750617 -0.3944927216 0.9
endloop
endfacet
facet normal -0.08460532996 -0.9955663063 0.04110556991
outer loop
vertex 0.03198801378 -0.3987189072 1
vertex -0.09881133788 -0.3876033017 1
vertex -0.06596213337 -0.3945237597 0.9
endloop
endfacet
facet normal -0.4018870007 -0.9147994505 0.04035844494
outer loop
vertex -0.09881133788 -0.3876033017 1
vertex -0.2186259811 -0.3349666855 1
vertex -0.1903955411 -0.3517805252 0.9
endloop
endfacet
facet normal -0.6767548497 -0.735054432 0.04120504194
outer loop
vertex -0.2186259811 -0.3349666855 1
vertex -0.3158010028 -0.245498934 1
vertex -0.2943057769 -0.270895016 0.9
endloop
endfacet
facet normal -0.8790752443 -0.4748478404 0.04178807554
outer loop
vertex -0.3158010028 -0.245498934 1
vertex -0.378452247 -0.1295140794 1
vertex -0.3660349376 -0.1613022766 0.9
endloop
endfacet
facet normal -0.9856154069 -0.1639806071 0.04089780223
outer loop
vertex -0.378452247 -0.1295140794 1
vertex -0.4 0 1
vertex -0.3986137522 -0.03327276036 0.9
endloop
endfacet
endsolid
