solid
facet normal -0.9659977338 -0.1353994244 0.220262058
outer loop
vertex -0.3 -0.9 -0.3
vertex -0.2672323246 -0.9 -0.1562916353
vertex -0.2952332023 -0.7747538592 -0.2021031071
endloop
endfacet
facet normal -0.3530175848 -0.3661222658 0.86100701
outer loop
vertex -0.1734266246 -0.9 -0.04196639781
vertex -0.03756045614 -0.9 0.01373947461
vertex -0.1094940831 -0.7893642118 0.03129146896
endloop
endfacet
facet normal 0.1202955186 -0.3847069044 0.9151664253
outer loop
vertex -0.03756045614 -0.9 0.01373947461
vertex 0.1095055025 -0.9 -0.005591846213
vertex 0.04498255239 -0.787823437 0.0500449414
endloop
endfacet
facet normal 0.5657521952 -0.3257071599 0.7575218146
outer loop
vertex 0.1095055025 -0.9 -0.005591846213
vertex 0.2271942463 -0.9 -0.09348722277
vertex 0.1854623703 -0.787410728 -0.01391059365
endloop
endfacet
facet normal 0.998082381 -0.06189959974 -1.616572134e-05
outer loop
vertex 0.2917359354 -0.9 -0.2262877669
vertex 0.2917335475 -0.9 -0.3737227335
vertex 0.2996379346 -0.7725742615 -0.2730563754
endloop
endfacet
facet normal 0.5867699674 0.1970532649 -0.7854113675
outer loop
vertex 0.2272602595 -0.9 -0.5064320562
vertex 0.1094960736 -0.9 -0.5944120504
vertex 0.16232104 -0.76665486 -0.5214920477
endloop
endfacet
facet normal -0.3665232974 0.2310062636 -0.9012750849
outer loop
vertex -0.03594952337 -0.9 -0.6139490967
vertex -0.1734048232 -0.9 -0.5580498817
vertex -0.09866609881 -0.7676786706 -0.5545286791
endloop
endfacet
facet normal -0.9749146077 0.01501467173 -0.2220722119
outer loop
vertex -0.2672944607 -0.9 -0.4435799091
vertex -0.3 -0.9 -0.3
vertex -0.2862132254 -0.7711517656 -0.3518133896
endloop
endfacet
facet normal -0.9948512991 0.08315045949 -0.0579387062
outer loop
vertex -0.3 -0.9 -0.3
vertex -0.2952332023 -0.7747538592 -0.2021031071
vertex -0.2862132254 -0.7711517656 -0.3518133896
endloop
endfacet
facet normal 0.974716601 -0.01281412497 0.2230769954
outer loop
vertex 0.3 1.2 0.4
vertex 0.2670014751 1.2 0.544184343
vertex 0.2858331081 1.076298634 0.4547953406
endloop
endfacet
facet normal 0.3696747226 -0.2224660473 0.9021360525
outer loop
vertex 0.1733590857 1.2 0.6580840247
vertex 0.03753055392 1.2 0.7137434506
vertex 0.101328203 1.084208563 0.6590465549
endloop
endfacet
facet normal -0.5850267794 -0.1939240285 0.7874878657
outer loop
vertex -0.1086126997 1.2 0.6947753975
vertex -0.22684207 1.2 0.6069424914
vertex -0.1645203386 1.071457596 0.6215870612
endloop
endfacet
facet normal -0.9981446074 0.06088794453 2.955295609e-05
outer loop
vertex -0.2915464705 1.2 0.4745404852
vertex -0.2915508839 1.2 0.3254786973
vertex -0.2993953897 1.071378816 0.3771928451
endloop
endfacet
facet normal -0.5643608911 0.3279852225 -0.7575767146
outer loop
vertex -0.2270051355 1.2 0.193256282
vertex -0.1091072214 1.2 0.10542759
vertex -0.1826493644 1.088796253 0.1120686649
endloop
endfacet
facet normal -0.1208183078 0.3893633798 -0.9131260017
outer loop
vertex -0.1091072214 1.2 0.10542759
vertex 0.03665430985 1.2 0.08614146575
vertex -0.03844636064 1.095798008 0.05164578404
endloop
endfacet
facet normal 0.3517032743 0.3675179072 -0.8609502859
outer loop
vertex 0.03665430985 1.2 0.08614146575
vertex 0.1735664569 1.2 0.1420708861
vertex 0.1144611101 1.090612453 0.07123122498
endloop
endfacet
facet normal 0.7440394312 0.2724846704 -0.6100470713
outer loop
vertex 0.1735664569 1.2 0.1420708861
vertex 0.2672537417 1.2 0.256335895
vertex 0.2401626318 1.087033645 0.1728366761
endloop
endfacet
facet normal 0.9659015171 0.1362427354 -0.2201639761
outer loop
vertex 0.2672537417 1.2 0.256335895
vertex 0.3 1.2 0.4
vertex 0.2960528645 1.081566832 0.309393883
endloop
endfacet
facet normal 0.9942005207 -0.08425921265 0.06682596624
outer loop
vertex 0.3 1.2 0.4
vertex 0.2858331081 1.076298634 0.4547953406
vertex 0.2960528645 1.081566832 0.309393883
endloop
endfacet
facet normal -0.597804748 -0.1728703971 0.7827804986
outer loop
vertex -0.1734266246 -0.9 -0.04196639781
vertex -0.1094940831 -0.7893642118 0.03129146896
vertex -0.2327542356 -0.7825615532 -0.06133925725
endloop
endfacet
facet normal -0.7432903577 -0.2748885839 0.6098817185
outer loop
vertex -0.2672323246 -0.9 -0.1562916353
vertex -0.1734266246 -0.9 -0.04196639781
vertex -0.2327542356 -0.7825615532 -0.06133925725
endloop
endfacet
facet normal -0.1150916793 -0.2282080956 0.9667858969
outer loop
vertex -0.03756045614 -0.9 0.01373947461
vertex 0.04498255239 -0.787823437 0.0500449414
vertex -0.1094940831 -0.7893642118 0.03129146896
endloop
endfacet
facet normal 0.4057891571 -0.2080032024 0.8899830492
outer loop
vertex 0.1095055025 -0.9 -0.005591846213
vertex 0.1854623703 -0.787410728 -0.01391059365
vertex 0.04498255239 -0.787823437 0.0500449414
endloop
endfacet
facet normal 0.879709023 -0.2081327813 0.4275427232
outer loop
vertex 0.2271942463 -0.9 -0.09348722277
vertex 0.2917359354 -0.9 -0.2262877669
vertex 0.275100684 -0.7814377386 -0.1343416949
endloop
endfacet
facet normal 0.8959759248 0.08805235477 -0.4352860266
outer loop
vertex 0.2917335475 -0.9 -0.3737227335
vertex 0.2272602595 -0.9 -0.5064320562
vertex 0.2569336639 -0.7634451402 -0.4177303049
endloop
endfacet
facet normal 0.1289687954 0.2480589402 -0.9601217693
outer loop
vertex 0.1094960736 -0.9 -0.5944120504
vertex -0.03594952337 -0.9 -0.6139490967
vertex 0.0357802579 -0.7711959077 -0.5710358835
endloop
endfacet
facet normal -0.7647679931 0.1471732404 -0.6272718342
outer loop
vertex -0.1734048232 -0.9 -0.5580498817
vertex -0.2672944607 -0.9 -0.4435799091
vertex -0.2173693282 -0.7632553363 -0.4723648587
endloop
endfacet
facet normal 0.764631953 -0.1419471195 0.6286405902
outer loop
vertex 0.2670014751 1.2 0.544184343
vertex 0.1733590857 1.2 0.6580840247
vertex 0.2159020688 1.077033037 0.5785719295
endloop
endfacet
facet normal -0.124864392 -0.2426552375 0.9620433043
outer loop
vertex 0.03753055392 1.2 0.7137434506
vertex -0.1086126997 1.2 0.6947753975
vertex -0.03879474421 1.079964226 0.6735606221
endloop
endfacet
facet normal -0.8953231005 -0.08339164201 0.4375412891
outer loop
vertex -0.22684207 1.2 0.6069424914
vertex -0.2915464705 1.2 0.4745404852
vertex -0.2576860646 1.073212588 0.5196630681
endloop
endfacet
facet normal -0.7986015534 0.1130474587 -0.5911478927
outer loop
vertex -0.2270051355 1.2 0.193256282
vertex -0.1826493644 1.088796253 0.1120686649
vertex -0.2762103895 1.081371135 0.2370434644
endloop
endfacet
facet normal -0.8793144043 0.206285332 -0.4292464795
outer loop
vertex -0.2915508839 1.2 0.3254786973
vertex -0.2270051355 1.2 0.193256282
vertex -0.2762103895 1.081371135 0.2370434644
endloop
endfacet
facet normal -0.3868156448 0.2020794362 -0.8997430513
outer loop
vertex -0.1091072214 1.2 0.10542759
vertex -0.03844636064 1.095798008 0.05164578404
vertex -0.1826493644 1.088796253 0.1120686649
endloop
endfacet
facet normal 0.1312947204 0.2249897918 -0.9654746449
outer loop
vertex 0.03665430985 1.2 0.08614146575
vertex 0.1144611101 1.090612453 0.07123122498
vertex -0.03844636064 1.095798008 0.05164578404
endloop
endfacet
facet normal 0.6233650976 0.1589808651 -0.7655984846
outer loop
vertex 0.1735664569 1.2 0.1420708861
vertex 0.2401626318 1.087033645 0.1728366761
vertex 0.1144611101 1.090612453 0.07123122498
endloop
endfacet
facet normal 0.9248046857 0.05632289036 -0.3762499505
outer loop
vertex 0.2672537417 1.2 0.256335895
vertex 0.2960528645 1.081566832 0.309393883
vertex 0.2401626318 1.087033645 0.1728366761
endloop
endfacet
facet normal -0.9136904298 -0.05709136834 0.4023808821
outer loop
vertex -0.2952332023 -0.7747538592 -0.2021031071
vertex -0.2672323246 -0.9 -0.1562916353
vertex -0.2327542356 -0.7825615532 -0.06133925725
endloop
endfacet
facet normal 0.7992292032 -0.1200048239 0.5889240384
outer loop
vertex 0.2271942463 -0.9 -0.09348722277
vertex 0.275100684 -0.7814377386 -0.1343416949
vertex 0.1854623703 -0.787410728 -0.01391059365
endloop
endfacet
facet normal 0.9501255284 0.1548996063 -0.2706798704
outer loop
vertex 0.2996379346 -0.7725742615 -0.2730563754
vertex 0.2917335475 -0.9 -0.3737227335
vertex 0.2569336639 -0.7634451402 -0.4177303049
endloop
endfacet
facet normal 0.33084991 0.348507033 -0.876972739
outer loop
vertex 0.16232104 -0.76665486 -0.5214920477
vertex 0.1094960736 -0.9 -0.5944120504
vertex 0.0357802579 -0.7711959077 -0.5710358835
endloop
endfacet
facet normal -0.5309531429 0.3207691149 -0.7843442707
outer loop
vertex -0.09866609881 -0.7676786706 -0.5545286791
vertex -0.1734048232 -0.9 -0.5580498817
vertex -0.2173693282 -0.7632553363 -0.4723648587
endloop
endfacet
facet normal 0.106730475 -0.3759938807 0.9204548915
outer loop
vertex 0.101328203 1.084208563 0.6590465549
vertex 0.03753055392 1.2 0.7137434506
vertex -0.03879474421 1.079964226 0.6735606221
endloop
endfacet
facet normal -0.7126404146 -0.2718325028 0.6467230705
outer loop
vertex -0.1645203386 1.071457596 0.6215870612
vertex -0.22684207 1.2 0.6069424914
vertex -0.2576860646 1.073212588 0.5196630681
endloop
endfacet
facet normal -0.9865109347 -0.005611061644 -0.1635991797
outer loop
vertex -0.2993953897 1.071378816 0.3771928451
vertex -0.2915508839 1.2 0.3254786973
vertex -0.2762103895 1.081371135 0.2370434644
endloop
endfacet
facet normal -0.8545225217 0.2121858114 -0.4740975019
outer loop
vertex -0.2173693282 -0.7632553363 -0.4723648587
vertex -0.2672944607 -0.9 -0.4435799091
vertex -0.2862132254 -0.7711517656 -0.3518133896
endloop
endfacet
facet normal 0.5302510544 -0.3233404525 0.7837632111
outer loop
vertex 0.2159020688 1.077033037 0.5785719295
vertex 0.1733590857 1.2 0.6580840247
vertex 0.101328203 1.084208563 0.6590465549
endloop
endfacet
facet normal -0.3374149139 -0.3506541334 0.8736090971
outer loop
vertex -0.03879474421 1.079964226 0.6735606221
vertex -0.1086126997 1.2 0.6947753975
vertex -0.1645203386 1.071457596 0.6215870612
endloop
endfacet
facet normal -0.9477841819 -0.1536656953 0.2794494563
outer loop
vertex -0.2576860646 1.073212588 0.5196630681
vertex -0.2915464705 1.2 0.4745404852
vertex -0.2993953897 1.071378816 0.3771928451
endloop
endfacet
facet normal -0.1039693219 0.3660072646 -0.9247859549
outer loop
vertex 0.0357802579 -0.7711959077 -0.5710358835
vertex -0.03594952337 -0.9 -0.6139490967
vertex -0.09866609881 -0.7676786706 -0.5545286791
endloop
endfacet
facet normal 0.707177492 0.2706244746 -0.65319399
outer loop
vertex 0.2569336639 -0.7634451402 -0.4177303049
vertex 0.2272602595 -0.9 -0.5064320562
vertex 0.16232104 -0.76665486 -0.5214920477
endloop
endfacet
facet normal 0.9846763582 0.002934970872 0.1743670138
outer loop
vertex 0.275100684 -0.7814377386 -0.1343416949
vertex 0.2917359354 -0.9 -0.2262877669
vertex 0.2996379346 -0.7725742615 -0.2730563754
endloop
endfacet
facet normal 0.8490925516 -0.2183286947 0.4810139498
outer loop
vertex 0.2670014751 1.2 0.544184343
vertex 0.2159020688 1.077033037 0.5785719295
vertex 0.2858331081 1.076298634 0.4547953406
endloop
endfacet
facet normal 0.7812895957 -0.2570665391 0.5687735597
outer loop
vertex 0.1854623703 -0.787410728 -0.01391059365
vertex 0.275100684 -0.7814377386 -0.1343416949
vertex 0.2486264737 -0.6595391152 -0.04288160258
endloop
endfacet
facet normal 0.8643469397 -0.1172662682 0.4890327087
outer loop
vertex 0.2858331081 1.076298634 0.4547953406
vertex 0.2159020688 1.077033037 0.5785719295
vertex 0.2416854925 0.9342648281 0.4987659825
endloop
endfacet
facet normal 0.345980292 0.2437790389 -0.9060184423
outer loop
vertex 0.16232104 -0.76665486 -0.5214920477
vertex 0.0357802579 -0.7711959077 -0.5710358835
vertex 0.09622825077 -0.6368970105 -0.5118173646
endloop
endfacet
facet normal -0.5526880211 0.1993036227 -0.8092057942
outer loop
vertex -0.09866609881 -0.7676786706 -0.5545286791
vertex -0.2173693282 -0.7632553363 -0.4723648587
vertex -0.1547433498 -0.6461448137 -0.486294661
endloop
endfacet
facet normal 0.7264470672 0.1636409056 -0.6674551015
outer loop
vertex 0.2569336639 -0.7634451402 -0.4177303049
vertex 0.16232104 -0.76665486 -0.5214920477
vertex 0.2082812345 -0.6342235306 -0.4390013588
endloop
endfacet
facet normal 0.5109136696 0.3197318043 -0.797959144
outer loop
vertex 0.16232104 -0.76665486 -0.5214920477
vertex 0.09622825077 -0.6368970105 -0.5118173646
vertex 0.2082812345 -0.6342235306 -0.4390013588
endloop
endfacet
facet normal 0.1072390651 -0.247654897 0.962895028
outer loop
vertex 0.101328203 1.084208563 0.6590465549
vertex -0.03879474421 1.079964226 0.6735606221
vertex 0.02650616748 0.9658097898 0.6369276425
endloop
endfacet
facet normal 0.5511681468 -0.2214846415 0.8044614519
outer loop
vertex 0.2159020688 1.077033037 0.5785719295
vertex 0.101328203 1.084208563 0.6590465549
vertex 0.1401332378 0.9368041683 0.5918762655
endloop
endfacet
facet normal 0.6447635788 -0.2809346406 0.7108837143
outer loop
vertex 0.2416854925 0.9342648281 0.4987659825
vertex 0.2159020688 1.077033037 0.5785719295
vertex 0.1401332378 0.9368041683 0.5918762655
endloop
endfacet
facet normal 0.2705863669 -0.3393040267 0.9009194168
outer loop
vertex 0.101328203 1.084208563 0.6590465549
vertex 0.02650616748 0.9658097898 0.6369276425
vertex 0.1401332378 0.9368041683 0.5918762655
endloop
endfacet
facet normal -0.7287869019 -0.1702781683 0.6632307269
outer loop
vertex -0.1645203386 1.071457596 0.6215870612
vertex -0.2576860646 1.073212588 0.5196630681
vertex -0.1978161173 0.9422874444 0.5518369993
endloop
endfacet
facet normal -0.982050541 0.1078025044 -0.1547751753
outer loop
vertex -0.2993953897 1.071378816 0.3771928451
vertex -0.2762103895 1.081371135 0.2370434644
vertex -0.2987749845 0.9483576168 0.2875708327
endloop
endfacet
facet normal -0.1111856986 0.2562909657 -0.9601836706
outer loop
vertex 0.0357802579 -0.7711959077 -0.5710358835
vertex -0.09866609881 -0.7676786706 -0.5545286791
vertex -0.03775518592 -0.64685506 -0.5293318566
endloop
endfacet
facet normal 0.09382605936 0.3660242849 -0.9258633233
outer loop
vertex 0.09622825077 -0.6368970105 -0.5118173646
vertex 0.0357802579 -0.7711959077 -0.5710358835
vertex -0.03775518592 -0.64685506 -0.5293318566
endloop
endfacet
facet normal -0.3220630157 0.3461245438 -0.8811771752
outer loop
vertex -0.09866609881 -0.7676786706 -0.5545286791
vertex -0.1547433498 -0.6461448137 -0.486294661
vertex -0.03775518592 -0.64685506 -0.5293318566
endloop
endfacet
facet normal -0.3742720552 0.3698671303 -0.8503638836
outer loop
vertex -0.1826493644 1.088796253 0.1120686649
vertex -0.03844636064 1.095798008 0.05164578404
vertex -0.1214145284 0.9770308614 0.03650474
endloop
endfacet
facet normal -0.5790437182 -0.3279568514 0.7464266046
outer loop
vertex -0.2327542356 -0.7825615532 -0.06133925725
vertex -0.1094940831 -0.7893642118 0.03129146896
vertex -0.1761916811 -0.6642004116 0.0345436316
endloop
endfacet
facet normal -0.1070028051 -0.3922114922 0.9136304204
outer loop
vertex -0.1094940831 -0.7893642118 0.03129146896
vertex 0.04498255239 -0.787823437 0.0500449414
vertex -0.02712956623 -0.6760534913 0.08958090411
endloop
endfacet
facet normal 0.3865903732 -0.3653526706 0.8467970887
outer loop
vertex 0.04498255239 -0.787823437 0.0500449414
vertex 0.1854623703 -0.787410728 -0.01391059365
vertex 0.1279916542 -0.6731977483 0.06160412358
endloop
endfacet
facet normal 0.9592253824 0.02379881294 -0.2816385668
outer loop
vertex 0.2996379346 -0.7725742615 -0.2730563754
vertex 0.2569336639 -0.7634451402 -0.4177303049
vertex 0.2813507178 -0.6442122332 -0.3244935731
endloop
endfacet
facet normal 0.8296069242 0.2284891331 -0.509455658
outer loop
vertex 0.2569336639 -0.7634451402 -0.4177303049
vertex 0.2082812345 -0.6342235306 -0.4390013588
vertex 0.2813507178 -0.6442122332 -0.3244935731
endloop
endfacet
facet normal -0.9973638369 -0.03924424903 -0.06103495471
outer loop
vertex -0.2862132254 -0.7711517656 -0.3518133896
vertex -0.2952332023 -0.7747538592 -0.2021031071
vertex -0.2971692226 -0.6404490485 -0.2568221583
endloop
endfacet
facet normal 0.1300156946 0.3887042392 -0.9121430445
outer loop
vertex -0.03844636064 1.095798008 0.05164578404
vertex 0.1144611101 1.090612453 0.07123122498
vertex 0.04953876651 0.9793496862 0.01456332304
endloop
endfacet
facet normal 0.5993492773 0.3286491525 -0.7299110756
outer loop
vertex 0.1144611101 1.090612453 0.07123122498
vertex 0.2401626318 1.087033645 0.1728366761
vertex 0.1977712197 0.9718657377 0.08617256114
endloop
endfacet
facet normal 0.911657744 0.187637579 -0.3656122219
outer loop
vertex 0.2401626318 1.087033645 0.1728366761
vertex 0.2960528645 1.081566832 0.309393883
vertex 0.2802100116 0.9574887179 0.2062108541
endloop
endfacet
facet normal -0.8989647258 -0.2038301481 0.3877056778
outer loop
vertex -0.2952332023 -0.7747538592 -0.2021031071
vertex -0.2327542356 -0.7825615532 -0.06133925725
vertex -0.2774180673 -0.6556773065 -0.09819292039
endloop
endfacet
facet normal -0.9911937306 0.03745920007 0.12701101
outer loop
vertex -0.2971692226 -0.6404490485 -0.2568221583
vertex -0.2952332023 -0.7747538592 -0.2021031071
vertex -0.2774180673 -0.6556773065 -0.09819292039
endloop
endfacet
facet normal -0.7939735294 -0.1055853461 0.5987134283
outer loop
vertex -0.2327542356 -0.7825615532 -0.06133925725
vertex -0.1761916811 -0.6642004116 0.0345436316
vertex -0.2774180673 -0.6556773065 -0.09819292039
endloop
endfacet
facet normal 0.9970079954 0.03016631296 0.07116916913
outer loop
vertex 0.2960528645 1.081566832 0.309393883
vertex 0.2858331081 1.076298634 0.4547953406
vertex 0.2962803717 0.9442742918 0.3644006118
endloop
endfacet
facet normal 0.9168137509 -0.173649834 0.359580702
outer loop
vertex 0.2858331081 1.076298634 0.4547953406
vertex 0.2416854925 0.9342648281 0.4987659825
vertex 0.2962803717 0.9442742918 0.3644006118
endloop
endfacet
facet normal -0.7780983089 0.2716254072 -0.5663767825
outer loop
vertex -0.2762103895 1.081371135 0.2370434644
vertex -0.1826493644 1.088796253 0.1120686649
vertex -0.2422913887 0.9688202875 0.1364673306
endloop
endfacet
facet normal -0.937554194 0.02732382904 -0.3467643894
outer loop
vertex -0.2762103895 1.081371135 0.2370434644
vertex -0.2422913887 0.9688202875 0.1364673306
vertex -0.2987749845 0.9483576168 0.2875708327
endloop
endfacet
facet normal -0.1272323043 0.2123976037 -0.9688649022
outer loop
vertex -0.1214145284 0.9770308614 0.03650474
vertex -0.03844636064 1.095798008 0.05164578404
vertex 0.04953876651 0.9793496862 0.01456332304
endloop
endfacet
facet normal -0.8121577335 -0.2407910153 0.5314315599
outer loop
vertex -0.1978161173 0.9422874444 0.5518369993
vertex -0.2576860646 1.073212588 0.5196630681
vertex -0.2814889148 0.9380550526 0.422046756
endloop
endfacet
facet normal -0.9590376917 -0.03420080358 0.2812063494
outer loop
vertex -0.2576860646 1.073212588 0.5196630681
vertex -0.2993953897 1.071378816 0.3771928451
vertex -0.2814889148 0.9380550526 0.422046756
endloop
endfacet
facet normal -0.6353626933 0.1623180106 -0.7549616622
outer loop
vertex -0.1826493644 1.088796253 0.1120686649
vertex -0.1214145284 0.9770308614 0.03650474
vertex -0.2422913887 0.9688202875 0.1364673306
endloop
endfacet
facet normal 0.9792880519 -0.1162110703 0.1658007797
outer loop
vertex 0.275100684 -0.7814377386 -0.1343416949
vertex 0.2996379346 -0.7725742615 -0.2730563754
vertex 0.2975991106 -0.6544573476 -0.1782251629
endloop
endfacet
facet normal 0.9397706961 -0.04963557463 0.3381824189
outer loop
vertex 0.2486264737 -0.6595391152 -0.04288160258
vertex 0.275100684 -0.7814377386 -0.1343416949
vertex 0.2975991106 -0.6544573476 -0.1782251629
endloop
endfacet
facet normal 0.656667154 -0.1572568097 0.7376032434
outer loop
vertex 0.1854623703 -0.787410728 -0.01391059365
vertex 0.2486264737 -0.6595391152 -0.04288160258
vertex 0.1279916542 -0.6731977483 0.06160412358
endloop
endfacet
facet normal -0.3558129434 -0.2474032386 0.9012151724
outer loop
vertex -0.03879474421 1.079964226 0.6735606221
vertex -0.1645203386 1.071457596 0.6215870612
vertex -0.08586798081 0.9437651777 0.6175858071
endloop
endfacet
facet normal -0.9884672536 -0.09239356479 0.119982989
outer loop
vertex -0.2993953897 1.071378816 0.3771928451
vertex -0.2987749845 0.9483576168 0.2875708327
vertex -0.2814889148 0.9380550526 0.422046756
endloop
endfacet
facet normal -0.3532865685 -0.2119359721 0.9111924847
outer loop
vertex -0.1761916811 -0.6642004116 0.0345436316
vertex -0.1094940831 -0.7893642118 0.03129146896
vertex -0.02712956623 -0.6760534913 0.08958090411
endloop
endfacet
facet normal 0.9937347289 -0.04014387306 -0.1043060783
outer loop
vertex 0.2960528645 1.081566832 0.309393883
vertex 0.2962803717 0.9442742918 0.3644006118
vertex 0.2802100116 0.9574887179 0.2062108541
endloop
endfacet
facet normal -0.8663704482 0.1073308885 -0.4877318186
outer loop
vertex -0.2173693282 -0.7632553363 -0.4723648587
vertex -0.2862132254 -0.7711517656 -0.3518133896
vertex -0.2488402487 -0.6344788245 -0.3881235373
endloop
endfacet
facet normal 0.1769550453 -0.2247749515 0.9582082932
outer loop
vertex 0.04498255239 -0.787823437 0.0500449414
vertex 0.1279916542 -0.6731977483 0.06160412358
vertex -0.02712956623 -0.6760534913 0.08958090411
endloop
endfacet
facet normal 0.9896730503 0.09973944836 -0.1029528821
outer loop
vertex 0.2996379346 -0.7725742615 -0.2730563754
vertex 0.2813507178 -0.6442122332 -0.3244935731
vertex 0.2975991106 -0.6544573476 -0.1782251629
endloop
endfacet
facet normal -0.6760781041 0.2804953052 -0.681352171
outer loop
vertex -0.2173693282 -0.7632553363 -0.4723648587
vertex -0.2488402487 -0.6344788245 -0.3881235373
vertex -0.1547433498 -0.6461448137 -0.486294661
endloop
endfacet
facet normal 0.8253227661 0.1125889103 -0.553322753
outer loop
vertex 0.1977712197 0.9718657377 0.08617256114
vertex 0.2401626318 1.087033645 0.1728366761
vertex 0.2802100116 0.9574887179 0.2062108541
endloop
endfacet
facet normal 0.4346364385 0.1942805959 -0.8794010555
outer loop
vertex 0.04953876651 0.9793496862 0.01456332304
vertex 0.1144611101 1.090612453 0.07123122498
vertex 0.1977712197 0.9718657377 0.08617256114
endloop
endfacet
facet normal -0.09145608467 -0.3513296092 0.93177427
outer loop
vertex -0.03879474421 1.079964226 0.6735606221
vertex -0.08586798081 0.9437651777 0.6175858071
vertex 0.02650616748 0.9658097898 0.6369276425
endloop
endfacet
facet normal -0.4767771053 -0.3193341066 0.8189684489
outer loop
vertex -0.08586798081 0.9437651777 0.6175858071
vertex -0.1645203386 1.071457596 0.6215870612
vertex -0.1978161173 0.9422874444 0.5518369993
endloop
endfacet
facet normal -0.9279928318 0.1650050909 -0.3340697894
outer loop
vertex -0.2488402487 -0.6344788245 -0.3881235373
vertex -0.2862132254 -0.7711517656 -0.3518133896
vertex -0.2971692226 -0.6404490485 -0.2568221583
endloop
endfacet
facet normal 0.8132126399 0.2412826514 -0.529592187
outer loop
vertex 0.1977712197 0.9718657377 0.08617256114
vertex 0.2802100116 0.9574887179 0.2062108541
vertex 0.2563143082 0.8374090179 0.1148095125
endloop
endfacet
facet normal -0.347207307 -0.3747205394 0.8596694733
outer loop
vertex -0.1761916811 -0.6642004116 0.0345436316
vertex -0.02712956623 -0.6760534913 0.08958090411
vertex -0.1098506215 -0.5517995067 0.110332095
endloop
endfacet
facet normal -0.9373533858 0.06636597492 -0.3420002742
outer loop
vertex -0.2488402487 -0.6344788245 -0.3881235373
vertex -0.2971692226 -0.6404490485 -0.2568221583
vertex -0.2695536001 -0.4984347398 -0.3049527608
endloop
endfacet
facet normal -0.6981881953 0.1860375567 -0.6913199487
outer loop
vertex -0.1547433498 -0.6461448137 -0.486294661
vertex -0.2488402487 -0.6344788245 -0.3881235373
vertex -0.1890347496 -0.5018123804 -0.4128220179
endloop
endfacet
facet normal -0.7743134715 0.2400546564 -0.5855018443
outer loop
vertex -0.2488402487 -0.6344788245 -0.3881235373
vertex -0.2695536001 -0.4984347398 -0.3049527608
vertex -0.1890347496 -0.5018123804 -0.4128220179
endloop
endfacet
facet normal 0.9290821238 -0.1672520586 0.3298987059
outer loop
vertex 0.2486264737 -0.6595391152 -0.04288160258
vertex 0.2975991106 -0.6544573476 -0.1782251629
vertex 0.2870981353 -0.5263839438 -0.08372097613
endloop
endfacet
facet normal -0.4899102595 -0.2352222708 0.8394393492
outer loop
vertex -0.08586798081 0.9437651777 0.6175858071
vertex -0.1978161173 0.9422874444 0.5518369993
vertex -0.1188504674 0.8194225739 0.5634942182
endloop
endfacet
facet normal -0.1218645153 0.403445435 -0.9068521494
outer loop
vertex -0.1214145284 0.9770308614 0.03650474
vertex 0.04953876651 0.9793496862 0.01456332304
vertex -0.03706387809 0.8578250775 -0.02786339377
endloop
endfacet
facet normal -0.9917125687 0.008949347878 0.1281643094
outer loop
vertex -0.2814889148 0.9380550526 0.422046756
vertex -0.2987749845 0.9483576168 0.2875708327
vertex -0.2939791828 0.8132357099 0.3341150681
endloop
endfacet
facet normal -0.6168567806 0.3184946254 -0.7197561294
outer loop
vertex -0.2422913887 0.9688202875 0.1364673306
vertex -0.1214145284 0.9770308614 0.03650474
vertex -0.1926338178 0.8461461531 0.03962527678
endloop
endfacet
facet normal 0.1703868183 -0.389966659 0.9049278076
outer loop
vertex -0.02712956623 -0.6760534913 0.08958090411
vertex 0.1279916542 -0.6731977483 0.06160412358
vertex 0.05986205429 -0.5601179968 0.1231623144
endloop
endfacet
facet normal 0.926153114 -0.06534681175 0.3714434057
outer loop
vertex 0.2962803717 0.9442742918 0.3644006118
vertex 0.2416854925 0.9342648281 0.4987659825
vertex 0.2666674347 0.8083810957 0.4143299591
endloop
endfacet
facet normal -0.8329752743 -0.1169327824 0.5408131996
outer loop
vertex -0.1978161173 0.9422874444 0.5518369993
vertex -0.2814889148 0.9380550526 0.422046756
vertex -0.2341027178 0.806506236 0.4665892363
endloop
endfacet
facet normal -0.5914101474 -0.3094519538 0.7446297911
outer loop
vertex -0.1188504674 0.8194225739 0.5634942182
vertex -0.1978161173 0.9422874444 0.5518369993
vertex -0.2341027178 0.806506236 0.4665892363
endloop
endfacet
facet normal -0.898329775 -0.1893686438 0.3964128305
outer loop
vertex -0.2814889148 0.9380550526 0.422046756
vertex -0.2939791828 0.8132357099 0.3341150681
vertex -0.2341027178 0.806506236 0.4665892363
endloop
endfacet
facet normal 0.8414622512 0.1223611231 -0.526278477
outer loop
vertex 0.2813507178 -0.6442122332 -0.3244935731
vertex 0.2082812345 -0.6342235306 -0.4390013588
vertex 0.2385049881 -0.509749109 -0.3617362234
endloop
endfacet
facet normal -0.09925769668 -0.3205476914 0.942017562
outer loop
vertex 0.02650616748 0.9658097898 0.6369276425
vertex -0.08586798081 0.9437651777 0.6175858071
vertex 0.03096789804 0.8329388132 0.5921847147
endloop
endfacet
facet normal -0.1436422164 -0.3624879773 0.9208525289
outer loop
vertex -0.08586798081 0.9437651777 0.6175858071
vertex -0.1188504674 0.8194225739 0.5634942182
vertex 0.03096789804 0.8329388132 0.5921847147
endloop
endfacet
facet normal 0.4196008938 0.3669476455 -0.8302316035
outer loop
vertex 0.04953876651 0.9793496862 0.01456332304
vertex 0.1977712197 0.9718657377 0.08617256114
vertex 0.1323190515 0.8527256625 0.0004350897337
endloop
endfacet
facet normal 0.6407124834 -0.3200246875 0.6979052321
outer loop
vertex 0.1279916542 -0.6731977483 0.06160412358
vertex 0.2486264737 -0.6595391152 -0.04288160258
vertex 0.2082454292 -0.5509812161 0.04396951164
endloop
endfacet
facet normal 0.9936153716 -0.01684146827 -0.1115565253
outer loop
vertex 0.2975991106 -0.6544573476 -0.1782251629
vertex 0.2813507178 -0.6442122332 -0.3244935731
vertex 0.2940752073 -0.5076947553 -0.2317684402
endloop
endfacet
facet normal 0.9976928409 0.04309394802 0.05245862086
outer loop
vertex 0.2870981353 -0.5263839438 -0.08372097613
vertex 0.2975991106 -0.6544573476 -0.1782251629
vertex 0.2940752073 -0.5076947553 -0.2317684402
endloop
endfacet
facet normal 0.9034126476 0.180090914 -0.3891180422
outer loop
vertex 0.2813507178 -0.6442122332 -0.3244935731
vertex 0.2385049881 -0.509749109 -0.3617362234
vertex 0.2940752073 -0.5076947553 -0.2317684402
endloop
endfacet
facet normal -0.9284100264 0.1855294939 -0.3219217759
outer loop
vertex -0.2987749845 0.9483576168 0.2875708327
vertex -0.2422913887 0.9688202875 0.1364673306
vertex -0.286939871 0.8265046301 0.1832126825
endloop
endfacet
facet normal -0.9972804869 -0.05302675333 -0.05118392304
outer loop
vertex -0.2939791828 0.8132357099 0.3341150681
vertex -0.2987749845 0.9483576168 0.2875708327
vertex -0.286939871 0.8265046301 0.1832126825
endloop
endfacet
facet normal -0.8381034786 0.08599750558 -0.538690067
outer loop
vertex -0.2422913887 0.9688202875 0.1364673306
vertex -0.1926338178 0.8461461531 0.03962527678
vertex -0.286939871 0.8265046301 0.1832126825
endloop
endfacet
facet normal -0.6100446778 -0.1628094474 0.7754602343
outer loop
vertex -0.1761916811 -0.6642004116 0.0345436316
vertex -0.1098506215 -0.5517995067 0.110332095
vertex -0.2396651934 -0.5361124531 0.0115021553
endloop
endfacet
facet normal 0.8550501865 -0.09044132241 0.5105972442
outer loop
vertex 0.2486264737 -0.6595391152 -0.04288160258
vertex 0.2870981353 -0.5263839438 -0.08372097613
vertex 0.2082454292 -0.5509812161 0.04396951164
endloop
endfacet
facet normal 0.1672124415 0.2166319221 -0.9618267046
outer loop
vertex 0.04953876651 0.9793496862 0.01456332304
vertex 0.1323190515 0.8527256625 0.0004350897337
vertex -0.03706387809 0.8578250775 -0.02786339377
endloop
endfacet
facet normal 0.6805249305 0.1432578091 -0.7185840376
outer loop
vertex 0.1977712197 0.9718657377 0.08617256114
vertex 0.2563143082 0.8374090179 0.1148095125
vertex 0.1323190515 0.8527256625 0.0004350897337
endloop
endfacet
facet normal -0.402577288 0.197748251 -0.893771311
outer loop
vertex -0.1214145284 0.9770308614 0.03650474
vertex -0.03706387809 0.8578250775 -0.02786339377
vertex -0.1926338178 0.8461461531 0.03962527678
endloop
endfacet
facet normal -0.08420516103 -0.2184246967 0.9722140416
outer loop
vertex -0.1098506215 -0.5517995067 0.110332095
vertex -0.02712956623 -0.6760534913 0.08958090411
vertex 0.05986205429 -0.5601179968 0.1231623144
endloop
endfacet
facet normal -0.771964102 -0.2798751595 0.5707375231
outer loop
vertex -0.1761916811 -0.6642004116 0.0345436316
vertex -0.2396651934 -0.5361124531 0.0115021553
vertex -0.2774180673 -0.6556773065 -0.09819292039
endloop
endfacet
facet normal 0.7343946484 -0.2714987762 0.6220553954
outer loop
vertex 0.2666674347 0.8083810957 0.4143299591
vertex 0.2416854925 0.9342648281 0.4987659825
vertex 0.1666180321 0.8082244077 0.532379261
endloop
endfacet
facet normal 0.6595046462 -0.1995108277 0.7247406786
outer loop
vertex 0.2416854925 0.9342648281 0.4987659825
vertex 0.1401332378 0.9368041683 0.5918762655
vertex 0.1666180321 0.8082244077 0.532379261
endloop
endfacet
facet normal 0.1057230711 0.2638152378 -0.9587617809
outer loop
vertex 0.09622825077 -0.6368970105 -0.5118173646
vertex -0.03775518592 -0.64685506 -0.5293318566
vertex 0.01970273342 -0.5064507839 -0.4843619631
endloop
endfacet
facet normal 0.4715473497 -0.1852409421 0.8621652338
outer loop
vertex 0.05986205429 -0.5601179968 0.1231623144
vertex 0.1279916542 -0.6731977483 0.06160412358
vertex 0.2082454292 -0.5509812161 0.04396951164
endloop
endfacet
facet normal 0.9587053189 0.02486813878 -0.2833119962
outer loop
vertex 0.2563143082 0.8374090179 0.1148095125
vertex 0.2802100116 0.9574887179 0.2062108541
vertex 0.2997672632 0.8177327071 0.2601237469
endloop
endfacet
facet normal 0.9700644994 -0.1379601814 0.1998545854
outer loop
vertex 0.2962803717 0.9442742918 0.3644006118
vertex 0.2666674347 0.8083810957 0.4143299591
vertex 0.2997672632 0.8177327071 0.2601237469
endloop
endfacet
facet normal 0.9904065036 0.1031050858 -0.09200162449
outer loop
vertex 0.2802100116 0.9574887179 0.2062108541
vertex 0.2962803717 0.9442742918 0.3644006118
vertex 0.2997672632 0.8177327071 0.2601237469
endloop
endfacet
facet normal 0.2853828894 -0.2972393887 0.9111560526
outer loop
vertex 0.02650616748 0.9658097898 0.6369276425
vertex 0.03096789804 0.8329388132 0.5921847147
vertex 0.1401332378 0.9368041683 0.5918762655
endloop
endfacet
facet normal -0.976483555 0.1321535239 -0.1703388181
outer loop
vertex -0.2695536001 -0.4984347398 -0.3049527608
vertex -0.2971692226 -0.6404490485 -0.2568221583
vertex -0.2990923704 -0.5118723992 -0.1460442413
endloop
endfacet
facet normal -0.9874083815 -0.1114735741 0.1122422842
outer loop
vertex -0.2971692226 -0.6404490485 -0.2568221583
vertex -0.2774180673 -0.6556773065 -0.09819292039
vertex -0.2990923704 -0.5118723992 -0.1460442413
endloop
endfacet
facet normal -0.3332481388 0.2468762803 -0.9099438335
outer loop
vertex -0.03775518592 -0.64685506 -0.5293318566
vertex -0.1547433498 -0.6461448137 -0.486294661
vertex -0.09407899694 -0.5309322698 -0.4772534857
endloop
endfacet
facet normal -0.1335061088 0.3514292813 -0.9266464154
outer loop
vertex 0.01970273342 -0.5064507839 -0.4843619631
vertex -0.03775518592 -0.64685506 -0.5293318566
vertex -0.09407899694 -0.5309322698 -0.4772534857
endloop
endfacet
facet normal -0.4666217862 0.3106802648 -0.8280953337
outer loop
vertex -0.1547433498 -0.6461448137 -0.486294661
vertex -0.1890347496 -0.5018123804 -0.4128220179
vertex -0.09407899694 -0.5309322698 -0.4772534857
endloop
endfacet
facet normal 0.528634212 0.2142863972 -0.8213569321
outer loop
vertex 0.2082812345 -0.6342235306 -0.4390013588
vertex 0.09622825077 -0.6368970105 -0.5118173646
vertex 0.1458163556 -0.5160036961 -0.448361686
endloop
endfacet
facet normal 0.6443353193 0.2842407659 -0.70995717
outer loop
vertex 0.2082812345 -0.6342235306 -0.4390013588
vertex 0.1458163556 -0.5160036961 -0.448361686
vertex 0.2385049881 -0.509749109 -0.3617362234
endloop
endfacet
facet normal 0.2814533604 0.3529216393 -0.8923173888
outer loop
vertex 0.09622825077 -0.6368970105 -0.5118173646
vertex 0.01970273342 -0.5064507839 -0.4843619631
vertex 0.1458163556 -0.5160036961 -0.448361686
endloop
endfacet
facet normal 0.8476542283 -0.2263212139 0.4798552047
outer loop
vertex 0.2082454292 -0.5509812161 0.04396951164
vertex 0.2870981353 -0.5263839438 -0.08372097613
vertex 0.2686160616 -0.4076358117 0.004934161597
endloop
endfacet
facet normal 0.1627341508 0.3999000479 -0.9019964234
outer loop
vertex -0.03706387809 0.8578250775 -0.02786339377
vertex 0.1323190515 0.8527256625 0.0004350897337
vertex 0.05835309405 0.7342293455 -0.06544485011
endloop
endfacet
facet normal 0.9777803877 -0.005047328189 0.2095710807
outer loop
vertex 0.2997672632 0.8177327071 0.2601237469
vertex 0.2666674347 0.8083810957 0.4143299591
vertex 0.2867023333 0.6735019687 0.3176061644
endloop
endfacet
facet normal -0.9366178513 -0.02488114417 0.3494680662
outer loop
vertex -0.2774180673 -0.6556773065 -0.09819292039
vertex -0.2396651934 -0.5361124531 0.0115021553
vertex -0.2990923704 -0.5118723992 -0.1460442413
endloop
endfacet
facet normal 0.4566061306 -0.3586869789 0.8141587638
outer loop
vertex 0.05986205429 -0.5601179968 0.1231623144
vertex 0.2082454292 -0.5509812161 0.04396951164
vertex 0.1516077221 -0.4252521862 0.1311251051
endloop
endfacet
facet normal 0.3266227797 -0.3406713476 0.8816238385
outer loop
vertex 0.1401332378 0.9368041683 0.5918762655
vertex 0.03096789804 0.8329388132 0.5921847147
vertex 0.1666180321 0.8082244077 0.532379261
endloop
endfacet
facet normal -0.08860073091 -0.4019640789 0.9113587602
outer loop
vertex -0.1098506215 -0.5517995067 0.110332095
vertex 0.05986205429 -0.5601179968 0.1231623144
vertex -0.02347180655 -0.4348784545 0.1702989176
endloop
endfacet
facet normal -0.5963686098 -0.3326558312 0.7305371853
outer loop
vertex -0.2396651934 -0.5361124531 0.0115021553
vertex -0.1098506215 -0.5517995067 0.110332095
vertex -0.1818827459 -0.4205212608 0.1113077826
endloop
endfacet
facet normal 0.6634793306 0.319628474 -0.6764856365
outer loop
vertex 0.1323190515 0.8527256625 0.0004350897337
vertex 0.2563143082 0.8374090179 0.1148095125
vertex 0.2124873104 0.722996994 0.01776732237
endloop
endfacet
facet normal 0.2832321299 0.2546656722 -0.9246215204
outer loop
vertex 0.1458163556 -0.5160036961 -0.448361686
vertex 0.01970273342 -0.5064507839 -0.4843619631
vertex 0.06870387945 -0.3805820265 -0.4346841764
endloop
endfacet
facet normal -0.1623650605 -0.2346895775 0.9584145185
outer loop
vertex 0.03096789804 0.8329388132 0.5921847147
vertex -0.1188504674 0.8194225739 0.5634942182
vertex -0.04170971521 0.7093766375 0.549615389
endloop
endfacet
facet normal -0.7886275939 0.160029938 -0.5936808377
outer loop
vertex -0.1890347496 -0.5018123804 -0.4128220179
vertex -0.2695536001 -0.4984347398 -0.3049527608
vertex -0.2118141754 -0.3661912347 -0.3460050941
endloop
endfacet
facet normal -0.3920212129 0.3796673119 -0.8379570997
outer loop
vertex -0.1926338178 0.8461461531 0.03962527678
vertex -0.03706387809 0.8578250775 -0.02786339377
vertex -0.125029163 0.7342094688 -0.04271922368
endloop
endfacet
facet normal 0.9515435074 0.1594473939 -0.2629476793
outer loop
vertex 0.2563143082 0.8374090179 0.1148095125
vertex 0.2997672632 0.8177327071 0.2601237469
vertex 0.291943419 0.7004383204 0.1606856669
endloop
endfacet
facet normal 0.6638462294 0.1879060877 -0.7238780877
outer loop
vertex 0.2385049881 -0.509749109 -0.3617362234
vertex 0.1458163556 -0.5160036961 -0.448361686
vertex 0.1825903087 -0.4038017771 -0.3855117745
endloop
endfacet
facet normal 0.4300926699 0.3297848081 -0.8403941192
outer loop
vertex 0.1458163556 -0.5160036961 -0.448361686
vertex 0.06870387945 -0.3805820265 -0.4346841764
vertex 0.1825903087 -0.4038017771 -0.3855117745
endloop
endfacet
facet normal 0.9158653142 0.08257997921 -0.3929010987
outer loop
vertex 0.2940752073 -0.5076947553 -0.2317684402
vertex 0.2385049881 -0.509749109 -0.3617362234
vertex 0.2592420225 -0.3825831358 -0.2866697651
endloop
endfacet
facet normal 0.7386370463 0.2492700145 -0.62632242
outer loop
vertex 0.2385049881 -0.509749109 -0.3617362234
vertex 0.1825903087 -0.4038017771 -0.3855117745
vertex 0.2592420225 -0.3825831358 -0.2866697651
endloop
endfacet
facet normal -0.1204574995 0.2025117548 -0.971843084
outer loop
vertex -0.03706387809 0.8578250775 -0.02786339377
vertex 0.05835309405 0.7342293455 -0.06544485011
vertex -0.125029163 0.7342094688 -0.04271922368
endloop
endfacet
facet normal 0.9963959066 -0.08264795238 0.0190922289
outer loop
vertex 0.291943419 0.7004383204 0.1606856669
vertex 0.2997672632 0.8177327071 0.2601237469
vertex 0.2867023333 0.6735019687 0.3176061644
endloop
endfacet
facet normal 0.4774206114 0.1801300389 -0.8600132144
outer loop
vertex 0.05835309405 0.7342293455 -0.06544485011
vertex 0.1323190515 0.8527256625 0.0004350897337
vertex 0.2124873104 0.722996994 0.01776732237
endloop
endfacet
facet normal -0.8219965162 0.266165042 -0.5034658854
outer loop
vertex -0.286939871 0.8265046301 0.1832126825
vertex -0.1926338178 0.8461461531 0.03962527678
vertex -0.2565926481 0.7138379263 0.0741025103
endloop
endfacet
facet normal -0.854847546 0.2286446732 -0.4657867394
outer loop
vertex -0.2118141754 -0.3661912347 -0.3460050941
vertex -0.2695536001 -0.4984347398 -0.3049527608
vertex -0.2902394291 -0.3661794764 -0.2020672822
endloop
endfacet
facet normal -0.9829344941 -0.01088488931 -0.1836336011
outer loop
vertex -0.2695536001 -0.4984347398 -0.3049527608
vertex -0.2990923704 -0.5118723992 -0.1460442413
vertex -0.2902394291 -0.3661794764 -0.2020672822
endloop
endfacet
facet normal -0.325720541 -0.339608659 0.8823673203
outer loop
vertex -0.04170971521 0.7093766375 0.549615389
vertex -0.1188504674 0.8194225739 0.5634942182
vertex -0.158115779 0.6813412058 0.4958544208
endloop
endfacet
facet normal -0.6178862201 -0.1971484473 0.7611498595
outer loop
vertex -0.1188504674 0.8194225739 0.5634942182
vertex -0.2341027178 0.806506236 0.4665892363
vertex -0.158115779 0.6813412058 0.4958544208
endloop
endfacet
facet normal 0.9793828341 0.001617768042 0.2020065523
outer loop
vertex 0.2686160616 -0.4076358117 0.004934161597
vertex 0.2870981353 -0.5263839438 -0.08372097613
vertex 0.299624873 -0.3892298753 -0.145552413
endloop
endfacet
facet normal -0.995720531 0.08374364029 -0.03908486675
outer loop
vertex -0.2939791828 0.8132357099 0.3341150681
vertex -0.286939871 0.8265046301 0.1832126825
vertex -0.2999942418 0.6947817629 0.233553205
endloop
endfacet
facet normal -0.9099231329 -0.07847164762 0.407286254
outer loop
vertex -0.2341027178 0.806506236 0.4665892363
vertex -0.2939791828 0.8132357099 0.3341150681
vertex -0.2602472852 0.6787938692 0.3835730622
endloop
endfacet
facet normal -0.707535367 -0.2775915497 0.6498743232
outer loop
vertex -0.158115779 0.6813412058 0.4958544208
vertex -0.2341027178 0.806506236 0.4665892363
vertex -0.2602472852 0.6787938692 0.3835730622
endloop
endfacet
facet normal -0.9591602507 -0.1531753441 0.237800184
outer loop
vertex -0.2939791828 0.8132357099 0.3341150681
vertex -0.2999942418 0.6947817629 0.233553205
vertex -0.2602472852 0.6787938692 0.3835730622
endloop
endfacet
facet normal -0.9274976992 -0.192985528 0.3201634021
outer loop
vertex -0.2990923704 -0.5118723992 -0.1460442413
vertex -0.2396651934 -0.5361124531 0.0115021553
vertex -0.2860700062 -0.3896291523 -0.03463428571
endloop
endfacet
facet normal -0.9966300742 0.07409315279 0.03519516941
outer loop
vertex -0.2902394291 -0.3661794764 -0.2020672822
vertex -0.2990923704 -0.5118723992 -0.1460442413
vertex -0.2860700062 -0.3896291523 -0.03463428571
endloop
endfacet
facet normal -0.8192285701 -0.08070353177 0.5677600636
outer loop
vertex -0.2396651934 -0.5361124531 0.0115021553
vertex -0.1818827459 -0.4205212608 0.1113077826
vertex -0.2860700062 -0.3896291523 -0.03463428571
endloop
endfacet
facet normal -0.3578199325 -0.2031090865 0.9114338127
outer loop
vertex -0.1098506215 -0.5517995067 0.110332095
vertex -0.02347180655 -0.4348784545 0.1702989176
vertex -0.1818827459 -0.4205212608 0.1113077826
endloop
endfacet
facet normal 0.7360688913 -0.1290468299 0.6644919134
outer loop
vertex 0.2082454292 -0.5509812161 0.04396951164
vertex 0.2686160616 -0.4076358117 0.004934161597
vertex 0.1516077221 -0.4252521862 0.1311251051
endloop
endfacet
facet normal 0.3534473218 -0.2448101724 0.9028526846
outer loop
vertex 0.1666180321 0.8082244077 0.532379261
vertex 0.03096789804 0.8329388132 0.5921847147
vertex 0.0830452101 0.6766368258 0.5294159996
endloop
endfacet
facet normal 0.0577845251 -0.3553978161 0.9329272967
outer loop
vertex 0.03096789804 0.8329388132 0.5921847147
vertex -0.04170971521 0.7093766375 0.549615389
vertex 0.0830452101 0.6766368258 0.5294159996
endloop
endfacet
facet normal 0.2244564098 -0.2088901723 0.9518320314
outer loop
vertex -0.02347180655 -0.4348784545 0.1702989176
vertex 0.05986205429 -0.5601179968 0.1231623144
vertex 0.1516077221 -0.4252521862 0.1311251051
endloop
endfacet
facet normal -0.02790474948 0.376357748 -0.9260540862
outer loop
vertex 0.06870387945 -0.3805820265 -0.4346841764
vertex 0.01970273342 -0.5064507839 -0.4843619631
vertex -0.08253120322 -0.3909767051 -0.4343515184
endloop
endfacet
facet normal -0.1236705628 0.3001428859 -0.9458434542
outer loop
vertex 0.01970273342 -0.5064507839 -0.4843619631
vertex -0.09407899694 -0.5309322698 -0.4772534857
vertex -0.08253120322 -0.3909767051 -0.4343515184
endloop
endfacet
facet normal 0.8765083854 0.06840247953 -0.4765019948
outer loop
vertex 0.2124873104 0.722996994 0.01776732237
vertex 0.2563143082 0.8374090179 0.1148095125
vertex 0.291943419 0.7004383204 0.1606856669
endloop
endfacet
facet normal 0.7538041048 -0.1545706501 0.6386605402
outer loop
vertex 0.2666674347 0.8083810957 0.4143299591
vertex 0.1666180321 0.8082244077 0.532379261
vertex 0.2065362555 0.6604035984 0.4494881539
endloop
endfacet
facet normal 0.8422178543 -0.2259341036 0.4895128872
outer loop
vertex 0.2867023333 0.6735019687 0.3176061644
vertex 0.2666674347 0.8083810957 0.4143299591
vertex 0.2065362555 0.6604035984 0.4494881539
endloop
endfacet
facet normal 0.4833080744 -0.3252580177 0.8127856588
outer loop
vertex 0.1666180321 0.8082244077 0.532379261
vertex 0.0830452101 0.6766368258 0.5294159996
vertex 0.2065362555 0.6604035984 0.4494881539
endloop
endfacet
facet normal -0.6695073441 0.1332213508 -0.7307612386
outer loop
vertex -0.1926338178 0.8461461531 0.03962527678
vertex -0.125029163 0.7342094688 -0.04271922368
vertex -0.2565926481 0.7138379263 0.0741025103
endloop
endfacet
facet normal -0.4734435999 0.293627664 -0.8304420224
outer loop
vertex -0.09407899694 -0.5309322698 -0.4772534857
vertex -0.1890347496 -0.5018123804 -0.4128220179
vertex -0.08253120322 -0.3909767051 -0.4343515184
endloop
endfacet
facet normal 0.996544127 -0.07406010133 0.03761521383
outer loop
vertex 0.2870981353 -0.5263839438 -0.08372097613
vertex 0.2940752073 -0.5076947553 -0.2317684402
vertex 0.299624873 -0.3892298753 -0.145552413
endloop
endfacet
facet normal -0.4931139631 0.3164265224 -0.8103782298
outer loop
vertex -0.08253120322 -0.3909767051 -0.4343515184
vertex -0.1890347496 -0.5018123804 -0.4128220179
vertex -0.2118141754 -0.3661912347 -0.3460050941
endloop
endfacet
facet normal -0.964731493 -0.004973362267 -0.2631889285
outer loop
vertex -0.2999942418 0.6947817629 0.233553205
vertex -0.286939871 0.8265046301 0.1832126825
vertex -0.2565926481 0.7138379263 0.0741025103
endloop
endfacet
facet normal 0.4618367007 0.3718084101 -0.8052734741
outer loop
vertex 0.05835309405 0.7342293455 -0.06544485011
vertex 0.2124873104 0.722996994 0.01776732237
vertex 0.1542345438 0.6093164437 -0.06812977027
endloop
endfacet
facet normal 0.9973262983 0.05879195053 0.0434023177
outer loop
vertex 0.291943419 0.7004383204 0.1606856669
vertex 0.2867023333 0.6735019687 0.3176061644
vertex 0.2981704025 0.5518805576 0.2188315537
endloop
endfacet
facet normal -0.5194685106 0.2268741462 -0.8238207258
outer loop
vertex -0.08253120322 -0.3909767051 -0.4343515184
vertex -0.2118141754 -0.3661912347 -0.3460050941
vertex -0.1187356675 -0.2320438299 -0.3677534859
endloop
endfacet
facet normal -0.6561967099 0.3206048496 -0.6830947287
outer loop
vertex -0.2565926481 0.7138379263 0.0741025103
vertex -0.125029163 0.7342094688 -0.04271922368
vertex -0.2135150386 0.5894735582 -0.02564823039
endloop
endfacet
facet normal 0.9525561332 0.1486635406 -0.265586078
outer loop
vertex 0.299624873 -0.3892298753 -0.145552413
vertex 0.2940752073 -0.5076947553 -0.2317684402
vertex 0.2592420225 -0.3825831358 -0.2866697651
endloop
endfacet
facet normal 0.7198838287 -0.3008626629 0.6254989459
outer loop
vertex 0.1516077221 -0.4252521862 0.1311251051
vertex 0.2686160616 -0.4076358117 0.004934161597
vertex 0.2338400317 -0.2907309541 0.1011885338
endloop
endfacet
facet normal -0.3527036656 -0.3822654733 0.8540920514
outer loop
vertex -0.1818827459 -0.4205212608 0.1113077826
vertex -0.02347180655 -0.4348784545 0.1702989176
vertex -0.1087652588 -0.3063984396 0.1925800762
endloop
endfacet
facet normal 0.9742081135 -0.1293083328 0.1849267601
outer loop
vertex 0.2686160616 -0.4076358117 0.004934161597
vertex 0.299624873 -0.3892298753 -0.145552413
vertex 0.2979526442 -0.2693055255 -0.0528869891
endloop
endfacet
facet normal 0.2208479123 -0.4037111886 0.8878307698
outer loop
vertex -0.02347180655 -0.4348784545 0.1702989176
vertex 0.1516077221 -0.4252521862 0.1311251051
vertex 0.08179546885 -0.3098722874 0.200956033
endloop
endfacet
facet normal -0.9573429752 0.1584299871 -0.2416492646
outer loop
vertex -0.2999942418 0.6947817629 0.233553205
vertex -0.2565926481 0.7138379263 0.0741025103
vertex -0.2936296022 0.5658092361 0.1237814714
endloop
endfacet
facet normal -0.01907447224 0.2465107164 -0.9689523369
outer loop
vertex 0.06870387945 -0.3805820265 -0.4346841764
vertex -0.08253120322 -0.3909767051 -0.4343515184
vertex 0.01042433909 -0.2619793822 -0.4033632609
endloop
endfacet
facet normal -0.1737848279 0.3466565968 -0.9217526987
outer loop
vertex -0.08253120322 -0.3909767051 -0.4343515184
vertex -0.1187356675 -0.2320438299 -0.3677534859
vertex 0.01042433909 -0.2619793822 -0.4033632609
endloop
endfacet
facet normal -0.1122725605 0.4089700108 -0.9056149305
outer loop
vertex -0.125029163 0.7342094688 -0.04271922368
vertex 0.05835309405 0.7342293455 -0.06544485011
vertex -0.03090320562 0.6038137834 -0.1132742521
endloop
endfacet
facet normal 0.8654059922 0.2309527246 -0.4446721349
outer loop
vertex 0.2124873104 0.722996994 0.01776732237
vertex 0.291943419 0.7004383204 0.1606856669
vertex 0.2683351971 0.5786005581 0.05146033873
endloop
endfacet
facet normal 0.4264173595 0.2514442048 -0.8688751621
outer loop
vertex 0.1825903087 -0.4038017771 -0.3855117745
vertex 0.06870387945 -0.3805820265 -0.4346841764
vertex 0.1551775687 -0.261061097 -0.3576573143
endloop
endfacet
facet normal 0.2775358971 0.3704637026 -0.8864143901
outer loop
vertex 0.06870387945 -0.3805820265 -0.4346841764
vertex 0.01042433909 -0.2619793822 -0.4033632609
vertex 0.1551775687 -0.261061097 -0.3576573143
endloop
endfacet
facet normal -0.9669854115 -0.02077813945 0.2539832335
outer loop
vertex -0.2602472852 0.6787938692 0.3835730622
vertex -0.2999942418 0.6947817629 0.233553205
vertex -0.2825446356 0.5441046706 0.2876619931
endloop
endfacet
facet normal -0.9939314452 -0.09550480307 0.05458126795
outer loop
vertex -0.2999942418 0.6947817629 0.233553205
vertex -0.2936296022 0.5658092361 0.1237814714
vertex -0.2825446356 0.5441046706 0.2876619931
endloop
endfacet
facet normal 0.7337830786 0.1281228198 -0.6671933277
outer loop
vertex 0.1542345438 0.6093164437 -0.06812977027
vertex 0.2124873104 0.722996994 0.01776732237
vertex 0.2683351971 0.5786005581 0.05146033873
endloop
endfacet
facet normal 0.9832446965 -0.02921294711 -0.1799346287
outer loop
vertex 0.291943419 0.7004383204 0.1606856669
vertex 0.2981704025 0.5518805576 0.2188315537
vertex 0.2683351971 0.5786005581 0.05146033873
endloop
endfacet
facet normal 0.9229468249 -0.1864633418 0.336750027
outer loop
vertex 0.2981704025 0.5518805576 0.2188315537
vertex 0.2867023333 0.6735019687 0.3176061644
vertex 0.2409632352 0.5369677513 0.3673645238
endloop
endfacet
facet normal 0.8545826348 -0.1006133472 0.5094756861
outer loop
vertex 0.2867023333 0.6735019687 0.3176061644
vertex 0.2065362555 0.6604035984 0.4494881539
vertex 0.2409632352 0.5369677513 0.3673645238
endloop
endfacet
facet normal -0.4372097278 0.1629733949 -0.8844700823
outer loop
vertex -0.125029163 0.7342094688 -0.04271922368
vertex -0.03090320562 0.6038137834 -0.1132742521
vertex -0.2135150386 0.5894735582 -0.02564823039
endloop
endfacet
facet normal -0.8080569901 -0.2821429645 0.5171452874
outer loop
vertex -0.2860700062 -0.3896291523 -0.03463428571
vertex -0.1818827459 -0.4205212608 0.1113077826
vertex -0.2460113138 -0.2805803886 0.08745335459
endloop
endfacet
facet normal -0.8837161346 0.06558643441 -0.4634050205
outer loop
vertex -0.2565926481 0.7138379263 0.0741025103
vertex -0.2135150386 0.5894735582 -0.02564823039
vertex -0.2936296022 0.5658092361 0.1237814714
endloop
endfacet
facet normal 0.07102482357 -0.313569648 0.9469052488
outer loop
vertex 0.0830452101 0.6766368258 0.5294159996
vertex -0.04170971521 0.7093766375 0.549615389
vertex -0.04019334363 0.5562575879 0.4987959574
endloop
endfacet
facet normal 0.9244474177 -0.03743866076 0.379467151
outer loop
vertex 0.2338400317 -0.2907309541 0.1011885338
vertex 0.2686160616 -0.4076358117 0.004934161597
vertex 0.2979526442 -0.2693055255 -0.0528869891
endloop
endfacet
facet normal -0.618886669 -0.1522535847 0.7705829851
outer loop
vertex -0.1818827459 -0.4205212608 0.1113077826
vertex -0.1087652588 -0.3063984396 0.1925800762
vertex -0.2460113138 -0.2805803886 0.08745335459
endloop
endfacet
facet normal 0.2269033955 0.1946791877 -0.9542614228
outer loop
vertex 0.05835309405 0.7342293455 -0.06544485011
vertex 0.1542345438 0.6093164437 -0.06812977027
vertex -0.03090320562 0.6038137834 -0.1132742521
endloop
endfacet
facet normal -0.04666954982 -0.2006825896 0.9785440467
outer loop
vertex -0.02347180655 -0.4348784545 0.1702989176
vertex 0.08179546885 -0.3098722874 0.200956033
vertex -0.1087652588 -0.3063984396 0.1925800762
endloop
endfacet
facet normal 0.5555478415 -0.1579328884 0.8163478417
outer loop
vertex 0.08179546885 -0.3098722874 0.200956033
vertex 0.1516077221 -0.4252521862 0.1311251051
vertex 0.2338400317 -0.2907309541 0.1011885338
endloop
endfacet
facet normal 0.7342059667 0.2631320174 -0.6258619176
outer loop
vertex 0.1825903087 -0.4038017771 -0.3855117745
vertex 0.1551775687 -0.261061097 -0.3576573143
vertex 0.2592420225 -0.3825831358 -0.2866697651
endloop
endfacet
facet normal -0.6200028824 0.3135906222 -0.7192060535
outer loop
vertex -0.1187356675 -0.2320438299 -0.3677534859
vertex -0.2118141754 -0.3661912347 -0.3460050941
vertex -0.2488296067 -0.2163776064 -0.2487731219
endloop
endfacet
facet normal -0.8742950243 0.09315678095 -0.4763717295
outer loop
vertex -0.2118141754 -0.3661912347 -0.3460050941
vertex -0.2902394291 -0.3661794764 -0.2020672822
vertex -0.2488296067 -0.2163776064 -0.2487731219
endloop
endfacet
facet normal 0.9813122549 0.1260347711 -0.1454011516
outer loop
vertex 0.2979526442 -0.2693055255 -0.0528869891
vertex 0.299624873 -0.3892298753 -0.145552413
vertex 0.2713850993 -0.2549870844 -0.2197799992
endloop
endfacet
facet normal 0.9607752987 0.05142713049 -0.272518028
outer loop
vertex 0.299624873 -0.3892298753 -0.145552413
vertex 0.2592420225 -0.3825831358 -0.2866697651
vertex 0.2713850993 -0.2549870844 -0.2197799992
endloop
endfacet
facet normal -0.3397115952 -0.2992944443 0.8916383054
outer loop
vertex -0.04170971521 0.7093766375 0.549615389
vertex -0.158115779 0.6813412058 0.4958544208
vertex -0.04019334363 0.5562575879 0.4987959574
endloop
endfacet
facet normal 0.2870674366 0.2839336693 -0.9148628084
outer loop
vertex 0.1551775687 -0.261061097 -0.3576573143
vertex 0.01042433909 -0.2619793822 -0.4033632609
vertex 0.02372408796 -0.1151424102 -0.353618223
endloop
endfacet
facet normal 0.2040180167 0.4139624825 -0.8871368056
outer loop
vertex -0.03090320562 0.6038137834 -0.1132742521
vertex 0.1542345438 0.6093164437 -0.06812977027
vertex 0.07456573638 0.4836765442 -0.1450785299
endloop
endfacet
facet normal -0.8722159263 0.2312445548 -0.4310050276
outer loop
vertex -0.2936296022 0.5658092361 0.1237814714
vertex -0.2135150386 0.5894735582 -0.02564823039
vertex -0.2743886951 0.4472505177 0.02123444564
endloop
endfacet
facet normal -0.9955853185 -0.09312257177 0.01174990678
outer loop
vertex -0.2902394291 -0.3661794764 -0.2020672822
vertex -0.2860700062 -0.3896291523 -0.03463428571
vertex -0.299954114 -0.2479486344 -0.08818021762
endloop
endfacet
facet normal -0.947145577 0.1787674894 -0.2663783789
outer loop
vertex -0.2488296067 -0.2163776064 -0.2487731219
vertex -0.2902394291 -0.3661794764 -0.2020672822
vertex -0.299954114 -0.2479486344 -0.08818021762
endloop
endfacet
facet normal -0.9547911552 0.01856639631 0.296697049
outer loop
vertex -0.2860700062 -0.3896291523 -0.03463428571
vertex -0.2460113138 -0.2805803886 0.08745335459
vertex -0.299954114 -0.2479486344 -0.08818021762
endloop
endfacet
facet normal -0.7274169743 -0.1674175422 0.6654591739
outer loop
vertex -0.158115779 0.6813412058 0.4958544208
vertex -0.2602472852 0.6787938692 0.3835730622
vertex -0.192634897 0.5417124972 0.4229933205
endloop
endfacet
facet normal -0.8093715165 -0.2458230855 0.5333748765
outer loop
vertex -0.2602472852 0.6787938692 0.3835730622
vertex -0.2825446356 0.5441046706 0.2876619931
vertex -0.192634897 0.5417124972 0.4229933205
endloop
endfacet
facet normal 0.9147021508 -0.1961316826 0.3533445038
outer loop
vertex 0.2338400317 -0.2907309541 0.1011885338
vertex 0.2979526442 -0.2693055255 -0.0528869891
vertex 0.2866564633 -0.1469165259 0.04429013117
endloop
endfacet
facet normal -0.390549495 -0.3481490131 0.8522108639
outer loop
vertex -0.04019334363 0.5562575879 0.4987959574
vertex -0.158115779 0.6813412058 0.4958544208
vertex -0.192634897 0.5417124972 0.4229933205
endloop
endfacet
facet normal -0.1789905786 0.3301873223 -0.926789461
outer loop
vertex 0.01042433909 -0.2619793822 -0.4033632609
vertex -0.1187356675 -0.2320438299 -0.3677534859
vertex 0.02372408796 -0.1151424102 -0.353618223
endloop
endfacet
facet normal 0.5082312195 -0.2257999139 0.8310929108
outer loop
vertex 0.2065362555 0.6604035984 0.4494881539
vertex 0.0830452101 0.6766368258 0.5294159996
vertex 0.1203438965 0.5370002508 0.4686691411
endloop
endfacet
facet normal 0.6106640022 -0.3134945621 0.7271936715
outer loop
vertex 0.2409632352 0.5369677513 0.3673645238
vertex 0.2065362555 0.6604035984 0.4494881539
vertex 0.1203438965 0.5370002508 0.4686691411
endloop
endfacet
facet normal 0.1289705664 -0.3664212813 0.9214673286
outer loop
vertex 0.0830452101 0.6766368258 0.5294159996
vertex -0.04019334363 0.5562575879 0.4987959574
vertex 0.1203438965 0.5370002508 0.4686691411
endloop
endfacet
facet normal -0.6110099485 -0.3430023217 0.7134537478
outer loop
vertex -0.2460113138 -0.2805803886 0.08745335459
vertex -0.1087652588 -0.3063984396 0.1925800762
vertex -0.1834540533 -0.1743926065 0.192079288
endloop
endfacet
facet normal 0.7326658352 0.2599982793 -0.6289687342
outer loop
vertex 0.2592420225 -0.3825831358 -0.2866697651
vertex 0.1551775687 -0.261061097 -0.3576573143
vertex 0.2713850993 -0.2549870844 -0.2197799992
endloop
endfacet
facet normal 0.7284251283 0.2910339046 -0.6202387433
outer loop
vertex 0.1542345438 0.6093164437 -0.06812977027
vertex 0.2683351971 0.5786005581 0.05146033873
vertex 0.2317711497 0.4576704511 -0.04822535943
endloop
endfacet
facet normal 0.5433743651 -0.3577065106 0.7594671498
outer loop
vertex 0.08179546885 -0.3098722874 0.200956033
vertex 0.2338400317 -0.2907309541 0.1011885338
vertex 0.1825597724 -0.1734329369 0.1931248904
endloop
endfacet
facet normal -0.047495656 -0.417916856 0.9072428915
outer loop
vertex -0.1087652588 -0.3063984396 0.1925800762
vertex 0.08179546885 -0.3098722874 0.200956033
vertex -0.001729760661 -0.1814598339 0.2557358982
endloop
endfacet
facet normal -0.4231088449 0.3897434434 -0.8179724651
outer loop
vertex -0.2135150386 0.5894735582 -0.02564823039
vertex -0.03090320562 0.6038137834 -0.1132742521
vertex -0.1315788077 0.4520799972 -0.1334956059
endloop
endfacet
facet normal 0.9788782879 0.1358175713 -0.1528099631
outer loop
vertex 0.2683351971 0.5786005581 0.05146033873
vertex 0.2981704025 0.5518805576 0.2188315537
vertex 0.2981192419 0.426044704 0.1066608568
endloop
endfacet
facet normal -0.08349914443 0.1858743606 -0.9790192107
outer loop
vertex -0.03090320562 0.6038137834 -0.1132742521
vertex 0.07456573638 0.4836765442 -0.1450785299
vertex -0.1315788077 0.4520799972 -0.1334956059
endloop
endfacet
facet normal -0.3313189755 -0.183949285 0.9254136357
outer loop
vertex -0.1834540533 -0.1743926065 0.192079288
vertex -0.1087652588 -0.3063984396 0.1925800762
vertex -0.001729760661 -0.1814598339 0.2557358982
endloop
endfacet
facet normal -0.9896907101 -0.042251588 -0.1368470006
outer loop
vertex -0.2936296022 0.5658092361 0.1237814714
vertex -0.2743886951 0.4472505177 0.02123444564
vertex -0.2967200639 0.4270353838 0.1889784931
endloop
endfacet
facet normal 0.9970136471 0.07369590836 0.0230803089
outer loop
vertex 0.2866564633 -0.1469165259 0.04429013117
vertex 0.2979526442 -0.2693055255 -0.0528869891
vertex 0.2890152559 -0.1253200943 -0.126561872
endloop
endfacet
facet normal -0.4230411224 -0.1869334113 0.8866183556
outer loop
vertex -0.04019334363 0.5562575879 0.4987959574
vertex -0.192634897 0.5417124972 0.4229933205
vertex -0.1145414839 0.4389546354 0.438589487
endloop
endfacet
facet normal 0.323334456 -0.185532325 0.9279184156
outer loop
vertex -0.001729760661 -0.1814598339 0.2557358982
vertex 0.08179546885 -0.3098722874 0.200956033
vertex 0.1825597724 -0.1734329369 0.1931248904
endloop
endfacet
facet normal 0.1493667469 -0.251021171 0.9563879687
outer loop
vertex 0.1203438965 0.5370002508 0.4686691411
vertex -0.04019334363 0.5562575879 0.4987959574
vertex 0.01850626286 0.3951586893 0.4473450765
endloop
endfacet
facet normal -0.1780589094 -0.3576565415 0.9167206898
outer loop
vertex -0.04019334363 0.5562575879 0.4987959574
vertex -0.1145414839 0.4389546354 0.438589487
vertex 0.01850626286 0.3951586893 0.4473450765
endloop
endfacet
facet normal -0.8226243879 -0.07118993698 0.5641109016
outer loop
vertex -0.2460113138 -0.2805803886 0.08745335459
vertex -0.1834540533 -0.1743926065 0.192079288
vertex -0.2877363262 -0.1326441979 0.04527646239
endloop
endfacet
facet normal 0.8234734927 -0.08021170777 0.5616560235
outer loop
vertex 0.1825597724 -0.1734329369 0.1931248904
vertex 0.2338400317 -0.2907309541 0.1011885338
vertex 0.2866564633 -0.1469165259 0.04429013117
endloop
endfacet
facet normal 0.7560747066 0.1236792971 -0.6426931379
outer loop
vertex 0.2713850993 -0.2549870844 -0.2197799992
vertex 0.1551775687 -0.261061097 -0.3576573143
vertex 0.204756142 -0.127568273 -0.2736430301
endloop
endfacet
facet normal 0.9801460061 -0.1321579323 0.1478109862
outer loop
vertex 0.2981192419 0.426044704 0.1066608568
vertex 0.2981704025 0.5518805576 0.2188315537
vertex 0.2689698097 0.3941640944 0.2714485005
endloop
endfacet
facet normal 0.9336110985 -0.05472596416 0.3540838679
outer loop
vertex 0.2981704025 0.5518805576 0.2188315537
vertex 0.2409632352 0.5369677513 0.3673645238
vertex 0.2689698097 0.3941640944 0.2714485005
endloop
endfacet
facet normal -0.9472304089 -0.1945244936 0.2547837788
outer loop
vertex -0.299954114 -0.2479486344 -0.08818021762
vertex -0.2460113138 -0.2805803886 0.08745335459
vertex -0.2877363262 -0.1326441979 0.04527646239
endloop
endfacet
facet normal -0.7331750798 0.09168742875 -0.6738306299
outer loop
vertex -0.2743886951 0.4472505177 0.02123444564
vertex -0.2135150386 0.5894735582 -0.02564823039
vertex -0.1315788077 0.4520799972 -0.1334956059
endloop
endfacet
facet normal 0.9214088549 0.0400297741 -0.3865272814
outer loop
vertex 0.2317711497 0.4576704511 -0.04822535943
vertex 0.2683351971 0.5786005581 0.05146033873
vertex 0.2981192419 0.426044704 0.1066608568
endloop
endfacet
facet normal -0.9955361723 0.05737664218 0.07493764498
outer loop
vertex -0.2936296022 0.5658092361 0.1237814714
vertex -0.2967200639 0.4270353838 0.1889784931
vertex -0.2825446356 0.5441046706 0.2876619931
endloop
endfacet
facet normal -0.2153483894 0.3716249952 -0.9030614232
outer loop
vertex 0.02372408796 -0.1151424102 -0.353618223
vertex -0.1187356675 -0.2320438299 -0.3677534859
vertex -0.1593986976 -0.06817854817 -0.2906234582
endloop
endfacet
facet normal -0.6510178394 0.1849651469 -0.7361818167
outer loop
vertex -0.1187356675 -0.2320438299 -0.3677534859
vertex -0.2488296067 -0.2163776064 -0.2487731219
vertex -0.1593986976 -0.06817854817 -0.2906234582
endloop
endfacet
facet normal 0.5370179547 0.1660192491 -0.8270727448
outer loop
vertex 0.1542345438 0.6093164437 -0.06812977027
vertex 0.2317711497 0.4576704511 -0.04822535943
vertex 0.07456573638 0.4836765442 -0.1450785299
endloop
endfacet
facet normal 0.9870995336 -0.02001128949 -0.1588523184
outer loop
vertex 0.2890152559 -0.1253200943 -0.126561872
vertex 0.2979526442 -0.2693055255 -0.0528869891
vertex 0.2713850993 -0.2549870844 -0.2197799992
endloop
endfacet
facet normal 0.3955405426 0.3794813524 -0.8363860247
outer loop
vertex 0.204756142 -0.127568273 -0.2736430301
vertex 0.1551775687 -0.261061097 -0.3576573143
vertex 0.02372408796 -0.1151424102 -0.353618223
endloop
endfacet
facet normal -0.9857999933 0.1207608807 -0.1166841157
outer loop
vertex -0.2967200639 0.4270353838 0.1889784931
vertex -0.2743886951 0.4472505177 0.02123444564
vertex -0.2997551845 0.3058159113 0.08916586353
endloop
endfacet
facet normal 0.408139451 0.1437788625 -0.9015263874
outer loop
vertex 0.204756142 -0.127568273 -0.2736430301
vertex 0.02372408796 -0.1151424102 -0.353618223
vertex 0.1160131955 -0.0106305172 -0.2951690999
endloop
endfacet
facet normal 0.9974259847 -0.07154763759 0.004726589758
outer loop
vertex 0.2866564633 -0.1469165259 0.04429013117
vertex 0.2890152559 -0.1253200943 -0.126561872
vertex 0.2979896291 0.005864836716 -0.03459305842
endloop
endfacet
facet normal -0.9537105068 0.0171783179 -0.300235199
outer loop
vertex -0.2488296067 -0.2163776064 -0.2487731219
vertex -0.299954114 -0.2479486344 -0.08818021762
vertex -0.2808940845 -0.0850742881 -0.1394062001
endloop
endfacet
facet normal -0.760550459 0.2957260002 -0.5780217402
outer loop
vertex -0.1593986976 -0.06817854817 -0.2906234582
vertex -0.2488296067 -0.2163776064 -0.2487731219
vertex -0.2808940845 -0.0850742881 -0.1394062001
endloop
endfacet
facet normal -0.9934630433 0.113909793 -0.007465972225
outer loop
vertex -0.299954114 -0.2479486344 -0.08818021762
vertex -0.2877363262 -0.1326441979 0.04527646239
vertex -0.2808940845 -0.0850742881 -0.1394062001
endloop
endfacet
facet normal -0.3160989382 -0.4064211382 0.857265023
outer loop
vertex -0.1834540533 -0.1743926065 0.192079288
vertex -0.001729760661 -0.1814598339 0.2557358982
vertex -0.09277483907 -0.05304653606 0.283044403
endloop
endfacet
facet normal -0.6977887156 0.3341221285 -0.6336034341
outer loop
vertex -0.2743886951 0.4472505177 0.02123444564
vertex -0.1315788077 0.4520799972 -0.1334956059
vertex -0.2456333268 0.3336836831 -0.0703218196
endloop
endfacet
facet normal 0.3114084293 -0.3898668944 0.8666190598
outer loop
vertex -0.001729760661 -0.1814598339 0.2557358982
vertex 0.1825597724 -0.1734329369 0.1931248904
vertex 0.1007749876 -0.02302564296 0.2901771016
endloop
endfacet
facet normal -0.8184577874 -0.279835583 0.5018156004
outer loop
vertex -0.2877363262 -0.1326441979 0.04527646239
vertex -0.1834540533 -0.1743926065 0.192079288
vertex -0.2483663639 -0.0271362001 0.1683247381
endloop
endfacet
facet normal -0.5709594483 -0.3191082181 0.7564226686
outer loop
vertex -0.1145414839 0.4389546354 0.438589487
vertex -0.192634897 0.5417124972 0.4229933205
vertex -0.2292077359 0.4198225807 0.3439664953
endloop
endfacet
facet normal 0.8123230806 -0.2606829316 0.5217045351
outer loop
vertex 0.1825597724 -0.1734329369 0.1931248904
vertex 0.2866564633 -0.1469165259 0.04429013117
vertex 0.2659805976 -0.02181265379 0.1389949377
endloop
endfacet
facet normal 0.8418838844 0.2348371732 -0.4858837591
outer loop
vertex 0.2713850993 -0.2549870844 -0.2197799992
vertex 0.204756142 -0.127568273 -0.2736430301
vertex 0.2890152559 -0.1253200943 -0.126561872
endloop
endfacet
facet normal 0.9142852203 0.2038864577 -0.3500183542
outer loop
vertex 0.2317711497 0.4576704511 -0.04822535943
vertex 0.2981192419 0.426044704 0.1066608568
vertex 0.2795885204 0.3020636514 -0.01396259601
endloop
endfacet
facet normal -0.8993531271 -0.2129764739 0.3818441754
outer loop
vertex -0.2825446356 0.5441046706 0.2876619931
vertex -0.2967200639 0.4270353838 0.1889784931
vertex -0.2292077359 0.4198225807 0.3439664953
endloop
endfacet
facet normal -0.1167439604 0.4342314007 -0.8932043094
outer loop
vertex -0.1315788077 0.4520799972 -0.1334956059
vertex 0.07456573638 0.4836765442 -0.1450785299
vertex 0.003220446685 0.3578363148 -0.1969307734
endloop
endfacet
facet normal -0.8290124015 -0.1071175399 0.5488754601
outer loop
vertex -0.192634897 0.5417124972 0.4229933205
vertex -0.2825446356 0.5441046706 0.2876619931
vertex -0.2292077359 0.4198225807 0.3439664953
endloop
endfacet
facet normal 0.6307322731 -0.1951932159 0.7510502034
outer loop
vertex 0.2409632352 0.5369677513 0.3673645238
vertex 0.1203438965 0.5370002508 0.4686691411
vertex 0.1623530967 0.380014574 0.392590209
endloop
endfacet
facet normal 0.7381613756 -0.2703710199 0.618075477
outer loop
vertex 0.2689698097 0.3941640944 0.2714485005
vertex 0.2409632352 0.5369677513 0.3673645238
vertex 0.1623530967 0.380014574 0.392590209
endloop
endfacet
facet normal 0.3009551443 -0.3494698458 0.8872974856
outer loop
vertex 0.1203438965 0.5370002508 0.4686691411
vertex 0.01850626286 0.3951586893 0.4473450765
vertex 0.1623530967 0.380014574 0.392590209
endloop
endfacet
facet normal 0.5315087212 0.3634390975 -0.7651212333
outer loop
vertex 0.07456573638 0.4836765442 -0.1450785299
vertex 0.2317711497 0.4576704511 -0.04822535943
vertex 0.177159036 0.3413407778 -0.1414204808
endloop
endfacet
facet normal 0.8632334253 0.09406940836 -0.4959627
outer loop
vertex 0.2890152559 -0.1253200943 -0.126561872
vertex 0.204756142 -0.127568273 -0.2736430301
vertex 0.2389767325 0.008916026079 -0.1881943566
endloop
endfacet
facet normal 0.5940816769 0.3145579586 -0.7403514381
outer loop
vertex 0.204756142 -0.127568273 -0.2736430301
vertex 0.1160131955 -0.0106305172 -0.2951690999
vertex 0.2389767325 0.008916026079 -0.1881943566
endloop
endfacet
facet normal 0.3151267303 0.2033137687 -0.9270159952
outer loop
vertex 0.003220446685 0.3578363148 -0.1969307734
vertex 0.07456573638 0.4836765442 -0.1450785299
vertex 0.177159036 0.3413407778 -0.1414204808
endloop
endfacet
facet normal 0.1603679402 0.3701275957 -0.9150342544
outer loop
vertex 0.1160131955 -0.0106305172 -0.2951690999
vertex 0.02372408796 -0.1151424102 -0.353618223
vertex -0.04140576955 0.07387112003 -0.288577617
endloop
endfacet
facet normal -0.2627627035 0.2317520747 -0.9366145085
outer loop
vertex 0.02372408796 -0.1151424102 -0.353618223
vertex -0.1593986976 -0.06817854817 -0.2906234582
vertex -0.04140576955 0.07387112003 -0.288577617
endloop
endfacet
facet normal -0.9162793695 -0.05686872937 0.3964821114
outer loop
vertex -0.2292077359 0.4198225807 0.3439664953
vertex -0.2967200639 0.4270353838 0.1889784931
vertex -0.2601028487 0.2884517244 0.2537242193
endloop
endfacet
facet normal 0.9825250372 0.02251351437 0.1847638845
outer loop
vertex 0.2866564633 -0.1469165259 0.04429013117
vertex 0.2979896291 0.005864836716 -0.03459305842
vertex 0.2659805976 -0.02181265379 0.1389949377
endloop
endfacet
facet normal -0.6540444665 0.248906557 -0.7143328088
outer loop
vertex -0.2456333268 0.3336836831 -0.0703218196
vertex -0.1315788077 0.4520799972 -0.1334956059
vertex -0.1397055681 0.2470999422 -0.1974792511
endloop
endfacet
facet normal -0.2276047379 0.2983575476 -0.9269190132
outer loop
vertex -0.1315788077 0.4520799972 -0.1334956059
vertex 0.003220446685 0.3578363148 -0.1969307734
vertex -0.1397055681 0.2470999422 -0.1974792511
endloop
endfacet
facet normal -0.964181425 -0.1537982826 0.2161024478
outer loop
vertex -0.2967200639 0.4270353838 0.1889784931
vertex -0.2997551845 0.3058159113 0.08916586353
vertex -0.2601028487 0.2884517244 0.2537242193
endloop
endfacet
facet normal -0.9477213443 0.01692673413 -0.3186498693
outer loop
vertex -0.2743886951 0.4472505177 0.02123444564
vertex -0.2456333268 0.3336836831 -0.0703218196
vertex -0.2997551845 0.3058159113 0.08916586353
endloop
endfacet
facet normal -0.003405781966 -0.2103178958 0.9776271188
outer loop
vertex -0.001729760661 -0.1814598339 0.2557358982
vertex 0.1007749876 -0.02302564296 0.2901771016
vertex -0.09277483907 -0.05304653606 0.283044403
endloop
endfacet
facet normal -0.6025715654 -0.13884455 0.7858942038
outer loop
vertex -0.1834540533 -0.1743926065 0.192079288
vertex -0.09277483907 -0.05304653606 0.283044403
vertex -0.2483663639 -0.0271362001 0.1683247381
endloop
endfacet
facet normal -0.9552633906 0.01180347551 0.2955207818
outer loop
vertex -0.2877363262 -0.1326441979 0.04527646239
vertex -0.2483663639 -0.0271362001 0.1683247381
vertex -0.2997982804 0.03371007624 -0.0003578980512
endloop
endfacet
facet normal -0.1628634553 -0.3073274034 0.9375635243
outer loop
vertex 0.01850626286 0.3951586893 0.4473450765
vertex -0.1145414839 0.4389546354 0.438589487
vertex -0.1111368866 0.2827273859 0.387970591
endloop
endfacet
facet normal -0.5881781506 -0.2608490926 0.7655091208
outer loop
vertex -0.1145414839 0.4389546354 0.438589487
vertex -0.2292077359 0.4198225807 0.3439664953
vertex -0.1111368866 0.2827273859 0.387970591
endloop
endfacet
facet normal 0.7910691005 0.1106180473 -0.6016421908
outer loop
vertex 0.177159036 0.3413407778 -0.1414204808
vertex 0.2317711497 0.4576704511 -0.04822535943
vertex 0.2795885204 0.3020636514 -0.01396259601
endloop
endfacet
facet normal 0.6715981979 -0.107811519 0.7330296971
outer loop
vertex 0.1825597724 -0.1734329369 0.1931248904
vertex 0.2659805976 -0.02181265379 0.1389949377
vertex 0.1007749876 -0.02302564296 0.2901771016
endloop
endfacet
facet normal -0.9942948781 -0.08844883803 -0.05961961415
outer loop
vertex -0.2877363262 -0.1326441979 0.04527646239
vertex -0.2997982804 0.03371007624 -0.0003578980512
vertex -0.2808940845 -0.0850742881 -0.1394062001
endloop
endfacet
facet normal 0.9942766401 -0.08211954775 -0.06833990692
outer loop
vertex 0.2795885204 0.3020636514 -0.01396259601
vertex 0.2981192419 0.426044704 0.1066608568
vertex 0.2893490822 0.265477839 0.1720064749
endloop
endfacet
facet normal 0.9190687443 0.182136399 -0.3494838699
outer loop
vertex 0.2979896291 0.005864836716 -0.03459305842
vertex 0.2890152559 -0.1253200943 -0.126561872
vertex 0.2389767325 0.008916026079 -0.1881943566
endloop
endfacet
facet normal 0.9839214875 0.01855026132 0.1776355659
outer loop
vertex 0.2893490822 0.265477839 0.1720064749
vertex 0.2981192419 0.426044704 0.1066608568
vertex 0.2689698097 0.3941640944 0.2714485005
endloop
endfacet
facet normal -0.9403262975 0.1824661802 -0.2872151587
outer loop
vertex -0.2997551845 0.3058159113 0.08916586353
vertex -0.2456333268 0.3336836831 -0.0703218196
vertex -0.281605066 0.1838341608 -0.04775092734
endloop
endfacet
facet normal 0.3132437386 0.3916690789 -0.8651437412
outer loop
vertex 0.003220446685 0.3578363148 -0.1969307734
vertex 0.177159036 0.3413407778 -0.1414204808
vertex 0.06923999157 0.2289771892 -0.2313642722
endloop
endfacet
facet normal 0.9790308735 -0.125408384 0.1605343765
outer loop
vertex 0.2659805976 -0.02181265379 0.1389949377
vertex 0.2979896291 0.005864836716 -0.03459305842
vertex 0.2998033703 0.1377289551 0.0573570752
endloop
endfacet
facet normal 0.7901405888 0.2611440671 -0.5545102579
outer loop
vertex 0.177159036 0.3413407778 -0.1414204808
vertex 0.2795885204 0.3020636514 -0.01396259601
vertex 0.2456024464 0.1674989353 -0.1257631495
endloop
endfacet
facet normal -0.9573395792 -0.1778678032 0.2277366344
outer loop
vertex -0.2997982804 0.03371007624 -0.0003578980512
vertex -0.2483663639 -0.0271362001 0.1683247381
vertex -0.2830472511 0.1364048509 0.1502657267
endloop
endfacet
facet normal -0.6394573894 -0.3274486806 0.6956088043
outer loop
vertex -0.1111368866 0.2827273859 0.387970591
vertex -0.2292077359 0.4198225807 0.3439664953
vertex -0.2601028487 0.2884517244 0.2537242193
endloop
endfacet
facet normal 0.0256525723 -0.384616601 0.922719901
outer loop
vertex -0.09277483907 -0.05304653606 0.283044403
vertex 0.1007749876 -0.02302564296 0.2901771016
vertex -0.04449607498 0.1067902323 0.3483268359
endloop
endfacet
facet normal -0.9176769531 0.2317508834 -0.3227391171
outer loop
vertex -0.2808940845 -0.0850742881 -0.1394062001
vertex -0.2997982804 0.03371007624 -0.0003578980512
vertex -0.2240774967 0.0769513677 -0.1846120136
endloop
endfacet
facet normal 0.9293779997 0.10094951 -0.3550573618
outer loop
vertex 0.2979896291 0.005864836716 -0.03459305842
vertex 0.2389767325 0.008916026079 -0.1881943566
vertex 0.2456024464 0.1674989353 -0.1257631495
endloop
endfacet
facet normal -0.5871041748 -0.393609849 0.7073754128
outer loop
vertex -0.2483663639 -0.0271362001 0.1683247381
vertex -0.09277483907 -0.05304653606 0.283044403
vertex -0.1822882269 0.05776491504 0.2704100861
endloop
endfacet
facet normal -0.7941378885 -0.1022540227 0.5990735588
outer loop
vertex -0.2830472511 0.1364048509 0.1502657267
vertex -0.2483663639 -0.0271362001 0.1683247381
vertex -0.1822882269 0.05776491504 0.2704100861
endloop
endfacet
facet normal -0.4140636768 -0.2341908438 0.8796055481
outer loop
vertex -0.09277483907 -0.05304653606 0.283044403
vertex -0.04449607498 0.1067902323 0.3483268359
vertex -0.1822882269 0.05776491504 0.2704100861
endloop
endfacet
facet normal 0.9935793159 0.1088852899 -0.03072680597
outer loop
vertex 0.2795885204 0.3020636514 -0.01396259601
vertex 0.2893490822 0.265477839 0.1720064749
vertex 0.2998033703 0.1377289551 0.0573570752
endloop
endfacet
facet normal -0.9723903666 -0.01184538333 0.2330593527
outer loop
vertex -0.2601028487 0.2884517244 0.2537242193
vertex -0.2997551845 0.3058159113 0.08916586353
vertex -0.2830472511 0.1364048509 0.1502657267
endloop
endfacet
facet normal 0.6377688833 -0.3335659505 0.6942511132
outer loop
vertex 0.1007749876 -0.02302564296 0.2901771016
vertex 0.2659805976 -0.02181265379 0.1389949377
vertex 0.2364059854 0.1226202944 0.2355589616
endloop
endfacet
facet normal 0.6266832328 0.1915860108 -0.7553561585
outer loop
vertex 0.2389767325 0.008916026079 -0.1881943566
vertex 0.1160131955 -0.0106305172 -0.2951690999
vertex 0.1454699061 0.1070216934 -0.2408893487
endloop
endfacet
facet normal 0.8427775194 -0.2391619902 0.4822111521
outer loop
vertex 0.2893490822 0.265477839 0.1720064749
vertex 0.2689698097 0.3941640944 0.2714485005
vertex 0.20238203 0.2527063449 0.3176676034
endloop
endfacet
facet normal 0.7511830625 -0.1430511904 0.644406986
outer loop
vertex 0.2689698097 0.3941640944 0.2714485005
vertex 0.1623530967 0.380014574 0.392590209
vertex 0.20238203 0.2527063449 0.3176676034
endloop
endfacet
facet normal -0.4512814912 0.3864397312 -0.804368914
outer loop
vertex -0.04140576955 0.07387112003 -0.288577617
vertex -0.1593986976 -0.06817854817 -0.2906234582
vertex -0.2240774967 0.0769513677 -0.1846120136
endloop
endfacet
facet normal -0.1413957683 0.1873123733 -0.9720706309
outer loop
vertex 0.003220446685 0.3578363148 -0.1969307734
vertex 0.06923999157 0.2289771892 -0.2313642722
vertex -0.1397055681 0.2470999422 -0.1974792511
endloop
endfacet
facet normal 0.9425305637 -0.02951448897 0.3328138089
outer loop
vertex 0.2659805976 -0.02181265379 0.1389949377
vertex 0.2998033703 0.1377289551 0.0573570752
vertex 0.2364059854 0.1226202944 0.2355589616
endloop
endfacet
facet normal 0.5440761822 0.1396943802 -0.8273249592
outer loop
vertex 0.177159036 0.3413407778 -0.1414204808
vertex 0.2456024464 0.1674989353 -0.1257631495
vertex 0.06923999157 0.2289771892 -0.2313642722
endloop
endfacet
facet normal -0.7810237927 0.101977385 -0.6161188588
outer loop
vertex -0.1593986976 -0.06817854817 -0.2906234582
vertex -0.2808940845 -0.0850742881 -0.1394062001
vertex -0.2240774967 0.0769513677 -0.1846120136
endloop
endfacet
facet normal -0.9242011341 -0.008532801637 -0.3818107581
outer loop
vertex -0.2240774967 0.0769513677 -0.1846120136
vertex -0.2997982804 0.03371007624 -0.0003578980512
vertex -0.281605066 0.1838341608 -0.04775092734
endloop
endfacet
facet normal -0.9915606408 0.1275283506 0.02332413767
outer loop
vertex -0.2997982804 0.03371007624 -0.0003578980512
vertex -0.2830472511 0.1364048509 0.1502657267
vertex -0.281605066 0.1838341608 -0.04775092734
endloop
endfacet
facet normal -0.6686540478 -0.08968606819 0.7381450897
outer loop
vertex -0.1111368866 0.2827273859 0.387970591
vertex -0.2601028487 0.2884517244 0.2537242193
vertex -0.1888849049 0.1770783222 0.3047054212
endloop
endfacet
facet normal -0.09997850467 -0.3720494769 0.9228128116
outer loop
vertex 0.01850626286 0.3951586893 0.4473450765
vertex -0.1111368866 0.2827273859 0.387970591
vertex 0.0588871045 0.2530449288 0.3944241228
endloop
endfacet
facet normal 0.605315607 -0.2849796783 0.7432224424
outer loop
vertex 0.2364059854 0.1226202944 0.2355589616
vertex 0.1210082647 0.1364006361 0.3348282442
vertex 0.1007749876 -0.02302564296 0.2901771016
endloop
endfacet
facet normal 0.9275597777 -0.2046725402 0.312637186
outer loop
vertex 0.2998033703 0.1377289551 0.0573570752
vertex 0.2893490822 0.265477839 0.1720064749
vertex 0.2364059854 0.1226202944 0.2355589616
endloop
endfacet
facet normal 0.9586153301 -0.005615465735 -0.2846491092
outer loop
vertex 0.2456024464 0.1674989353 -0.1257631495
vertex 0.2795885204 0.3020636514 -0.01396259601
vertex 0.2998033703 0.1377289551 0.0573570752
endloop
endfacet
facet normal -0.993353706 -0.1100874515 -0.03360309146
outer loop
vertex -0.2997551845 0.3058159113 0.08916586353
vertex -0.281605066 0.1838341608 -0.04775092734
vertex -0.2830472511 0.1364048509 0.1502657267
endloop
endfacet
facet normal -0.7396942618 0.07686763202 -0.6685385301
outer loop
vertex -0.2456333268 0.3336836831 -0.0703218196
vertex -0.1397055681 0.2470999422 -0.1974792511
vertex -0.281605066 0.1838341608 -0.04775092734
endloop
endfacet
facet normal 0.1651901578 0.3787674233 -0.9106302492
outer loop
vertex 0.1160131955 -0.0106305172 -0.2951690999
vertex -0.04140576955 0.07387112003 -0.288577617
vertex 0.1454699061 0.1070216934 -0.2408893487
endloop
endfacet
facet normal 0.3215632019 -0.2488420141 0.9136053629
outer loop
vertex 0.1623530967 0.380014574 0.392590209
vertex 0.01850626286 0.3951586893 0.4473450765
vertex 0.0588871045 0.2530449288 0.3944241228
endloop
endfacet
facet normal 0.8584216288 -0.09378652286 0.5042979232
outer loop
vertex 0.2364059854 0.1226202944 0.2355589616
vertex 0.2893490822 0.265477839 0.1720064749
vertex 0.20238203 0.2527063449 0.3176676034
endloop
endfacet
facet normal -0.07991198811 -0.2478247613 0.9655034758
outer loop
vertex 0.0588871045 0.2530449288 0.3944241228
vertex -0.1111368866 0.2827273859 0.387970591
vertex -0.04449607498 0.1067902323 0.3483268359
endloop
endfacet
facet normal 0.6613796548 0.2506701481 -0.7069239203
outer loop
vertex 0.2456024464 0.1674989353 -0.1257631495
vertex 0.2389767325 0.008916026079 -0.1881943566
vertex 0.1454699061 0.1070216934 -0.2408893487
endloop
endfacet
facet normal -0.7941488725 -0.2553913257 0.5514552013
outer loop
vertex -0.1888849049 0.1770783222 0.3047054212
vertex -0.2601028487 0.2884517244 0.2537242193
vertex -0.2830472511 0.1364048509 0.1502657267
endloop
endfacet
facet normal 0.952733285 0.1648461968 -0.2551960403
outer loop
vertex 0.2998033703 0.1377289551 0.0573570752
vertex 0.2979896291 0.005864836716 -0.03459305842
vertex 0.2456024464 0.1674989353 -0.1257631495
endloop
endfacet
facet normal -0.484718227 0.1755586423 -0.8568707041
outer loop
vertex -0.04140576955 0.07387112003 -0.288577617
vertex -0.2240774967 0.0769513677 -0.1846120136
vertex -0.1397055681 0.2470999422 -0.1974792511
endloop
endfacet
facet normal -0.750900993 0.3290485387 -0.572603491
outer loop
vertex -0.281605066 0.1838341608 -0.04775092734
vertex -0.1397055681 0.2470999422 -0.1974792511
vertex -0.2240774967 0.0769513677 -0.1846120136
endloop
endfacet
facet normal 0.4415687694 -0.3478834001 0.8270393956
outer loop
vertex 0.20238203 0.2527063449 0.3176676034
vertex 0.1623530967 0.380014574 0.392590209
vertex 0.0588871045 0.2530449288 0.3944241228
endloop
endfacet
facet normal -0.1108427534 0.4125811251 -0.9041519227
outer loop
vertex -0.1397055681 0.2470999422 -0.1974792511
vertex 0.06923999157 0.2289771892 -0.2313642722
vertex -0.04140576955 0.07387112003 -0.288577617
endloop
endfacet
facet normal 0 1 0
outer loop
vertex 0.01983638175 1.2 0.2236699886
vertex -0.1296143551 1.2 0.2822094387
vertex 0.001657911739 1.2 0.4083182008
endloop
endfacet
facet normal 0.5985370296 -0.3097631553 0.7387829261
outer loop
vertex 0.2364059854 0.1226202944 0.2355589616
vertex 0.20238203 0.2527063449 0.3176676034
vertex 0.1210082647 0.1364006361 0.3348282442
endloop
endfacet
facet normal -0.4224445097 -0.3485435755 0.8366946947
outer loop
vertex -0.1111368866 0.2827273859 0.387970591
vertex -0.1888849049 0.1770783222 0.3047054212
vertex -0.04449607498 0.1067902323 0.3483268359
endloop
endfacet
facet normal -0.3977954281 -0.2737031342 0.875697089
outer loop
vertex -0.04449607498 0.1067902323 0.3483268359
vertex -0.1888849049 0.1770783222 0.3047054212
vertex -0.1822882269 0.05776491504 0.2704100861
endloop
endfacet
facet normal 0.4621840828 -0.1957537499 0.8649082859
outer loop
vertex 0.20238203 0.2527063449 0.3176676034
vertex 0.0588871045 0.2530449288 0.3944241228
vertex 0.1210082647 0.1364006361 0.3348282442
endloop
endfacet
facet normal 0.56951117 0.4115534471 -0.7115341084
outer loop
vertex 0.2456024464 0.1674989353 -0.1257631495
vertex 0.1454699061 0.1070216934 -0.2408893487
vertex 0.06923999157 0.2289771892 -0.2313642722
endloop
endfacet
facet normal 0.1280819462 -0.2825142167 0.9506738307
outer loop
vertex -0.04449607498 0.1067902323 0.3483268359
vertex 0.1007749876 -0.02302564296 0.2901771016
vertex 0.1210082647 0.1364006361 0.3348282442
endloop
endfacet
facet normal 0.2078011383 0.2045970103 -0.9565347617
outer loop
vertex 0.1454699061 0.1070216934 -0.2408893487
vertex -0.04140576955 0.07387112003 -0.288577617
vertex 0.06923999157 0.2289771892 -0.2313642722
endloop
endfacet
facet normal 0.1437371243 -0.3884781066 0.9101782242
outer loop
vertex 0.0588871045 0.2530449288 0.3944241228
vertex -0.04449607498 0.1067902323 0.3483268359
vertex 0.1210082647 0.1364006361 0.3348282442
endloop
endfacet
facet normal 0 1 -0
outer loop
vertex -0.1296143551 1.2 0.2822094387
vertex -0.1599610074 1.2 0.4415272842
vertex 0.001657911739 1.2 0.4083182008
endloop
endfacet
facet normal -0.8115436983 -0.2024172614 0.5481095493
outer loop
vertex -0.1888849049 0.1770783222 0.3047054212
vertex -0.2830472511 0.1364048509 0.1502657267
vertex -0.1822882269 0.05776491504 0.2704100861
endloop
endfacet
facet normal 0 -1 -0
outer loop
vertex -0.2672323246 -0.9 -0.1562916353
vertex -0.3 -0.9 -0.3
vertex -0.1678845696 -0.9 -0.2544156824
endloop
endfacet
facet normal 0 -1 -0
outer loop
vertex -0.1734266246 -0.9 -0.04196639781
vertex -0.2672323246 -0.9 -0.1562916353
vertex -0.0983852263 -0.9 -0.1411463026
endloop
endfacet
facet normal 0 -1 0
outer loop
vertex -0.2672323246 -0.9 -0.1562916353
vertex -0.1678845696 -0.9 -0.2544156824
vertex -0.0983852263 -0.9 -0.1411463026
endloop
endfacet
facet normal 0 -1 0
outer loop
vertex -0.03756045614 -0.9 0.01373947461
vertex -0.1734266246 -0.9 -0.04196639781
vertex -0.0983852263 -0.9 -0.1411463026
endloop
endfacet
facet normal -0 -1 0
outer loop
vertex 0.1095055025 -0.9 -0.005591846213
vertex -0.03756045614 -0.9 0.01373947461
vertex 0.05650101509 -0.9 -0.1357730488
endloop
endfacet
facet normal 0 -1 -0
outer loop
vertex -0.03756045614 -0.9 0.01373947461
vertex -0.0983852263 -0.9 -0.1411463026
vertex 0.05650101509 -0.9 -0.1357730488
endloop
endfacet
facet normal -0 -1 0
outer loop
vertex 0.2271942463 -0.9 -0.09348722277
vertex 0.1095055025 -0.9 -0.005591846213
vertex 0.05650101509 -0.9 -0.1357730488
endloop
endfacet
facet normal -0 -1 0
outer loop
vertex 0.2917359354 -0.9 -0.2262877669
vertex 0.2271942463 -0.9 -0.09348722277
vertex 0.158846296 -0.9 -0.2591291767
endloop
endfacet
facet normal 0 -1 0
outer loop
vertex 0.2917335475 -0.9 -0.3737227335
vertex 0.2917359354 -0.9 -0.2262877669
vertex 0.158846296 -0.9 -0.2591291767
endloop
endfacet
facet normal 0 -1 0
outer loop
vertex 0.2271942463 -0.9 -0.09348722277
vertex 0.05650101509 -0.9 -0.1357730488
vertex 0.158846296 -0.9 -0.2591291767
endloop
endfacet
facet normal 0 -1 0
outer loop
vertex 0.2272602595 -0.9 -0.5064320562
vertex 0.2917335475 -0.9 -0.3737227335
vertex 0.1203154683 -0.9 -0.4147463528
endloop
endfacet
facet normal -0 -1 0
outer loop
vertex 0.2917335475 -0.9 -0.3737227335
vertex 0.158846296 -0.9 -0.2591291767
vertex 0.1203154683 -0.9 -0.4147463528
endloop
endfacet
facet normal 0 -1 0
outer loop
vertex 0.1094960736 -0.9 -0.5944120504
vertex 0.2272602595 -0.9 -0.5064320562
vertex 0.1203154683 -0.9 -0.4147463528
endloop
endfacet
facet normal 0 -1 0
outer loop
vertex -0.03594952337 -0.9 -0.6139490967
vertex 0.1094960736 -0.9 -0.5944120504
vertex -0.02230301955 -0.9 -0.4788385052
endloop
endfacet
facet normal 0 -1 0
outer loop
vertex -0.1734048232 -0.9 -0.5580498817
vertex -0.03594952337 -0.9 -0.6139490967
vertex -0.02230301955 -0.9 -0.4788385052
endloop
endfacet
facet normal 0 -1 0
outer loop
vertex 0.1094960736 -0.9 -0.5944120504
vertex 0.1203154683 -0.9 -0.4147463528
vertex -0.02230301955 -0.9 -0.4788385052
endloop
endfacet
facet normal 0 -1 0
outer loop
vertex -0.2672944607 -0.9 -0.4435799091
vertex -0.1734048232 -0.9 -0.5580498817
vertex -0.1554119109 -0.9 -0.3947570831
endloop
endfacet
facet normal 0 -1 0
outer loop
vertex -0.3 -0.9 -0.3
vertex -0.2672944607 -0.9 -0.4435799091
vertex -0.1554119109 -0.9 -0.3947570831
endloop
endfacet
facet normal 0 -1 0
outer loop
vertex -0.1734048232 -0.9 -0.5580498817
vertex -0.02230301955 -0.9 -0.4788385052
vertex -0.1554119109 -0.9 -0.3947570831
endloop
endfacet
facet normal 0 -1 0
outer loop
vertex -0.3 -0.9 -0.3
vertex -0.1554119109 -0.9 -0.3947570831
vertex -0.1678845696 -0.9 -0.2544156824
endloop
endfacet
facet normal 0 -1 0
outer loop
vertex 0.05650101509 -0.9 -0.1357730488
vertex -0.0983852263 -0.9 -0.1411463026
vertex -0.01261700444 -0.9 -0.2969201034
endloop
endfacet
facet normal -0 -1 0
outer loop
vertex 0.158846296 -0.9 -0.2591291767
vertex 0.05650101509 -0.9 -0.1357730488
vertex -0.01261700444 -0.9 -0.2969201034
endloop
endfacet
facet normal 0 -1 -0
outer loop
vertex -0.0983852263 -0.9 -0.1411463026
vertex -0.1678845696 -0.9 -0.2544156824
vertex -0.01261700444 -0.9 -0.2969201034
endloop
endfacet
facet normal 0 -1 0
outer loop
vertex 0.1203154683 -0.9 -0.4147463528
vertex 0.158846296 -0.9 -0.2591291767
vertex -0.01261700444 -0.9 -0.2969201034
endloop
endfacet
facet normal 0 -1 0
outer loop
vertex -0.02230301955 -0.9 -0.4788385052
vertex 0.1203154683 -0.9 -0.4147463528
vertex -0.01261700444 -0.9 -0.2969201034
endloop
endfacet
facet normal 0 -1 0
outer loop
vertex -0.1678845696 -0.9 -0.2544156824
vertex -0.1554119109 -0.9 -0.3947570831
vertex -0.01261700444 -0.9 -0.2969201034
endloop
endfacet
facet normal 0 -1 0
outer loop
vertex -0.1554119109 -0.9 -0.3947570831
vertex -0.02230301955 -0.9 -0.4788385052
vertex -0.01261700444 -0.9 -0.2969201034
endloop
endfacet
facet normal 0 1 0
outer loop
vertex 0.2670014751 1.2 0.544184343
vertex 0.3 1.2 0.4
vertex 0.173156202 1.2 0.4451267568
endloop
endfacet
facet normal 0 1 0
outer loop
vertex 0.1733590857 1.2 0.6580840247
vertex 0.2670014751 1.2 0.544184343
vertex 0.09342533212 1.2 0.5630859318
endloop
endfacet
facet normal 0 1 0
outer loop
vertex 0.2670014751 1.2 0.544184343
vertex 0.173156202 1.2 0.4451267568
vertex 0.09342533212 1.2 0.5630859318
endloop
endfacet
facet normal 0 1 0
outer loop
vertex 0.03753055392 1.2 0.7137434506
vertex 0.1733590857 1.2 0.6580840247
vertex 0.09342533212 1.2 0.5630859318
endloop
endfacet
facet normal -0 1 0
outer loop
vertex -0.1086126997 1.2 0.6947753975
vertex 0.03753055392 1.2 0.7137434506
vertex -0.06171315464 1.2 0.5674546258
endloop
endfacet
facet normal -0 1 0
outer loop
vertex -0.22684207 1.2 0.6069424914
vertex -0.1086126997 1.2 0.6947753975
vertex -0.06171315464 1.2 0.5674546258
endloop
endfacet
facet normal 0 1 0
outer loop
vertex 0.03753055392 1.2 0.7137434506
vertex 0.09342533212 1.2 0.5630859318
vertex -0.06171315464 1.2 0.5674546258
endloop
endfacet
facet normal -0 1 0
outer loop
vertex -0.2915464705 1.2 0.4745404852
vertex -0.22684207 1.2 0.6069424914
vertex -0.1599610074 1.2 0.4415272842
endloop
endfacet
facet normal 0 1 0
outer loop
vertex -0.22684207 1.2 0.6069424914
vertex -0.06171315464 1.2 0.5674546258
vertex -0.1599610074 1.2 0.4415272842
endloop
endfacet
facet normal 0 1 0
outer loop
vertex -0.2915508839 1.2 0.3254786973
vertex -0.2915464705 1.2 0.4745404852
vertex -0.1599610074 1.2 0.4415272842
endloop
endfacet
facet normal 0 1 -0
outer loop
vertex -0.2270051355 1.2 0.193256282
vertex -0.2915508839 1.2 0.3254786973
vertex -0.1296143551 1.2 0.2822094387
endloop
endfacet
facet normal 0 1 0
outer loop
vertex -0.1091072214 1.2 0.10542759
vertex -0.2270051355 1.2 0.193256282
vertex -0.1296143551 1.2 0.2822094387
endloop
endfacet
facet normal -0 1 0
outer loop
vertex -0.2915508839 1.2 0.3254786973
vertex -0.1599610074 1.2 0.4415272842
vertex -0.1296143551 1.2 0.2822094387
endloop
endfacet
facet normal 0 1 0
outer loop
vertex 0.03665430985 1.2 0.08614146575
vertex -0.1091072214 1.2 0.10542759
vertex 0.01983638175 1.2 0.2236699886
endloop
endfacet
facet normal 0 1 0
outer loop
vertex 0.1735664569 1.2 0.1420708861
vertex 0.03665430985 1.2 0.08614146575
vertex 0.01983638175 1.2 0.2236699886
endloop
endfacet
facet normal 0 1 -0
outer loop
vertex -0.1091072214 1.2 0.10542759
vertex -0.1296143551 1.2 0.2822094387
vertex 0.01983638175 1.2 0.2236699886
endloop
endfacet
facet normal 0 1 0
outer loop
vertex 0.2672537417 1.2 0.256335895
vertex 0.1735664569 1.2 0.1420708861
vertex 0.155086587 1.2 0.3070092177
endloop
endfacet
facet normal 0 1 0
outer loop
vertex 0.3 1.2 0.4
vertex 0.2672537417 1.2 0.256335895
vertex 0.155086587 1.2 0.3070092177
endloop
endfacet
facet normal 0 1 0
outer loop
vertex 0.1735664569 1.2 0.1420708861
vertex 0.01983638175 1.2 0.2236699886
vertex 0.155086587 1.2 0.3070092177
endloop
endfacet
facet normal 0 1 0
outer loop
vertex 0.3 1.2 0.4
vertex 0.155086587 1.2 0.3070092177
vertex 0.173156202 1.2 0.4451267568
endloop
endfacet
facet normal 0 1 0
outer loop
vertex 0.173156202 1.2 0.4451267568
vertex 0.155086587 1.2 0.3070092177
vertex 0.001657911739 1.2 0.4083182008
endloop
endfacet
facet normal 0 1 0
outer loop
vertex 0.09342533212 1.2 0.5630859318
vertex 0.173156202 1.2 0.4451267568
vertex 0.001657911739 1.2 0.4083182008
endloop
endfacet
facet normal 0 1 0
outer loop
vertex 0.155086587 1.2 0.3070092177
vertex 0.01983638175 1.2 0.2236699886
vertex 0.001657911739 1.2 0.4083182008
endloop
endfacet
facet normal 0 1 0
outer loop
vertex -0.06171315464 1.2 0.5674546258
vertex 0.09342533212 1.2 0.5630859318
vertex 0.001657911739 1.2 0.4083182008
endloop
endfacet
facet normal -0 1 0
outer loop
vertex -0.1599610074 1.2 0.4415272842
vertex -0.06171315464 1.2 0.5674546258
vertex 0.001657911739 1.2 0.4083182008
endloop
endfacet
endsolid
