solid
facet normal 0.960673102 0.2267841562 0.1602377534
outer loop
vertex 1 0 0
vertex 0.894427191 0.4472135955 0
vertex 0.8835239469 0.1913237647 0.4275285398
endloop
endfacet
facet normal 0.9630590615 0.2273474049 -0.1443274113
outer loop
vertex 0.894427191 0.4472135955 0
vertex 1 0 0
vertex 0.8851945839 0.2293814579 -0.4047402813
endloop
endfacet
facet normal 0.8688640732 0.4273828275 -0.2498382299
outer loop
vertex 0.894427191 0.4472135955 0
vertex 0.8851945839 0.2293814579 -0.4047402813
vertex 0.7199384713 0.6222544391 -0.3073890215
endloop
endfacet
facet normal 0.7548778814 0.6534349836 -0.05641016128
outer loop
vertex 0.894427191 0.4472135955 0
vertex 0.7199384713 0.6222544391 -0.3073890215
vertex 0.5819777788 0.8119958381 0.04432407802
endloop
endfacet
facet normal 0.9613162994 -0.02724914499 0.2740957069
outer loop
vertex 1 0 0
vertex 0.8835239469 0.1913237647 0.4275285398
vertex 0.8871245073 -0.2782552589 0.3682174894
endloop
endfacet
facet normal 0.8499144393 0.4422898549 0.286400297
outer loop
vertex 0.8835239469 0.1913237647 0.4275285398
vertex 0.894427191 0.4472135955 0
vertex 0.6661090421 0.5931291181 0.4522129956
endloop
endfacet
facet normal 0.7577605103 0.6271511058 0.180223471
outer loop
vertex 0.894427191 0.4472135955 0
vertex 0.5819777788 0.8119958381 0.04432407802
vertex 0.6661090421 0.5931291181 0.4522129956
endloop
endfacet
facet normal 0.9608630697 -0.007703451522 -0.2769166268
outer loop
vertex 0.8851945839 0.2293814579 -0.4047402813
vertex 1 0 0
vertex 0.8773055603 -0.2336188081 -0.419234071
endloop
endfacet
facet normal 0.9642797971 -0.2046609711 -0.1681617076
outer loop
vertex 0.8773055603 -0.2336188081 -0.419234071
vertex 1 0 0
vertex 0.9107434569 -0.412866966 -0.009339385908
endloop
endfacet
facet normal 0.9676683236 -0.2122788724 0.1362192934
outer loop
vertex 1 0 0
vertex 0.8871245073 -0.2782552589 0.3682174894
vertex 0.9107434569 -0.412866966 -0.009339385908
endloop
endfacet
facet normal 0.8374425281 0.002839120262 -0.5465180248
outer loop
vertex 0.8851945839 0.2293814579 -0.4047402813
vertex 0.8773055603 -0.2336188081 -0.419234071
vertex 0.6598295069 0.01947250173 -0.751162994
endloop
endfacet
facet normal 0.7496027966 0.4382243414 -0.4960393875
outer loop
vertex 0.7199384713 0.6222544391 -0.3073890215
vertex 0.8851945839 0.2293814579 -0.4047402813
vertex 0.5584669572 0.4831024625 -0.6743342409
endloop
endfacet
facet normal 0.7275262132 0.2639952702 -0.6332551669
outer loop
vertex 0.8851945839 0.2293814579 -0.4047402813
vertex 0.6598295069 0.01947250173 -0.751162994
vertex 0.5584669572 0.4831024625 -0.6743342409
endloop
endfacet
facet normal 0.560748684 0.8004238115 -0.2118552227
outer loop
vertex 0.5819777788 0.8119958381 0.04432407802
vertex 0.7199384713 0.6222544391 -0.3073890215
vertex 0.3629716469 0.8566721673 -0.3665574735
endloop
endfacet
facet normal 0.8707965384 -0.05503076932 0.4885539921
outer loop
vertex 0.8871245073 -0.2782552589 0.3682174894
vertex 0.8835239469 0.1913237647 0.4275285398
vertex 0.7192442501 -0.09992825099 0.6875333107
endloop
endfacet
facet normal 0.5328284174 0.6864912633 -0.4947965471
outer loop
vertex 0.7199384713 0.6222544391 -0.3073890215
vertex 0.5584669572 0.4831024625 -0.6743342409
vertex 0.3629716469 0.8566721673 -0.3665574735
endloop
endfacet
facet normal 0.3696607205 0.9241368427 -0.0965507519
outer loop
vertex 0.5819777788 0.8119958381 0.04432407802
vertex 0.3629716469 0.8566721673 -0.3665574735
vertex 0.1397053481 0.9891113186 0.04627326585
endloop
endfacet
facet normal 0.7254887319 -0.2281720915 -0.6493100928
outer loop
vertex 0.6598295069 0.01947250173 -0.751162994
vertex 0.8773055603 -0.2336188081 -0.419234071
vertex 0.5662492878 -0.4493504313 -0.6909746261
endloop
endfacet
facet normal 0.7533190216 -0.3198080198 0.5746592749
outer loop
vertex 0.8871245073 -0.2782552589 0.3682174894
vertex 0.7192442501 -0.09992825099 0.6875333107
vertex 0.5884223821 -0.4957329766 0.6387549735
endloop
endfacet
facet normal 0.56248171 0.7712979453 0.2978486284
outer loop
vertex 0.6661090421 0.5931291181 0.4522129956
vertex 0.5819777788 0.8119958381 0.04432407802
vertex 0.3381457137 0.8554884973 0.3921694879
endloop
endfacet
facet normal 0.368464622 0.9185089367 0.1434404253
outer loop
vertex 0.5819777788 0.8119958381 0.04432407802
vertex 0.1397053481 0.9891113186 0.04627326585
vertex 0.3381457137 0.8554884973 0.3921694879
endloop
endfacet
facet normal 0.8359016391 -0.4983753245 0.2299793159
outer loop
vertex 0.9107434569 -0.412866966 -0.009339385908
vertex 0.8871245073 -0.2782552589 0.3682174894
vertex 0.671689632 -0.7061831044 0.2239161925
endloop
endfacet
facet normal 0.7500636503 -0.5167836955 0.4127216163
outer loop
vertex 0.8871245073 -0.2782552589 0.3682174894
vertex 0.5884223821 -0.4957329766 0.6387549735
vertex 0.671689632 -0.7061831044 0.2239161925
endloop
endfacet
facet normal 0.747588803 0.1548842347 0.6458497159
outer loop
vertex 0.7192442501 -0.09992825099 0.6875333107
vertex 0.8835239469 0.1913237647 0.4275285398
vertex 0.5584495626 0.2642716008 0.7863171161
endloop
endfacet
facet normal 0.7271193537 0.3574329679 0.5861221024
outer loop
vertex 0.8835239469 0.1913237647 0.4275285398
vertex 0.6661090421 0.5931291181 0.4522129956
vertex 0.5584495626 0.2642716008 0.7863171161
endloop
endfacet
facet normal 0.7413579393 -0.4860800189 -0.4627252112
outer loop
vertex 0.5662492878 -0.4493504313 -0.6909746261
vertex 0.8773055603 -0.2336188081 -0.419234071
vertex 0.6781739312 -0.6863457273 -0.2626969006
endloop
endfacet
facet normal 0.8426812066 -0.4646838797 -0.2719508705
outer loop
vertex 0.8773055603 -0.2336188081 -0.419234071
vertex 0.9107434569 -0.412866966 -0.009339385908
vertex 0.6781739312 -0.6863457273 -0.2626969006
endloop
endfacet
facet normal 0.1518544084 0.9620956866 -0.2265218057
outer loop
vertex 0.1397053481 0.9891113186 0.04627326585
vertex 0.3629716469 0.8566721673 -0.3665574735
vertex -0.0925300093 0.9329698902 -0.3478582777
endloop
endfacet
facet normal 0.5581291829 -0.2143170571 -0.8015984121
outer loop
vertex 0.6598295069 0.01947250173 -0.751162994
vertex 0.5662492878 -0.4493504313 -0.6909746261
vertex 0.3299530105 -0.1926888713 -0.9241222916
endloop
endfacet
facet normal 0.3841627867 0.6984787302 -0.6037767939
outer loop
vertex 0.3629716469 0.8566721673 -0.3665574735
vertex 0.5584669572 0.4831024625 -0.6743342409
vertex 0.1252627844 0.6788657784 -0.7234987836
endloop
endfacet
facet normal 0.518529264 0.2489211948 -0.8180254526
outer loop
vertex 0.5584669572 0.4831024625 -0.6743342409
vertex 0.6598295069 0.01947250173 -0.751162994
vertex 0.2663925826 0.2387924792 -0.9338164401
endloop
endfacet
facet normal 0.4411181548 0.04484208054 -0.8963280434
outer loop
vertex 0.6598295069 0.01947250173 -0.751162994
vertex 0.3299530105 -0.1926888713 -0.9241222916
vertex 0.2663925826 0.2387924792 -0.9338164401
endloop
endfacet
facet normal 0.566083802 -0.2825404892 0.7744159096
outer loop
vertex 0.5884223821 -0.4957329766 0.6387549735
vertex 0.7192442501 -0.09992825099 0.6875333107
vertex 0.3819275098 -0.1706652867 0.9082977139
endloop
endfacet
facet normal 0.4224946265 -0.4042658101 0.8112135633
outer loop
vertex 0.5884223821 -0.4957329766 0.6387549735
vertex 0.3819275098 -0.1706652867 0.9082977139
vertex 0.214957256 -0.5543236302 0.8040638601
endloop
endfacet
facet normal 0.1221727378 0.8535204083 -0.5065340411
outer loop
vertex 0.3629716469 0.8566721673 -0.3665574735
vertex 0.1252627844 0.6788657784 -0.7234987836
vertex -0.0925300093 0.9329698902 -0.3478582777
endloop
endfacet
facet normal 0.5451941675 -0.6649787024 -0.5104572902
outer loop
vertex 0.5662492878 -0.4493504313 -0.6909746261
vertex 0.6781739312 -0.6863457273 -0.2626969006
vertex 0.3057845843 -0.8132156591 -0.4951525823
endloop
endfacet
facet normal 0.5455693668 0.01358655073 0.8379555309
outer loop
vertex 0.7192442501 -0.09992825099 0.6875333107
vertex 0.5584495626 0.2642716008 0.7863171161
vertex 0.3819275098 -0.1706652867 0.9082977139
endloop
endfacet
facet normal -0.1060054107 0.9912435531 -0.07873418163
outer loop
vertex 0.1397053481 0.9891113186 0.04627326585
vertex -0.0925300093 0.9329698902 -0.3478582777
vertex -0.327999519 0.9415346351 0.07699900266
endloop
endfacet
facet normal 0.7688713414 -0.6392079647 -0.01581259883
outer loop
vertex 0.9107434569 -0.412866966 -0.009339385908
vertex 0.671689632 -0.7061831044 0.2239161925
vertex 0.6781739312 -0.6863457273 -0.2626969006
endloop
endfacet
facet normal 0.4463428115 0.6887136886 0.5713593875
outer loop
vertex 0.3381457137 0.8554884973 0.3921694879
vertex 0.2493637278 0.6239780085 0.7405870484
vertex 0.6661090421 0.5931291181 0.4522129956
endloop
endfacet
facet normal 0.3135257503 0.4894387768 -0.8137267893
outer loop
vertex 0.5584669572 0.4831024625 -0.6743342409
vertex 0.2663925826 0.2387924792 -0.9338164401
vertex 0.1252627844 0.6788657784 -0.7234987836
endloop
endfacet
facet normal 0.514838872 -0.7184087873 0.4677924221
outer loop
vertex 0.671689632 -0.7061831044 0.2239161925
vertex 0.5884223821 -0.4957329766 0.6387549735
vertex 0.254347678 -0.8463601651 0.4679548373
endloop
endfacet
facet normal 0.3848730726 -0.6739102 0.6306486822
outer loop
vertex 0.5884223821 -0.4957329766 0.6387549735
vertex 0.214957256 -0.5543236302 0.8040638601
vertex 0.254347678 -0.8463601651 0.4679548373
endloop
endfacet
facet normal 0.0983170078 0.9459575819 0.309027538
outer loop
vertex 0.3381457137 0.8554884973 0.3921694879
vertex 0.1397053481 0.9891113186 0.04627326585
vertex -0.08283492726 0.866608512 0.4920650992
endloop
endfacet
facet normal -0.08397927692 0.9707693257 0.2248430503
outer loop
vertex 0.1397053481 0.9891113186 0.04627326585
vertex -0.327999519 0.9415346351 0.07699900266
vertex -0.08283492726 0.866608512 0.4920650992
endloop
endfacet
facet normal 0.3424802127 -0.4391680657 -0.8305652979
outer loop
vertex 0.3299530105 -0.1926888713 -0.9241222916
vertex 0.5662492878 -0.4493504313 -0.6909746261
vertex 0.1094094608 -0.5625276248 -0.8195073162
endloop
endfacet
facet normal 0.3510070226 -0.6260149309 -0.6963471666
outer loop
vertex 0.5662492878 -0.4493504313 -0.6909746261
vertex 0.3057845843 -0.8132156591 -0.4951525823
vertex 0.1094094608 -0.5625276248 -0.8195073162
endloop
endfacet
facet normal -0.05961149745 0.8104361214 -0.5827862065
outer loop
vertex -0.0925300093 0.9329698902 -0.3478582777
vertex 0.1252627844 0.6788657784 -0.7234987836
vertex -0.2973770297 0.7052576083 -0.6435670969
endloop
endfacet
facet normal 0.4511612999 -0.8548859889 -0.2561707
outer loop
vertex 0.3057845843 -0.8132156591 -0.4951525823
vertex 0.6781739312 -0.6863457273 -0.2626969006
vertex 0.3014901616 -0.9527483505 -0.03707105507
endloop
endfacet
facet normal 0.3700042663 0.1085970016 0.9226611155
outer loop
vertex 0.3819275098 -0.1706652867 0.9082977139
vertex 0.5584495626 0.2642716008 0.7863171161
vertex 0.1065970799 0.1862654324 0.976699673
endloop
endfacet
facet normal -0.3336497528 0.9204757598 -0.2034753499
outer loop
vertex -0.327999519 0.9415346351 0.07699900266
vertex -0.0925300093 0.9329698902 -0.3478582777
vertex -0.550716053 0.775588146 -0.3085042247
endloop
endfacet
facet normal -0.3265586345 0.844637952 -0.4242006463
outer loop
vertex -0.0925300093 0.9329698902 -0.3478582777
vertex -0.2973770297 0.7052576083 -0.6435670969
vertex -0.550716053 0.775588146 -0.3085042247
endloop
endfacet
facet normal 0.5667883139 -0.823452582 -0.02601638668
outer loop
vertex 0.6781739312 -0.6863457273 -0.2626969006
vertex 0.671689632 -0.7061831044 0.2239161925
vertex 0.3014901616 -0.9527483505 -0.03707105507
endloop
endfacet
facet normal 0.5102253743 0.525023507 0.6811904172
outer loop
vertex 0.5584495626 0.2642716008 0.7863171161
vertex 0.6661090421 0.5931291181 0.4522129956
vertex 0.2493637278 0.6239780085 0.7405870484
endloop
endfacet
facet normal 0.3047543404 0.3732649762 0.8762408627
outer loop
vertex 0.1065970799 0.1862654324 0.976699673
vertex 0.5584495626 0.2642716008 0.7863171161
vertex 0.2493637278 0.6239780085 0.7405870484
endloop
endfacet
facet normal 0.1574418139 0.8035453047 0.5740444395
outer loop
vertex 0.3381457137 0.8554884973 0.3921694879
vertex -0.08283492726 0.866608512 0.4920650992
vertex 0.2493637278 0.6239780085 0.7405870484
endloop
endfacet
facet normal 0.1532072121 0.0003666818062 -0.9881940172
outer loop
vertex 0.2663925826 0.2387924792 -0.9338164401
vertex 0.3299530105 -0.1926888713 -0.9241222916
vertex -0.0868437148 -0.1220669357 -0.9887152433
endloop
endfacet
facet normal 0.09163671504 -0.3212600318 -0.9425469243
outer loop
vertex 0.3299530105 -0.1926888713 -0.9241222916
vertex 0.1094094608 -0.5625276248 -0.8195073162
vertex -0.0868437148 -0.1220669357 -0.9887152433
endloop
endfacet
facet normal 0.1872216563 -0.3325970093 0.924298264
outer loop
vertex 0.214957256 -0.5543236302 0.8040638601
vertex 0.3819275098 -0.1706652867 0.9082977139
vertex -0.05848024002 -0.2791902927 0.9584533593
endloop
endfacet
facet normal 0.1205881644 -0.9499398778 -0.2882233912
outer loop
vertex 0.3057845843 -0.8132156591 -0.4951525823
vertex 0.3014901616 -0.9527483505 -0.03707105507
vertex -0.1606118252 -0.8991094322 -0.4071929156
endloop
endfacet
facet normal 0.1336536111 -0.08610359344 0.9872805495
outer loop
vertex 0.3819275098 -0.1706652867 0.9082977139
vertex 0.1065970799 0.1862654324 0.976699673
vertex -0.05848024002 -0.2791902927 0.9584533593
endloop
endfacet
facet normal -0.5374270692 0.8417151606 -0.05184335733
outer loop
vertex -0.327999519 0.9415346351 0.07699900266
vertex -0.550716053 0.775588146 -0.3085042247
vertex -0.7139462355 0.6954067015 0.08179420732
endloop
endfacet
facet normal 0.08324533201 -0.7473928617 0.6591465126
outer loop
vertex 0.254347678 -0.8463601651 0.4679548373
vertex 0.214957256 -0.5543236302 0.8040638601
vertex -0.1834573534 -0.6925280572 0.6976734834
endloop
endfacet
facet normal -0.3543292922 0.8610612278 0.3647249851
outer loop
vertex -0.08283492726 0.866608512 0.4920650992
vertex -0.327999519 0.9415346351 0.07699900266
vertex -0.5476091533 0.6734291544 0.4966058691
endloop
endfacet
facet normal -0.5182416067 0.8175335737 0.2511264483
outer loop
vertex -0.327999519 0.9415346351 0.07699900266
vertex -0.7139462355 0.6954067015 0.08179420732
vertex -0.5476091533 0.6734291544 0.4966058691
endloop
endfacet
facet normal 0.05851139238 0.4456763093 -0.8932799361
outer loop
vertex 0.1252627844 0.6788657784 -0.7234987836
vertex 0.2663925826 0.2387924792 -0.9338164401
vertex -0.2255581807 0.3629353575 -0.9041025569
endloop
endfacet
facet normal -0.0458077876 -0.5230861161 0.8510479198
outer loop
vertex 0.214957256 -0.5543236302 0.8040638601
vertex -0.05848024002 -0.2791902927 0.9584533593
vertex -0.1834573534 -0.6925280572 0.6976734834
endloop
endfacet
facet normal 0.4256567009 -0.8766187841 0.2244011595
outer loop
vertex 0.3014901616 -0.9527483505 -0.03707105507
vertex 0.671689632 -0.7061831044 0.2239161925
vertex 0.254347678 -0.8463601651 0.4679548373
endloop
endfacet
facet normal -0.0173991375 0.1670051585 -0.9858024889
outer loop
vertex 0.2663925826 0.2387924792 -0.9338164401
vertex -0.0868437148 -0.1220669357 -0.9887152433
vertex -0.2255581807 0.3629353575 -0.9041025569
endloop
endfacet
facet normal 0.02698726442 -0.7829656423 -0.6214792761
outer loop
vertex 0.1094094608 -0.5625276248 -0.8195073162
vertex 0.3057845843 -0.8132156591 -0.4951525823
vertex -0.1606118252 -0.8991094322 -0.4071929156
endloop
endfacet
facet normal -0.1150623443 0.586208457 -0.8019478174
outer loop
vertex -0.2973770297 0.7052576083 -0.6435670969
vertex 0.1252627844 0.6788657784 -0.7234987836
vertex -0.2255581807 0.3629353575 -0.9041025569
endloop
endfacet
facet normal -0.06644538286 -0.01554423978 0.997668977
outer loop
vertex -0.05848024002 -0.2791902927 0.9584533593
vertex 0.1065970799 0.1862654324 0.976699673
vertex -0.307961679 0.08577664705 0.9475241269
endloop
endfacet
facet normal -0.741420248 0.647247085 -0.1771079524
outer loop
vertex -0.7139462355 0.6954067015 0.08179420732
vertex -0.550716053 0.775588146 -0.3085042247
vertex -0.8847097117 0.4250543908 -0.1913569722
endloop
endfacet
facet normal 0.1198510587 -0.9691546083 0.2153487146
outer loop
vertex 0.3014901616 -0.9527483505 -0.03707105507
vertex 0.254347678 -0.8463601651 0.4679548373
vertex -0.19092056 -0.954532978 0.2289457003
endloop
endfacet
facet normal -0.0978670355 -0.3945877882 -0.9136315016
outer loop
vertex -0.0868437148 -0.1220669357 -0.9887152433
vertex 0.1094094608 -0.5625276248 -0.8195073162
vertex -0.3453565808 -0.4799602715 -0.8064533277
endloop
endfacet
facet normal -0.1495290258 -0.7157242159 -0.6821875968
outer loop
vertex 0.1094094608 -0.5625276248 -0.8195073162
vertex -0.1606118252 -0.8991094322 -0.4071929156
vertex -0.3453565808 -0.4799602715 -0.8064533277
endloop
endfacet
facet normal -0.2672866369 -0.4550742976 0.8493910981
outer loop
vertex -0.1834573534 -0.6925280572 0.6976734834
vertex -0.05848024002 -0.2791902927 0.9584533593
vertex -0.516034992 -0.3064003773 0.7998916776
endloop
endfacet
facet normal -0.04437101536 -0.9950599208 -0.08880859767
outer loop
vertex -0.1606118252 -0.8991094322 -0.4071929156
vertex 0.3014901616 -0.9527483505 -0.03707105507
vertex -0.19092056 -0.954532978 0.2289457003
endloop
endfacet
facet normal -0.267965759 0.09069145062 -0.9591503598
outer loop
vertex -0.2255581807 0.3629353575 -0.9041025569
vertex -0.0868437148 -0.1220669357 -0.9887152433
vertex -0.5155243835 0.005863603814 -0.8568548466
endloop
endfacet
facet normal -0.3453192295 -0.2157096065 -0.9133586346
outer loop
vertex -0.0868437148 -0.1220669357 -0.9887152433
vertex -0.3453565808 -0.4799602715 -0.8064533277
vertex -0.5155243835 0.005863603814 -0.8568548466
endloop
endfacet
facet normal -0.4082128095 0.4970980243 -0.7656734659
outer loop
vertex -0.2973770297 0.7052576083 -0.6435670969
vertex -0.2255581807 0.3629353575 -0.9041025569
vertex -0.6332444801 0.4399107862 -0.636773059
endloop
endfacet
facet normal -0.5292654139 0.6561544298 -0.5379028592
outer loop
vertex -0.550716053 0.775588146 -0.3085042247
vertex -0.2973770297 0.7052576083 -0.6435670969
vertex -0.6332444801 0.4399107862 -0.636773059
endloop
endfacet
facet normal -0.4870073072 0.2863001054 -0.8251400684
outer loop
vertex -0.2255581807 0.3629353575 -0.9041025569
vertex -0.5155243835 0.005863603814 -0.8568548466
vertex -0.6332444801 0.4399107862 -0.636773059
endloop
endfacet
facet normal -0.8735374325 0.4818086633 0.06922980591
outer loop
vertex -0.7139462355 0.6954067015 0.08179420732
vertex -0.8847097117 0.4250543908 -0.1913569722
vertex -0.8930498315 0.340107665 0.2945993459
endloop
endfacet
facet normal -0.7482816104 0.5751732491 0.3305304299
outer loop
vertex -0.7139462355 0.6954067015 0.08179420732
vertex -0.8930498315 0.340107665 0.2945993459
vertex -0.5476091533 0.6734291544 0.4966058691
endloop
endfacet
facet normal -0.05019137127 -0.8714481645 0.487912823
outer loop
vertex 0.254347678 -0.8463601651 0.4679548373
vertex -0.1834573534 -0.6925280572 0.6976734834
vertex -0.19092056 -0.954532978 0.2289457003
endloop
endfacet
facet normal -0.7278860391 0.5624763236 -0.3921763627
outer loop
vertex -0.550716053 0.775588146 -0.3085042247
vertex -0.6332444801 0.4399107862 -0.636773059
vertex -0.8847097117 0.4250543908 -0.1913569722
endloop
endfacet
facet normal -0.03328934601 0.6925350934 0.7206156839
outer loop
vertex 0.2493637278 0.6239780085 0.7405870484
vertex -0.08283492726 0.866608512 0.4920650992
vertex -0.2419666835 0.5158706 0.8217844292
endloop
endfacet
facet normal 0.0444132615 0.4630282109 0.8852301046
outer loop
vertex 0.1065970799 0.1862654324 0.976699673
vertex 0.2493637278 0.6239780085 0.7405870484
vertex -0.2419666835 0.5158706 0.8217844292
endloop
endfacet
facet normal -0.2940105964 0.7220857572 0.6262187544
outer loop
vertex -0.08283492726 0.866608512 0.4920650992
vertex -0.5476091533 0.6734291544 0.4966058691
vertex -0.2419666835 0.5158706 0.8217844292
endloop
endfacet
facet normal -0.2927503924 -0.7239964823 -0.6246009136
outer loop
vertex -0.3453565808 -0.4799602715 -0.8064533277
vertex -0.1606118252 -0.8991094322 -0.4071929156
vertex -0.5608385342 -0.6751266622 -0.4792328542
endloop
endfacet
facet normal -0.428974352 -0.8576890109 -0.2834617538
outer loop
vertex -0.5608385342 -0.6751266622 -0.4792328542
vertex -0.1606118252 -0.8991094322 -0.4071929156
vertex -0.5871128773 -0.8087399151 -0.03518833533
endloop
endfacet
facet normal -0.2863165988 -0.9532435707 -0.09669281348
outer loop
vertex -0.1606118252 -0.8991094322 -0.4071929156
vertex -0.19092056 -0.954532978 0.2289457003
vertex -0.5871128773 -0.8087399151 -0.03518833533
endloop
endfacet
facet normal -0.3119100212 -0.1853077077 0.9318654367
outer loop
vertex -0.516034992 -0.3064003773 0.7998916776
vertex -0.05848024002 -0.2791902927 0.9584533593
vertex -0.307961679 0.08577664705 0.9475241269
endloop
endfacet
facet normal -0.4448533121 -0.566740638 0.6934771661
outer loop
vertex -0.1834573534 -0.6925280572 0.6976734834
vertex -0.516034992 -0.3064003773 0.7998916776
vertex -0.5989288426 -0.6531459422 0.4633407165
endloop
endfacet
facet normal -0.1385778366 0.297431005 0.9446327225
outer loop
vertex 0.1065970799 0.1862654324 0.976699673
vertex -0.2419666835 0.5158706 0.8217844292
vertex -0.307961679 0.08577664705 0.9475241269
endloop
endfacet
facet normal -0.7286289851 0.4340171473 0.5298385772
outer loop
vertex -0.5476091533 0.6734291544 0.4966058691
vertex -0.8930498315 0.340107665 0.2945993459
vertex -0.6441798006 0.2251990205 0.730970441
endloop
endfacet
facet normal -0.5094761862 0.4823508478 0.7125809956
outer loop
vertex -0.2419666835 0.5158706 0.8217844292
vertex -0.5476091533 0.6734291544 0.4966058691
vertex -0.6441798006 0.2251990205 0.730970441
endloop
endfacet
facet normal -0.706857015 -0.3983543948 0.584522828
outer loop
vertex -0.5989288426 -0.6531459422 0.4633407165
vertex -0.516034992 -0.3064003773 0.7998916776
vertex -0.8652820463 -0.1667046302 0.4727542137
endloop
endfacet
facet normal -0.5074310137 -0.2628705347 -0.820617358
outer loop
vertex -0.5155243835 0.005863603814 -0.8568548466
vertex -0.3453565808 -0.4799602715 -0.8064533277
vertex -0.695913131 -0.3304542227 -0.6375773842
endloop
endfacet
facet normal -0.5403109064 -0.5168140391 -0.6640537429
outer loop
vertex -0.3453565808 -0.4799602715 -0.8064533277
vertex -0.5608385342 -0.6751266622 -0.4792328542
vertex -0.695913131 -0.3304542227 -0.6375773842
endloop
endfacet
facet normal -0.4189258695 0.3134286457 0.8522110067
outer loop
vertex -0.307961679 0.08577664705 0.9475241269
vertex -0.2419666835 0.5158706 0.8217844292
vertex -0.6441798006 0.2251990205 0.730970441
endloop
endfacet
facet normal -0.7155168607 0.1517077993 -0.6819240175
outer loop
vertex -0.6332444801 0.4399107862 -0.636773059
vertex -0.5155243835 0.005863603814 -0.8568548466
vertex -0.8871564239 0.03703852939 -0.4599800287
endloop
endfacet
facet normal -0.8290354706 0.3218218211 -0.4573083248
outer loop
vertex -0.8847097117 0.4250543908 -0.1913569722
vertex -0.6332444801 0.4399107862 -0.636773059
vertex -0.8871564239 0.03703852939 -0.4599800287
endloop
endfacet
facet normal -0.7309857294 -0.05156982112 -0.6804413398
outer loop
vertex -0.5155243835 0.005863603814 -0.8568548466
vertex -0.695913131 -0.3304542227 -0.6375773842
vertex -0.8871564239 0.03703852939 -0.4599800287
endloop
endfacet
facet normal -0.3388552412 -0.8189393536 0.4631581378
outer loop
vertex -0.1834573534 -0.6925280572 0.6976734834
vertex -0.5989288426 -0.6531459422 0.4633407165
vertex -0.19092056 -0.954532978 0.2289457003
endloop
endfacet
facet normal -0.9641686233 0.2636406242 0.02953789354
outer loop
vertex -0.8930498315 0.340107665 0.2945993459
vertex -0.8847097117 0.4250543908 -0.1913569722
vertex -0.999815379 -0.01807272558 0.006525684548
endloop
endfacet
facet normal -0.9643741266 0.1546627021 -0.2146205779
outer loop
vertex -0.8847097117 0.4250543908 -0.1913569722
vertex -0.8871564239 0.03703852939 -0.4599800287
vertex -0.999815379 -0.01807272558 0.006525684548
endloop
endfacet
facet normal -0.4774483467 -0.8419122011 0.251449641
outer loop
vertex -0.19092056 -0.954532978 0.2289457003
vertex -0.5989288426 -0.6531459422 0.4633407165
vertex -0.5871128773 -0.8087399151 -0.03518833533
endloop
endfacet
facet normal -0.7053072456 -0.6812912308 0.1959182178
outer loop
vertex -0.5871128773 -0.8087399151 -0.03518833533
vertex -0.5989288426 -0.6531459422 0.4633407165
vertex -0.8775155456 -0.4515531599 0.161450336
endloop
endfacet
facet normal -0.7870960969 -0.4393564742 0.432949908
outer loop
vertex -0.5989288426 -0.6531459422 0.4633407165
vertex -0.8652820463 -0.1667046302 0.4727542137
vertex -0.8775155456 -0.4515531599 0.161450336
endloop
endfacet
facet normal -0.697643775 -0.07580585884 0.712423073
outer loop
vertex -0.8652820463 -0.1667046302 0.4727542137
vertex -0.516034992 -0.3064003773 0.7998916776
vertex -0.6441798006 0.2251990205 0.730970441
endloop
endfacet
facet normal -0.7265328795 -0.6449460397 -0.237053962
outer loop
vertex -0.5608385342 -0.6751266622 -0.4792328542
vertex -0.5871128773 -0.8087399151 -0.03518833533
vertex -0.8794320734 -0.3944089768 -0.2665347769
endloop
endfacet
facet normal -0.7402803508 -0.4977328869 -0.4519369155
outer loop
vertex -0.695913131 -0.3304542227 -0.6375773842
vertex -0.5608385342 -0.6751266622 -0.4792328542
vertex -0.8794320734 -0.3944089768 -0.2665347769
endloop
endfacet
facet normal -0.7939323546 -0.6031141898 -0.07697200977
outer loop
vertex -0.5871128773 -0.8087399151 -0.03518833533
vertex -0.8775155456 -0.4515531599 0.161450336
vertex -0.8794320734 -0.3944089768 -0.2665347769
endloop
endfacet
facet normal -0.5482890955 -0.02378795134 0.8359504777
outer loop
vertex -0.307961679 0.08577664705 0.9475241269
vertex -0.6441798006 0.2251990205 0.730970441
vertex -0.516034992 -0.3064003773 0.7998916776
endloop
endfacet
facet normal -0.8448378415 0.1356391306 0.5175432812
outer loop
vertex -0.6441798006 0.2251990205 0.730970441
vertex -0.8930498315 0.340107665 0.2945993459
vertex -0.8652820463 -0.1667046302 0.4727542137
endloop
endfacet
facet normal -0.9552141012 0.05017862734 0.2916301189
outer loop
vertex -0.8930498315 0.340107665 0.2945993459
vertex -0.999815379 -0.01807272558 0.006525684548
vertex -0.8652820463 -0.1667046302 0.4727542137
endloop
endfacet
facet normal -0.8580016916 -0.2228561052 -0.4627831604
outer loop
vertex -0.695913131 -0.3304542227 -0.6375773842
vertex -0.8794320734 -0.3944089768 -0.2665347769
vertex -0.8871564239 0.03703852939 -0.4599800287
endloop
endfacet
facet normal -0.960507717 -0.1279764787 -0.2470768027
outer loop
vertex -0.999815379 -0.01807272558 0.006525684548
vertex -0.8871564239 0.03703852939 -0.4599800287
vertex -0.8794320734 -0.3944089768 -0.2665347769
endloop
endfacet
facet normal -0.9573619164 -0.1934093124 0.2145949646
outer loop
vertex -0.8652820463 -0.1667046302 0.4727542137
vertex -0.999815379 -0.01807272558 0.006525684548
vertex -0.8775155456 -0.4515531599 0.161450336
endloop
endfacet
facet normal -0.9587065418 -0.2824271889 -0.03341631017
outer loop
vertex -0.999815379 -0.01807272558 0.006525684548
vertex -0.8794320734 -0.3944089768 -0.2665347769
vertex -0.8775155456 -0.4515531599 0.161450336
endloop
endfacet
endsolid
